SplineFontDB: 3.2
FontName: IRRoya-Bold
FullName: IRRoya-Bold
FamilyName: IRRoya
Weight: Bold
Copyright: Copyright (c) 2022, Information Technology Organization of Iran (ito.gov.ir)
Version: 1.000
ItalicAngle: 0
UnderlinePosition: -100
UnderlineWidth: 60
Ascent: 1638
Descent: 410
InvalidEm: 0
sfntRevision: 0x00010000
LayerCount: 2
Layer: 0 1 "Back" 1
Layer: 1 1 "Fore" 0
XUID: [1021 420 722297922 13845515]
StyleMap: 0x0020
FSType: 0
OS2Version: 3
OS2_WeightWidthSlopeOnly: 0
OS2_UseTypoMetrics: 0
CreationTime: 1356420392
ModificationTime: 1662630687
PfmFamily: 17
TTFWeight: 700
TTFWidth: 5
LineGap: 100
VLineGap: 0
Panose: 2 0 8 6 0 0 0 2 0 2
OS2TypoAscent: 2100
OS2TypoAOffset: 0
OS2TypoDescent: -1300
OS2TypoDOffset: 0
OS2TypoLinegap: 300
OS2WinAscent: 2100
OS2WinAOffset: 0
OS2WinDescent: 1300
OS2WinDOffset: 0
HheadAscent: 2100
HheadAOffset: 0
HheadDescent: -1300
HheadDOffset: 0
OS2SubXSize: 1434
OS2SubYSize: 1331
OS2SubXOff: 0
OS2SubYOff: 293
OS2SupXSize: 1434
OS2SupYSize: 1331
OS2SupXOff: 0
OS2SupYOff: 928
OS2StrikeYSize: 50
OS2StrikeYPos: 250
OS2CapHeight: 2108
OS2XHeight: 650
OS2FamilyClass: 2048
OS2Vendor: 'PARS'
OS2CodePages: 20000041.00000000
OS2UnicodeRanges: 00002003.00000000.00000000.00000000
Lookup: 1 1 0 "'init' Initial Forms in Arabic lookup 0" { "'init' Initial Forms in Arabic lookup 0 subtable"  } ['init' ('arab' <'dflt' > ) ]
Lookup: 1 1 0 "'isol' Isolated Forms in Arabic lookup 1" { "'isol' Isolated Forms in Arabic lookup 1 subtable"  } ['isol' ('arab' <'dflt' > ) ]
Lookup: 1 1 0 "'medi' Medial Forms in Arabic lookup 2" { "'medi' Medial Forms in Arabic lookup 2 subtable"  } ['medi' ('arab' <'dflt' > ) ]
Lookup: 1 1 0 "'fina' Terminal Forms in Arabic lookup 3" { "'fina' Terminal Forms in Arabic lookup 3 subtable"  } ['fina' ('arab' <'dflt' > ) ]
Lookup: 4 1 0 "'ccmp' Glyph Composition/Decomposition in Arabic lookup 4" { "'ccmp' Glyph Composition/Decomposition in Arabic lookup 4 subtable"  } ['ccmp' ('arab' <'dflt' > ) ]

StartChar: quotedbl
Encoding: 34 34 1
Width: 523
Flags: W
LayerCount: 2
Fore
SplineSet
314 1295 m 1,0,-1
 455 1295 l 1,1,-1
 413 973 l 1,2,-1
 346 973 l 1,3,-1
 314 1295 l 1,0,-1
94 1295 m 1,4,-1
 235 1295 l 1,5,-1
 193 973 l 1,6,-1
 126 973 l 1,7,-1
 94 1295 l 1,4,-1
EndSplineSet
EndChar

StartChar: numbersign
Encoding: 35 35 2
Width: 868
Flags: W
LayerCount: 2
Fore
SplineSet
76 -23 m 1,0,-1
 149 336 l 1,1,-1
 34 336 l 1,2,-1
 34 448 l 1,3,-1
 172 448 l 1,4,-1
 222 696 l 1,5,-1
 34 696 l 1,6,-1
 34 807 l 1,7,-1
 244 807 l 1,8,-1
 317 1173 l 1,9,-1
 429 1173 l 1,10,-1
 354 807 l 1,11,-1
 604 807 l 1,12,-1
 677 1173 l 1,13,-1
 790 1173 l 1,14,-1
 714 807 l 1,15,-1
 833 807 l 1,16,-1
 833 696 l 1,17,-1
 693 696 l 1,18,-1
 642 448 l 1,19,-1
 833 448 l 1,20,-1
 833 336 l 1,21,-1
 621 336 l 1,22,-1
 549 -23 l 1,23,-1
 436 -23 l 1,24,-1
 509 336 l 1,25,-1
 262 336 l 1,26,-1
 185 -23 l 1,27,-1
 76 -23 l 1,0,-1
284 448 m 1,28,-1
 533 448 l 1,29,-1
 583 696 l 1,30,-1
 333 696 l 1,31,-1
 284 448 l 1,28,-1
EndSplineSet
EndChar

StartChar: dollar
Encoding: 36 36 3
Width: 868
Flags: W
LayerCount: 2
Fore
SplineSet
480 708 m 1,0,1
 683 580 683 580 739 515 c 0,2,3
 813 426 813 426 813 307 c 0,4,5
 813 176 813 176 725 86 c 128,-1,6
 637 -4 637 -4 480 -18 c 1,7,-1
 480 -117 l 1,8,-1
 406 -117 l 1,9,-1
 406 -23 l 1,10,11
 316 -22 316 -22 246.5 -9 c 128,-1,12
 177 4 177 4 87 39 c 1,13,-1
 87 313 l 1,14,-1
 123 313 l 1,15,16
 140 219 140 219 176.5 161.5 c 128,-1,17
 213 104 213 104 268.5 75 c 128,-1,18
 324 46 324 46 406 39 c 1,19,-1
 406 458 l 1,20,21
 201 586 201 586 134 663 c 128,-1,22
 67 740 67 740 67 842 c 0,23,24
 67 952 67 952 151.5 1036 c 128,-1,25
 236 1120 236 1120 406 1142 c 1,26,-1
 406 1181 l 1,27,-1
 480 1181 l 1,28,-1
 480 1142 l 1,29,30
 624 1131 624 1131 770 1053 c 1,31,-1
 770 808 l 1,32,-1
 737 808 l 1,33,34
 712 890 712 890 677.5 943.5 c 128,-1,35
 643 997 643 997 589 1036 c 0,36,37
 548 1063 548 1063 480 1082 c 1,38,-1
 480 708 l 1,0,1
406 1084 m 1,39,40
 344 1079 344 1079 307 1050 c 0,41,42
 248 1006 248 1006 248 942 c 0,43,44
 248 903 248 903 275.5 863.5 c 128,-1,45
 303 824 303 824 406 755 c 1,46,-1
 406 1084 l 1,39,40
480 39 m 1,47,48
 553 56 553 56 587 97 c 128,-1,49
 621 138 621 138 621 200 c 0,50,51
 621 253 621 253 591 300 c 128,-1,52
 561 347 561 347 480 406 c 1,53,-1
 480 39 l 1,47,48
EndSplineSet
EndChar

StartChar: percent
Encoding: 37 37 4
Width: 1736
Flags: W
LayerCount: 2
Fore
SplineSet
1333 1177 m 1,0,-1
 517 -49 l 1,1,-1
 404 -49 l 1,2,-1
 1219 1177 l 1,3,-1
 1333 1177 l 1,0,-1
405 1177 m 0,4,5
 526 1177 526 1177 608.5 1091.5 c 128,-1,6
 691 1006 691 1006 691 871 c 0,7,8
 691 732 691 732 608 646.5 c 128,-1,9
 525 561 525 561 402 561 c 0,10,11
 281 561 281 561 201 644 c 128,-1,12
 121 727 121 727 121 863 c 0,13,14
 121 1003 121 1003 203 1090 c 128,-1,15
 285 1177 285 1177 405 1177 c 0,4,5
405 1131 m 0,16,17
 387 1131 387 1131 375 1120 c 0,18,19
 354 1100 354 1100 343.5 1052.5 c 128,-1,20
 333 1005 333 1005 333 854 c 0,21,22
 333 736 333 736 347 670 c 0,23,24
 355 633 355 633 375 614 c 0,25,26
 388 603 388 603 405 603 c 0,27,28
 424 603 424 603 435 613 c 0,29,30
 455 631 455 631 464 671 c 0,31,32
 478 736 478 736 478 851 c 0,33,34
 478 994 478 994 464 1058 c 0,35,36
 456 1101 456 1101 435 1121 c 0,37,38
 424 1131 424 1131 405 1131 c 0,16,17
1328 569 m 0,39,40
 1451 569 1451 569 1533.5 485 c 128,-1,41
 1616 401 1616 401 1616 264 c 0,42,43
 1616 125 1616 125 1532 38.5 c 128,-1,44
 1448 -48 1448 -48 1329 -48 c 0,45,46
 1212 -48 1212 -48 1129 38.5 c 128,-1,47
 1046 125 1046 125 1046 261 c 256,48,49
 1046 397 1046 397 1126.5 483 c 128,-1,50
 1207 569 1207 569 1328 569 c 0,39,40
1330 525 m 0,51,52
 1313 525 1313 525 1302 515 c 0,53,54
 1282 496 1282 496 1270.5 450 c 128,-1,55
 1259 404 1259 404 1259 273 c 0,56,57
 1259 134 1259 134 1272 73 c 0,58,59
 1282 30 1282 30 1304 11 c 0,60,61
 1314 0 1314 0 1332 0 c 0,62,63
 1348 0 1348 0 1359 10 c 0,64,65
 1380 29 1380 29 1390 73 c 0,66,67
 1404 135 1404 135 1404 261 c 0,68,69
 1404 392 1404 392 1391 454 c 0,70,71
 1380 498 1380 498 1360 515 c 0,72,73
 1350 525 1350 525 1330 525 c 0,51,52
EndSplineSet
EndChar

StartChar: ampersand
Encoding: 38 38 5
Width: 1447
Flags: W
LayerCount: 2
Fore
SplineSet
989 688 m 1,0,-1
 1342 688 l 1,1,-1
 1342 655 l 1,2,3
 1283 647 1283 647 1249 620 c 128,-1,4
 1215 593 1215 593 1160.5 495 c 128,-1,5
 1106 397 1106 397 1007 278 c 1,6,7
 1094 199 1094 199 1148 169 c 0,8,9
 1186 147 1186 147 1223 147 c 0,10,11
 1286 147 1286 147 1337 230 c 1,12,-1
 1372 211 l 1,13,14
 1302 74 1302 74 1223 17 c 0,15,16
 1163 -27 1163 -27 1085 -27 c 0,17,18
 1020 -27 1020 -27 960 2 c 128,-1,19
 900 31 900 31 814 108 c 1,20,21
 708 37 708 37 615 5 c 128,-1,22
 522 -27 522 -27 421 -27 c 0,23,24
 260 -27 260 -27 165 60.5 c 128,-1,25
 70 148 70 148 70 266 c 0,26,27
 70 393 70 393 160.5 487.5 c 128,-1,28
 251 582 251 582 424 651 c 1,29,30
 402 706 402 706 390.5 758.5 c 128,-1,31
 379 811 379 811 379 860 c 0,32,33
 379 995 379 995 474.5 1086 c 128,-1,34
 570 1177 570 1177 719 1177 c 0,35,36
 838 1177 838 1177 908 1117 c 128,-1,37
 978 1057 978 1057 978 977 c 0,38,39
 978 881 978 881 906.5 812.5 c 128,-1,40
 835 744 835 744 681 688 c 1,41,42
 776 519 776 519 960 324 c 1,43,44
 1085 464 1085 464 1085 564 c 0,45,46
 1085 600 1085 600 1061 625 c 128,-1,47
 1037 650 1037 650 989 655 c 1,48,-1
 989 688 l 1,0,-1
651 739 m 1,49,50
 740 772 740 772 770.5 809.5 c 128,-1,51
 801 847 801 847 801 901 c 0,52,53
 801 995 801 995 752 1061 c 0,54,55
 719 1105 719 1105 670 1105 c 0,56,57
 630 1105 630 1105 601.5 1073 c 128,-1,58
 573 1041 573 1041 573 988 c 0,59,60
 573 947 573 947 586.5 899 c 128,-1,61
 600 851 600 851 651 739 c 1,49,50
447 596 m 1,62,63
 379 567 379 567 352 535 c 0,64,65
 312 488 312 488 312 429 c 0,66,67
 312 350 312 350 358.5 271 c 128,-1,68
 405 192 405 192 470 148.5 c 128,-1,69
 535 105 535 105 600 105 c 0,70,71
 633 105 633 105 673 119.5 c 128,-1,72
 713 134 713 134 761 161 c 1,73,74
 556 371 556 371 447 596 c 1,62,63
EndSplineSet
EndChar

StartChar: quotesingle
Encoding: 39 39 6
Width: 384
Flags: W
LayerCount: 2
Fore
SplineSet
131 1295 m 1,0,-1
 272 1295 l 1,1,-1
 230 973 l 1,2,-1
 163 973 l 1,3,-1
 131 1295 l 1,0,-1
EndSplineSet
EndChar

StartChar: asterisk
Encoding: 42 42 7
Width: 774
Flags: W
LayerCount: 2
Fore
SplineSet
430 713 m 1,0,-1
 430 569 l 2,1,2
 430 555 430 555 422 545 c 128,-1,3
 414 535 414 535 399 535 c 2,4,-1
 348 535 l 2,5,6
 340 535 340 535 329.5 545 c 128,-1,7
 319 555 319 555 319 569 c 2,8,-1
 319 713 l 1,9,-1
 221 612 l 1,10,11
 193 594 193 594 164 612 c 1,12,-1
 133 645 l 2,13,14
 115 668 115 668 139 694 c 2,15,-1
 240 797 l 1,16,-1
 96 797 l 2,17,18
 82 797 82 797 69.5 806 c 128,-1,19
 57 815 57 815 57 831 c 2,20,-1
 57 881 l 2,21,22
 57 891 57 891 69.5 900 c 128,-1,23
 82 909 82 909 96 909 c 2,24,-1
 231 909 l 1,25,-1
 133 1010 l 2,26,27
 119 1022 119 1022 118 1036.5 c 128,-1,28
 117 1051 117 1051 127 1065 c 1,29,-1
 164 1096 l 2,30,31
 174 1106 174 1106 186.5 1105 c 128,-1,32
 199 1104 199 1104 211 1090 c 2,33,-1
 319 985 l 1,34,-1
 319 1141 l 2,35,36
 319 1153 319 1153 329.5 1164.5 c 128,-1,37
 340 1176 340 1176 348 1176 c 2,38,-1
 399 1176 l 2,39,40
 414 1176 414 1176 422 1164.5 c 128,-1,41
 430 1153 430 1153 430 1141 c 2,42,-1
 430 991 l 1,43,-1
 537 1096 l 2,44,45
 549 1110 549 1110 561 1111 c 128,-1,46
 573 1112 573 1112 592 1104 c 1,47,-1
 618 1065 l 1,48,49
 629 1057 629 1057 629 1044.5 c 128,-1,50
 629 1032 629 1032 616 1016 c 2,51,-1
 512 909 l 1,52,-1
 668 909 l 2,53,54
 678 909 678 909 690 900 c 128,-1,55
 702 891 702 891 702 881 c 2,56,-1
 702 831 l 2,57,58
 702 815 702 815 690 806 c 128,-1,59
 678 797 678 797 668 797 c 2,60,-1
 504 797 l 1,61,-1
 616 694 l 1,62,63
 635 668 635 668 616 637 c 1,64,-1
 586 606 l 1,65,66
 563 588 563 588 537 612 c 2,67,-1
 430 713 l 1,0,-1
EndSplineSet
EndChar

StartChar: plus
Encoding: 43 43 8
Width: 864
Flags: W
LayerCount: 2
Fore
SplineSet
362 808 m 1,0,-1
 498 808 l 1,1,-1
 497 544 l 1,2,-1
 762 544 l 1,3,-1
 762 407 l 1,4,-1
 497 407 l 1,5,-1
 497 141 l 1,6,-1
 361 142 l 1,7,-1
 361 407 l 1,8,-1
 96 407 l 1,9,-1
 96 544 l 1,10,-1
 361 544 l 1,11,-1
 362 808 l 1,0,-1
EndSplineSet
EndChar

StartChar: hyphen
Encoding: 45 45 9
Width: 849
Flags: W
LayerCount: 2
Fore
SplineSet
762 544 m 1,0,-1
 762 407 l 1,1,-1
 96 407 l 1,2,-1
 96 544 l 1,3,-1
 762 544 l 1,0,-1
EndSplineSet
EndChar

StartChar: period
Encoding: 46 46 10
Width: 577
Flags: W
LayerCount: 2
Fore
SplineSet
339 6 m 0,0,1
 290 6 290 6 255.5 40.5 c 128,-1,2
 221 75 221 75 221 125 c 256,3,4
 221 175 221 175 256 209.5 c 128,-1,5
 291 244 291 244 339 244 c 0,6,7
 389 244 389 244 424 209.5 c 128,-1,8
 459 175 459 175 459 125 c 256,9,10
 459 75 459 75 424.5 40.5 c 128,-1,11
 390 6 390 6 339 6 c 0,0,1
EndSplineSet
EndChar

StartChar: slash
Encoding: 47 47 11
Width: 920
Flags: W
LayerCount: 2
Fore
SplineSet
722 1259 m 1,0,-1
 254 -181 l 1,1,-1
 134 -181 l 1,2,-1
 601 1259 l 1,3,-1
 722 1259 l 1,0,-1
EndSplineSet
EndChar

StartChar: zero
Encoding: 48 48 12
Width: 868
Flags: W
LayerCount: 2
Fore
SplineSet
805 575 m 0,0,1
 805 403 805 403 757 253 c 0,2,3
 727 162 727 162 678.5 103.5 c 128,-1,4
 630 45 630 45 568.5 11 c 128,-1,5
 507 -23 507 -23 434 -23 c 0,6,7
 350 -23 350 -23 283 19 c 128,-1,8
 216 61 216 61 164 140 c 0,9,10
 127 197 127 197 100 294 c 0,11,12
 63 423 63 423 63 562 c 0,13,14
 63 748 63 748 116 905 c 0,15,16
 159 1036 159 1036 247 1104.5 c 128,-1,17
 335 1173 335 1173 434 1173 c 256,18,19
 533 1173 533 1173 620 1105 c 128,-1,20
 707 1037 707 1037 748 922 c 0,21,22
 805 763 805 763 805 575 c 0,0,1
544 577 m 2,23,24
 544 879 544 879 541 929 c 0,25,26
 532 1046 532 1046 499 1088 c 0,27,28
 478 1115 478 1115 430 1115 c 0,29,30
 394 1115 394 1115 373 1095 c 0,31,32
 341 1065 341 1065 330.5 990 c 128,-1,33
 320 915 320 915 320 466 c 0,34,35
 320 223 320 223 337 139 c 0,36,37
 350 78 350 78 373 58 c 128,-1,38
 396 38 396 38 436 38 c 0,39,40
 478 38 478 38 499 66 c 0,41,42
 535 112 535 112 541 212 c 1,43,-1
 544 577 l 2,23,24
EndSplineSet
EndChar

StartChar: one
Encoding: 49 49 13
Width: 868
Flags: W
LayerCount: 2
Fore
SplineSet
566 1173 m 1,0,-1
 566 233 l 2,1,2
 566 127 566 127 575 98 c 128,-1,3
 584 69 584 69 613.5 50.5 c 128,-1,4
 643 32 643 32 709 32 c 2,5,-1
 736 32 l 1,6,-1
 736 0 l 1,7,-1
 129 0 l 1,8,-1
 129 32 l 1,9,-1
 160 32 l 2,10,11
 234 32 234 32 265.5 49 c 128,-1,12
 297 66 297 66 308 95.5 c 128,-1,13
 319 125 319 125 319 233 c 2,14,-1
 319 829 l 2,15,16
 319 909 319 909 311 929 c 128,-1,17
 303 949 303 949 282.5 963 c 128,-1,18
 262 977 262 977 235 977 c 0,19,20
 192 977 192 977 129 950 c 1,21,-1
 114 980 l 1,22,-1
 537 1173 l 1,23,-1
 566 1173 l 1,0,-1
EndSplineSet
EndChar

StartChar: two
Encoding: 50 50 14
Width: 868
Flags: W
LayerCount: 2
Fore
SplineSet
719 0 m 1,0,-1
 42 0 l 1,1,-1
 42 19 l 1,2,3
 354 389 354 389 420.5 517.5 c 128,-1,4
 487 646 487 646 487 767 c 0,5,6
 487 856 487 856 431.5 915 c 128,-1,7
 376 974 376 974 297 974 c 0,8,9
 166 974 166 974 94 844 c 1,10,-1
 63 854 l 1,11,12
 108 1018 108 1018 201.5 1095.5 c 128,-1,13
 295 1173 295 1173 418 1173 c 0,14,15
 505 1173 505 1173 577 1132.5 c 128,-1,16
 649 1092 649 1092 689.5 1021.5 c 128,-1,17
 730 951 730 951 730 888 c 0,18,19
 730 776 730 776 668 659 c 0,20,21
 582 502 582 502 294 223 c 1,22,-1
 542 223 l 2,23,24
 634 223 634 223 661.5 230 c 128,-1,25
 689 237 689 237 706.5 255 c 128,-1,26
 724 273 724 273 753 333 c 1,27,-1
 783 333 l 1,28,-1
 719 0 l 1,0,-1
EndSplineSet
EndChar

StartChar: three
Encoding: 51 51 15
Width: 868
Flags: W
LayerCount: 2
Fore
SplineSet
257 577 m 1,0,-1
 257 606 l 1,1,2
 354 634 354 634 391 658.5 c 128,-1,3
 428 683 428 683 455 732.5 c 128,-1,4
 482 782 482 782 482 833 c 0,5,6
 482 903 482 903 430.5 953.5 c 128,-1,7
 379 1004 379 1004 303 1004 c 0,8,9
 184 1004 184 1004 102 879 c 1,10,-1
 70 889 l 1,11,12
 131 1031 131 1031 226.5 1102 c 128,-1,13
 322 1173 322 1173 439 1173 c 0,14,15
 559 1173 559 1173 636.5 1100.5 c 128,-1,16
 714 1028 714 1028 714 931 c 0,17,18
 714 867 714 867 678 807.5 c 128,-1,19
 642 748 642 748 565 704 c 1,20,21
 664 655 664 655 716 584.5 c 128,-1,22
 768 514 768 514 768 407 c 0,23,24
 768 227 768 227 638 101.5 c 128,-1,25
 508 -24 508 -24 289 -24 c 0,26,27
 143 -24 143 -24 76 23 c 0,28,29
 28 57 28 57 28 111 c 0,30,31
 28 151 28 151 56 178.5 c 128,-1,32
 84 206 84 206 121 206 c 0,33,34
 148 206 148 206 173 193 c 0,35,36
 187 187 187 187 269.5 119.5 c 128,-1,37
 352 52 352 52 424 52 c 0,38,39
 487 52 487 52 532 101.5 c 128,-1,40
 577 151 577 151 577 227 c 0,41,42
 577 343 577 343 495 441.5 c 128,-1,43
 413 540 413 540 257 577 c 1,0,-1
EndSplineSet
EndChar

StartChar: four
Encoding: 52 52 16
Width: 868
Flags: W
LayerCount: 2
Fore
SplineSet
43 434 m 1,0,-1
 589 1173 l 1,1,-1
 693 1173 l 1,2,-1
 693 434 l 1,3,-1
 798 434 l 1,4,-1
 798 258 l 1,5,-1
 693 258 l 1,6,-1
 693 0 l 1,7,-1
 460 0 l 1,8,-1
 460 258 l 1,9,-1
 43 258 l 1,10,-1
 43 434 l 1,0,-1
125 434 m 1,11,-1
 460 434 l 1,12,-1
 460 887 l 1,13,-1
 125 434 l 1,11,-1
EndSplineSet
EndChar

StartChar: five
Encoding: 53 53 17
Width: 868
Flags: W
LayerCount: 2
Fore
SplineSet
265 1150 m 1,0,-1
 803 1150 l 1,1,-1
 718 931 l 1,2,-1
 265 931 l 1,3,-1
 222 816 l 1,4,5
 514 806 514 806 672 671 c 0,6,7
 801 560 801 560 801 394 c 0,8,9
 801 288 801 288 741 187 c 128,-1,10
 681 86 681 86 571.5 31.5 c 128,-1,11
 462 -23 462 -23 332 -23 c 0,12,13
 191 -23 191 -23 116 29 c 0,14,15
 63 66 63 66 63 113 c 0,16,17
 63 151 63 151 90.5 178.5 c 128,-1,18
 118 206 118 206 155 206 c 0,19,20
 188 206 188 206 221.5 192.5 c 128,-1,21
 255 179 255 179 337 121 c 0,22,23
 389 86 389 86 426 72 c 0,24,25
 453 61 453 61 485 61 c 0,26,27
 555 61 555 61 604 112 c 128,-1,28
 653 163 653 163 653 235 c 0,29,30
 653 384 653 384 503.5 477 c 128,-1,31
 354 570 354 570 127 570 c 0,32,33
 104 570 104 570 58 570 c 1,34,-1
 265 1150 l 1,0,-1
EndSplineSet
EndChar

StartChar: six
Encoding: 54 54 18
Width: 868
Flags: W
LayerCount: 2
Fore
SplineSet
816 1173 m 1,0,-1
 816 1150 l 1,1,2
 662 1111 662 1111 569.5 1049.5 c 128,-1,3
 477 988 477 988 423 900 c 128,-1,4
 369 812 369 812 339 683 c 1,5,6
 376 708 376 708 401 715 c 0,7,8
 456 732 456 732 512 732 c 0,9,10
 641 732 641 732 727 638.5 c 128,-1,11
 813 545 813 545 813 384 c 0,12,13
 813 269 813 269 766.5 174 c 128,-1,14
 720 79 720 79 634.5 28 c 128,-1,15
 549 -23 549 -23 452 -23 c 0,16,17
 346 -23 346 -23 255.5 34.5 c 128,-1,18
 165 92 165 92 115 204 c 128,-1,19
 65 316 65 316 65 447 c 0,20,21
 65 641 65 641 157.5 807.5 c 128,-1,22
 250 974 250 974 420.5 1073 c 128,-1,23
 591 1172 591 1172 816 1173 c 1,0,-1
329 614 m 1,24,25
 321 497 321 497 321 443 c 0,26,27
 321 325 321 325 344 216 c 128,-1,28
 367 107 367 107 405 63 c 0,29,30
 434 32 434 32 472 32 c 0,31,32
 511 32 511 32 541 77 c 128,-1,33
 571 122 571 122 571 261 c 0,34,35
 571 495 571 495 515 584 c 0,36,37
 478 642 478 642 417 642 c 0,38,39
 383 642 383 642 329 614 c 1,24,25
EndSplineSet
EndChar

StartChar: seven
Encoding: 55 55 19
Width: 868
Flags: W
LayerCount: 2
Fore
SplineSet
307 -23 m 1,0,-1
 621 925 l 1,1,-1
 383 925 l 2,2,3
 243 925 243 925 172 888 c 0,4,5
 123 863 123 863 91 793 c 1,6,-1
 58 793 l 1,7,-1
 142 1150 l 1,8,-1
 827 1150 l 1,9,-1
 441 -23 l 1,10,-1
 307 -23 l 1,0,-1
EndSplineSet
EndChar

StartChar: eight
Encoding: 56 56 20
Width: 868
Flags: W
LayerCount: 2
Fore
SplineSet
591 650 m 1,0,1
 713 561 713 561 760.5 484 c 128,-1,2
 808 407 808 407 808 307 c 0,3,4
 808 169 808 169 703 73 c 128,-1,5
 598 -23 598 -23 418 -23 c 0,6,7
 248 -23 248 -23 154.5 60.5 c 128,-1,8
 61 144 61 144 61 265 c 0,9,10
 61 358 61 358 115 427.5 c 128,-1,11
 169 497 169 497 295 554 c 1,12,13
 158 659 158 659 119.5 725 c 128,-1,14
 81 791 81 791 81 879 c 0,15,16
 81 994 81 994 179 1081.5 c 128,-1,17
 277 1169 277 1169 447 1169 c 0,18,19
 612 1169 612 1169 700.5 1091.5 c 128,-1,20
 789 1014 789 1014 789 905 c 0,21,22
 789 825 789 825 741 762.5 c 128,-1,23
 693 700 693 700 591 650 c 1,0,1
528 693 m 1,24,25
 559 736 559 736 574 788.5 c 128,-1,26
 589 841 589 841 589 903 c 0,27,28
 589 1013 589 1013 542 1072 c 0,29,30
 507 1117 507 1117 443 1117 c 0,31,32
 387 1117 387 1117 347 1076 c 128,-1,33
 307 1035 307 1035 307 973 c 0,34,35
 307 912 307 912 351.5 845 c 128,-1,36
 396 778 396 778 528 693 c 1,24,25
358 514 m 1,37,38
 332 490 332 490 320 471 c 0,39,40
 303 441 303 441 290 384.5 c 128,-1,41
 277 328 277 328 277 265 c 0,42,43
 277 185 277 185 297 131.5 c 128,-1,44
 317 78 317 78 354.5 54.5 c 128,-1,45
 392 31 392 31 432 31 c 0,46,47
 494 31 494 31 536.5 76 c 128,-1,48
 579 121 579 121 579 200 c 0,49,50
 579 365 579 365 358 514 c 1,37,38
EndSplineSet
EndChar

StartChar: nine
Encoding: 57 57 21
Width: 868
Flags: W
LayerCount: 2
Fore
SplineSet
53 -23 m 1,0,-1
 53 0 l 1,1,2
 194 32 194 32 292 95 c 128,-1,3
 390 158 390 158 447.5 250 c 128,-1,4
 505 342 505 342 528 463 c 1,5,6
 475 436 475 436 438 425 c 128,-1,7
 401 414 401 414 360 414 c 0,8,9
 230 414 230 414 143 508.5 c 128,-1,10
 56 603 56 603 56 766 c 0,11,12
 56 880 56 880 103.5 975 c 128,-1,13
 151 1070 151 1070 237.5 1121.5 c 128,-1,14
 324 1173 324 1173 419 1173 c 0,15,16
 519 1173 519 1173 609.5 1115.5 c 128,-1,17
 700 1058 700 1058 753.5 949 c 128,-1,18
 807 840 807 840 807 700 c 0,19,20
 807 518 807 518 720 351.5 c 128,-1,21
 633 185 633 185 460.5 85 c 128,-1,22
 288 -15 288 -15 53 -23 c 1,0,-1
541 534 m 1,23,24
 549 630 549 630 549 702 c 0,25,26
 549 855 549 855 513 989 c 0,27,28
 493 1062 493 1062 453 1097 c 0,29,30
 431 1116 431 1116 397 1116 c 0,31,32
 355 1116 355 1116 332 1079 c 0,33,34
 299 1029 299 1029 299 888 c 0,35,36
 299 654 299 654 354 565 c 0,37,38
 391 507 391 507 453 507 c 0,39,40
 485 507 485 507 541 534 c 1,23,24
EndSplineSet
EndChar

StartChar: less
Encoding: 60 60 22
Width: 1117
Flags: W
LayerCount: 2
Fore
SplineSet
955 58 m 1,0,-1
 150 444 l 1,1,-1
 150 534 l 1,2,-1
 955 918 l 1,3,-1
 955 784 l 1,4,-1
 331 489 l 1,5,-1
 955 192 l 1,6,-1
 955 58 l 1,0,-1
EndSplineSet
EndChar

StartChar: equal
Encoding: 61 61 23
Width: 1117
Flags: W
LayerCount: 2
Fore
SplineSet
973 586 m 1,0,-1
 144 586 l 1,1,-1
 144 706 l 1,2,-1
 973 706 l 1,3,-1
 973 586 l 1,0,-1
973 271 m 1,4,-1
 144 271 l 1,5,-1
 144 391 l 1,6,-1
 973 391 l 1,7,-1
 973 271 l 1,4,-1
EndSplineSet
EndChar

StartChar: greater
Encoding: 62 62 24
Width: 1117
Flags: W
LayerCount: 2
Fore
SplineSet
966 444 m 1,0,-1
 160 58 l 1,1,-1
 160 192 l 1,2,-1
 786 489 l 1,3,-1
 160 784 l 1,4,-1
 160 918 l 1,5,-1
 966 534 l 1,6,-1
 966 444 l 1,0,-1
EndSplineSet
EndChar

StartChar: question
Encoding: 63 63 25
Width: 868
Flags: W
LayerCount: 2
Fore
SplineSet
412 375 m 1,0,-1
 377 375 l 1,1,2
 375 469 375 469 385.5 515.5 c 128,-1,3
 396 562 396 562 440.5 644 c 128,-1,4
 485 726 485 726 499.5 775.5 c 128,-1,5
 514 825 514 825 514 898 c 0,6,7
 514 1011 514 1011 470 1064 c 128,-1,8
 426 1117 426 1117 366 1117 c 0,9,10
 320 1117 320 1117 288 1093 c 0,11,12
 265 1075 265 1075 265 1054 c 0,13,14
 265 1041 265 1041 281 1011 c 0,15,16
 317 947 317 947 317 901 c 0,17,18
 317 859 317 859 289 831 c 128,-1,19
 261 803 261 803 218 803 c 0,20,21
 171 803 171 803 138.5 836.5 c 128,-1,22
 106 870 106 870 106 925 c 0,23,24
 106 1025 106 1025 192.5 1101 c 128,-1,25
 279 1177 279 1177 435 1177 c 0,26,27
 599 1177 599 1177 685 1098.5 c 128,-1,28
 771 1020 771 1020 771 908 c 0,29,30
 771 828 771 828 727 759.5 c 128,-1,31
 683 691 683 691 556 608 c 0,32,33
 472 552 472 552 445 508 c 128,-1,34
 418 464 418 464 412 375 c 1,0,-1
403 251 m 256,35,36
 460 251 460 251 500 211.5 c 128,-1,37
 540 172 540 172 540 114 c 0,38,39
 540 57 540 57 500 17 c 128,-1,40
 460 -23 460 -23 403 -23 c 256,41,42
 346 -23 346 -23 306 17 c 128,-1,43
 266 57 266 57 266 114 c 0,44,45
 266 172 266 172 306 211.5 c 128,-1,46
 346 251 346 251 403 251 c 256,35,36
EndSplineSet
EndChar

StartChar: at
Encoding: 64 64 26
Width: 1615
Flags: W
LayerCount: 2
Fore
SplineSet
1000 784 m 1,0,-1
 1206 793 l 1,1,-1
 1052 261 l 2,2,3
 1025 172 1025 172 1025 128 c 0,4,5
 1025 101 1025 101 1045 81 c 128,-1,6
 1065 61 1065 61 1094 61 c 0,7,8
 1152 61 1152 61 1245 128.5 c 128,-1,9
 1338 196 1338 196 1399 321 c 128,-1,10
 1460 446 1460 446 1460 587 c 0,11,12
 1460 821 1460 821 1309.5 972 c 128,-1,13
 1159 1123 1159 1123 917 1123 c 0,14,15
 708 1123 708 1123 537.5 1024.5 c 128,-1,16
 367 926 367 926 267 739.5 c 128,-1,17
 167 553 167 553 167 340 c 0,18,19
 167 47 167 47 354 -140.5 c 128,-1,20
 541 -328 541 -328 830 -328 c 0,21,22
 1068 -328 1068 -328 1257.5 -199.5 c 128,-1,23
 1447 -71 1447 -71 1525 140 c 1,24,-1
 1577 140 l 1,25,26
 1476 -109 1476 -109 1281 -242 c 128,-1,27
 1086 -375 1086 -375 829 -375 c 0,28,29
 502 -375 502 -375 290 -164 c 128,-1,30
 78 47 78 47 78 370 c 0,31,32
 78 591 78 591 183 781 c 128,-1,33
 288 971 288 971 478 1074 c 128,-1,34
 668 1177 668 1177 899 1177 c 0,35,36
 1086 1177 1086 1177 1226.5 1101.5 c 128,-1,37
 1367 1026 1367 1026 1437 890.5 c 128,-1,38
 1507 755 1507 755 1507 604 c 0,39,40
 1507 428 1507 428 1431.5 283 c 128,-1,41
 1356 138 1356 138 1243 69 c 128,-1,42
 1130 0 1130 0 999 0 c 0,43,44
 915 0 915 0 871 41.5 c 128,-1,45
 827 83 827 83 827 148 c 0,46,47
 827 194 827 194 847 268 c 1,48,49
 777 151 777 151 738 106 c 0,50,51
 685 46 685 46 632 18 c 0,52,53
 598 0 598 0 554 0 c 0,54,55
 494 0 494 0 453 47.5 c 128,-1,56
 412 95 412 95 412 189 c 256,57,58
 412 283 412 283 439.5 374 c 128,-1,59
 467 465 467 465 514.5 545 c 128,-1,60
 562 625 562 625 624.5 689 c 128,-1,61
 687 753 687 753 765 795 c 0,62,63
 805 816 805 816 850 816 c 0,64,65
 898 816 898 816 929 786.5 c 128,-1,66
 960 757 960 757 971 684 c 1,67,-1
 1000 784 l 1,0,-1
871 756 m 0,68,69
 840 756 840 756 808 720 c 0,70,71
 765 672 765 672 718 559 c 0,72,73
 631 356 631 356 631 233 c 0,74,75
 631 196 631 196 646.5 175.5 c 128,-1,76
 662 155 662 155 681 155 c 0,77,78
 697 155 697 155 727 179 c 0,79,80
 771 212 771 212 820 291 c 128,-1,81
 869 370 869 370 900.5 466 c 128,-1,82
 932 562 932 562 932 643 c 0,83,84
 932 702 932 702 909 732 c 0,85,86
 894 756 894 756 871 756 c 0,68,69
EndSplineSet
EndChar

StartChar: A
Encoding: 65 65 27
Width: 1254
Flags: W
LayerCount: 2
Fore
SplineSet
723 328 m 1,0,-1
 316 328 l 1,1,-1
 268 215 l 2,2,3
 244 159 244 159 244 123 c 0,4,5
 244 74 244 74 283 52 c 0,6,7
 306 38 306 38 396 32 c 1,8,-1
 396 0 l 1,9,-1
 14 0 l 1,10,-1
 14 32 l 1,11,12
 75 40 75 40 115 82.5 c 128,-1,13
 155 125 155 125 214 257 c 2,14,-1
 625 1173 l 1,15,-1
 641 1173 l 1,16,-1
 1056 231 l 2,17,18
 1115 96 1115 96 1153 61 c 0,19,20
 1182 36 1182 36 1235 32 c 1,21,-1
 1235 0 l 1,22,-1
 678 0 l 1,23,-1
 678 32 l 1,24,-1
 702 32 l 2,25,26
 768 32 768 32 795 50 c 0,27,28
 814 64 814 64 814 89 c 0,29,30
 814 104 814 104 809 121 c 0,31,32
 808 128 808 128 783 184 c 2,33,-1
 723 328 l 1,0,-1
693 390 m 1,34,-1
 523 787 l 1,35,-1
 346 390 l 1,36,-1
 693 390 l 1,34,-1
EndSplineSet
EndChar

StartChar: B
Encoding: 66 66 28
Width: 1159
Flags: W
LayerCount: 2
Fore
SplineSet
773 609 m 1,0,1
 936 571 936 571 1003 517 c 0,2,3
 1097 440 1097 440 1097 317 c 0,4,5
 1097 188 1097 188 993 103 c 0,6,7
 865 0 865 0 621 0 c 2,8,-1
 36 0 l 1,9,-1
 36 32 l 1,10,11
 117 32 117 32 145 46.5 c 128,-1,12
 173 61 173 61 184.5 84.5 c 128,-1,13
 196 108 196 108 196 201 c 2,14,-1
 196 948 l 2,15,16
 196 1041 196 1041 184.5 1065.5 c 128,-1,17
 173 1090 173 1090 144.5 1104 c 128,-1,18
 116 1118 116 1118 36 1118 c 1,19,-1
 36 1150 l 1,20,-1
 587 1150 l 2,21,22
 785 1150 785 1150 867.5 1114.5 c 128,-1,23
 950 1079 950 1079 997.5 1009 c 128,-1,24
 1045 939 1045 939 1045 861 c 0,25,26
 1045 778 1045 778 984.5 713 c 128,-1,27
 924 648 924 648 773 609 c 1,0,1
464 633 m 1,28,29
 584 633 584 633 641.5 660 c 128,-1,30
 699 687 699 687 729.5 736 c 128,-1,31
 760 785 760 785 760 862 c 0,32,33
 760 938 760 938 730 987 c 128,-1,34
 700 1036 700 1036 643.5 1061 c 128,-1,35
 587 1086 587 1086 464 1085 c 1,36,-1
 464 633 l 1,28,29
464 566 m 1,37,-1
 464 197 l 1,38,-1
 463 155 l 2,39,40
 463 109 463 109 486.5 86 c 128,-1,41
 510 63 510 63 555 63 c 0,42,43
 623 63 623 63 680.5 93 c 128,-1,44
 738 123 738 123 768.5 180 c 128,-1,45
 799 237 799 237 799 307 c 0,46,47
 799 388 799 388 761.5 452 c 128,-1,48
 724 516 724 516 659 541.5 c 128,-1,49
 594 567 594 567 464 566 c 1,37,-1
EndSplineSet
EndChar

StartChar: C
Encoding: 67 67 29
Width: 1254
Flags: W
LayerCount: 2
Fore
SplineSet
1160 1177 m 1,0,-1
 1160 778 l 1,1,-1
 1126 778 l 1,2,3
 1089 934 1089 934 987 1017 c 128,-1,4
 885 1100 885 1100 757 1100 c 0,5,6
 649 1100 649 1100 559 1038 c 128,-1,7
 469 976 469 976 427 876 c 0,8,9
 374 748 374 748 374 591 c 0,10,11
 374 437 374 437 413 310 c 128,-1,12
 452 183 452 183 535 118 c 128,-1,13
 618 53 618 53 750 53 c 0,14,15
 859 53 859 53 949.5 100.5 c 128,-1,16
 1040 148 1040 148 1139 265 c 1,17,-1
 1139 165 l 1,18,19
 1043 65 1043 65 938 19 c 128,-1,20
 833 -27 833 -27 693 -27 c 0,21,22
 510 -27 510 -27 367 47 c 128,-1,23
 224 121 224 121 146.5 259 c 128,-1,24
 69 397 69 397 69 553 c 0,25,26
 69 719 69 719 155 866 c 128,-1,27
 241 1013 241 1013 387 1095 c 128,-1,28
 533 1177 533 1177 697 1177 c 0,29,30
 819 1177 819 1177 954 1124 c 0,31,32
 1032 1093 1032 1093 1054 1093 c 0,33,34
 1080 1093 1080 1093 1100 1113 c 128,-1,35
 1120 1133 1120 1133 1126 1177 c 1,36,-1
 1160 1177 l 1,0,-1
EndSplineSet
EndChar

StartChar: D
Encoding: 68 68 30
Width: 1254
Flags: W
LayerCount: 2
Fore
SplineSet
23 0 m 1,0,-1
 23 32 l 1,1,-1
 61 32 l 2,2,3
 111 32 111 32 137.5 47.5 c 128,-1,4
 164 63 164 63 177 90 c 0,5,6
 184 108 184 108 184 197 c 2,7,-1
 184 953 l 2,8,9
 184 1041 184 1041 175 1063 c 128,-1,10
 166 1085 166 1085 137.5 1101.5 c 128,-1,11
 109 1118 109 1118 61 1118 c 2,12,-1
 23 1118 l 1,13,-1
 23 1150 l 1,14,-1
 537 1150 l 2,15,16
 744 1150 744 1150 869 1094 c 0,17,18
 1023 1025 1023 1025 1102 886 c 128,-1,19
 1181 747 1181 747 1181 571 c 0,20,21
 1181 450 1181 450 1142 348 c 128,-1,22
 1103 246 1103 246 1041 179 c 128,-1,23
 979 112 979 112 898 72 c 128,-1,24
 817 32 817 32 701 11 c 0,25,26
 649 0 649 0 537 0 c 2,27,-1
 23 0 l 1,0,-1
461 1084 m 1,28,-1
 461 188 l 2,29,30
 461 117 461 117 468 100.5 c 128,-1,31
 475 84 475 84 491 75 c 0,32,33
 514 63 514 63 558 63 c 0,34,35
 699 63 699 63 774 159 c 0,36,37
 876 290 876 290 876 565 c 0,38,39
 876 787 876 787 806 918 c 0,40,41
 750 1022 750 1022 664 1059 c 0,42,43
 603 1085 603 1085 461 1084 c 1,28,-1
EndSplineSet
EndChar

StartChar: E
Encoding: 69 69 31
Width: 1159
Flags: W
LayerCount: 2
Fore
SplineSet
473 1083 m 1,0,-1
 473 616 l 1,1,-1
 496 616 l 2,2,3
 605 616 605 616 654.5 684.5 c 128,-1,4
 704 753 704 753 718 887 c 1,5,-1
 749 887 l 1,6,-1
 749 285 l 1,7,-1
 718 285 l 1,8,9
 707 384 707 384 674.5 446.5 c 128,-1,10
 642 509 642 509 598.5 530.5 c 128,-1,11
 555 552 555 552 473 552 c 1,12,-1
 473 228 l 2,13,14
 473 134 473 134 481.5 112.5 c 128,-1,15
 490 91 490 91 511.5 77.5 c 128,-1,16
 533 64 533 64 583 64 c 2,17,-1
 651 64 l 2,18,19
 812 64 812 64 909.5 138.5 c 128,-1,20
 1007 213 1007 213 1049 366 c 1,21,-1
 1080 366 l 1,22,-1
 1028 0 l 1,23,-1
 35 0 l 1,24,-1
 35 32 l 1,25,-1
 73 32 l 2,26,27
 123 32 123 32 154 49 c 0,28,29
 176 61 176 61 188 90 c 0,30,31
 197 110 197 110 197 197 c 2,32,-1
 197 953 l 2,33,34
 197 1031 197 1031 193 1049 c 0,35,36
 184 1079 184 1079 161 1095 c 0,37,38
 129 1118 129 1118 73 1118 c 2,39,-1
 35 1118 l 1,40,-1
 35 1150 l 1,41,-1
 997 1150 l 1,42,-1
 997 810 l 1,43,-1
 965 810 l 1,44,45
 940 935 940 935 895.5 989 c 128,-1,46
 851 1043 851 1043 770 1068 c 0,47,48
 723 1083 723 1083 591 1083 c 2,49,-1
 473 1083 l 1,0,-1
EndSplineSet
EndChar

StartChar: F
Encoding: 70 70 32
Width: 1061
Flags: W
LayerCount: 2
Fore
SplineSet
477 1083 m 1,0,-1
 477 612 l 1,1,-1
 511 612 l 2,2,3
 587 612 587 612 635.5 634.5 c 128,-1,4
 684 657 684 657 717 711 c 128,-1,5
 750 765 750 765 761 859 c 1,6,-1
 791 859 l 1,7,-1
 791 281 l 1,8,-1
 761 281 l 1,9,10
 744 444 744 444 672.5 496.5 c 128,-1,11
 601 549 601 549 511 549 c 2,12,-1
 477 549 l 1,13,-1
 477 197 l 2,14,15
 477 108 477 108 487 86.5 c 128,-1,16
 497 65 497 65 525 48.5 c 128,-1,17
 553 32 553 32 602 32 c 2,18,-1
 640 32 l 1,19,-1
 640 0 l 1,20,-1
 39 0 l 1,21,-1
 39 32 l 1,22,-1
 77 32 l 2,23,24
 127 32 127 32 158 49 c 0,25,26
 180 61 180 61 192 90 c 0,27,28
 201 110 201 110 201 197 c 2,29,-1
 201 953 l 2,30,31
 201 1041 201 1041 191.5 1063 c 128,-1,32
 182 1085 182 1085 153.5 1101.5 c 128,-1,33
 125 1118 125 1118 77 1118 c 2,34,-1
 39 1118 l 1,35,-1
 39 1150 l 1,36,-1
 1009 1150 l 1,37,-1
 1009 820 l 1,38,-1
 974 820 l 1,39,40
 962 936 962 936 913.5 992 c 128,-1,41
 865 1048 865 1048 773 1071 c 0,42,43
 722 1083 722 1083 584 1083 c 2,44,-1
 477 1083 l 1,0,-1
EndSplineSet
EndChar

StartChar: G
Encoding: 71 71 33
Width: 1350
Flags: W
LayerCount: 2
Fore
SplineSet
1198 1177 m 1,0,-1
 1198 771 l 1,1,-1
 1167 771 l 1,2,3
 1110 937 1110 937 996.5 1023.5 c 128,-1,4
 883 1110 883 1110 748 1110 c 0,5,6
 619 1110 619 1110 533 1037.5 c 128,-1,7
 447 965 447 965 411.5 835.5 c 128,-1,8
 376 706 376 706 376 569 c 0,9,10
 376 404 376 404 415.5 279.5 c 128,-1,11
 455 155 455 155 542 96 c 128,-1,12
 629 37 629 37 748 37 c 0,13,14
 790 37 790 37 833.5 46 c 128,-1,15
 877 55 877 55 922 72 c 1,16,-1
 922 312 l 2,17,18
 922 379 922 379 913 399 c 128,-1,19
 904 419 904 419 875 435.5 c 128,-1,20
 846 452 846 452 803 452 c 2,21,-1
 774 452 l 1,22,-1
 774 482 l 1,23,-1
 1333 482 l 1,24,-1
 1333 452 l 1,25,26
 1270 447 1270 447 1244.5 434 c 128,-1,27
 1219 421 1219 421 1206 390 c 0,28,29
 1198 374 1198 374 1198 312 c 2,30,-1
 1198 72 l 1,31,32
 1088 23 1088 23 969 -2.5 c 128,-1,33
 850 -28 850 -28 722 -28 c 0,34,35
 558 -28 558 -28 449.5 16.5 c 128,-1,36
 341 61 341 61 258.5 134 c 128,-1,37
 176 207 176 207 129 298 c 0,38,39
 70 414 70 414 70 560 c 0,40,41
 70 819 70 819 252.5 998 c 128,-1,42
 435 1177 435 1177 711 1177 c 0,43,44
 797 1177 797 1177 866 1164 c 0,45,46
 903 1156 903 1156 987 1124.5 c 128,-1,47
 1071 1093 1071 1093 1085 1093 c 0,48,49
 1109 1093 1109 1093 1129.5 1110.5 c 128,-1,50
 1150 1128 1150 1128 1167 1177 c 1,51,-1
 1198 1177 l 1,0,-1
EndSplineSet
EndChar

StartChar: H
Encoding: 72 72 34
Width: 1350
Flags: W
LayerCount: 2
Fore
SplineSet
475 553 m 1,0,-1
 475 197 l 2,1,2
 475 108 475 108 484.5 86.5 c 128,-1,3
 494 65 494 65 522.5 48.5 c 128,-1,4
 551 32 551 32 600 32 c 2,5,-1
 638 32 l 1,6,-1
 638 0 l 1,7,-1
 36 0 l 1,8,-1
 36 32 l 1,9,-1
 74 32 l 2,10,11
 125 32 125 32 155 49 c 0,12,13
 177 61 177 61 189 90 c 0,14,15
 198 110 198 110 198 197 c 2,16,-1
 198 953 l 2,17,18
 198 1041 198 1041 189 1063 c 128,-1,19
 180 1085 180 1085 151.5 1101.5 c 128,-1,20
 123 1118 123 1118 74 1118 c 2,21,-1
 36 1118 l 1,22,-1
 36 1150 l 1,23,-1
 638 1150 l 1,24,-1
 638 1118 l 1,25,-1
 600 1118 l 2,26,27
 549 1118 549 1118 519 1100 c 0,28,29
 497 1089 497 1089 484 1060 c 0,30,31
 475 1040 475 1040 475 953 c 2,32,-1
 475 628 l 1,33,-1
 881 628 l 1,34,-1
 881 953 l 2,35,36
 881 1041 881 1041 872 1063 c 128,-1,37
 863 1085 863 1085 834 1101.5 c 128,-1,38
 805 1118 805 1118 757 1118 c 2,39,-1
 719 1118 l 1,40,-1
 719 1150 l 1,41,-1
 1320 1150 l 1,42,-1
 1320 1118 l 1,43,-1
 1283 1118 l 2,44,45
 1232 1118 1232 1118 1202 1100 c 0,46,47
 1180 1089 1180 1089 1167 1060 c 0,48,49
 1158 1040 1158 1040 1158 953 c 2,50,-1
 1158 197 l 2,51,52
 1158 108 1158 108 1167.5 86.5 c 128,-1,53
 1177 65 1177 65 1205.5 48.5 c 128,-1,54
 1234 32 1234 32 1283 32 c 2,55,-1
 1320 32 l 1,56,-1
 1320 0 l 1,57,-1
 719 0 l 1,58,-1
 719 32 l 1,59,-1
 757 32 l 2,60,61
 808 32 808 32 837 49 c 0,62,63
 859 61 859 61 871 90 c 0,64,65
 881 110 881 110 881 197 c 2,66,-1
 881 553 l 1,67,-1
 475 553 l 1,0,-1
EndSplineSet
EndChar

StartChar: I
Encoding: 73 73 35
Width: 676
Flags: W
LayerCount: 2
Fore
SplineSet
636 32 m 1,0,-1
 636 0 l 1,1,-1
 35 0 l 1,2,-1
 35 32 l 1,3,-1
 73 32 l 2,4,5
 123 32 123 32 154 49 c 0,6,7
 176 61 176 61 188 90 c 0,8,9
 197 110 197 110 197 197 c 2,10,-1
 197 953 l 2,11,12
 197 1041 197 1041 187.5 1063 c 128,-1,13
 178 1085 178 1085 149.5 1101.5 c 128,-1,14
 121 1118 121 1118 73 1118 c 2,15,-1
 35 1118 l 1,16,-1
 35 1150 l 1,17,-1
 636 1150 l 1,18,-1
 636 1118 l 1,19,-1
 598 1118 l 2,20,21
 548 1118 548 1118 517 1100 c 0,22,23
 495 1089 495 1089 482 1060 c 0,24,25
 473 1040 473 1040 473 953 c 2,26,-1
 473 197 l 2,27,28
 473 108 473 108 483 86.5 c 128,-1,29
 493 65 493 65 521 48.5 c 128,-1,30
 549 32 549 32 598 32 c 2,31,-1
 636 32 l 1,0,-1
EndSplineSet
EndChar

StartChar: J
Encoding: 74 74 36
Width: 868
Flags: W
LayerCount: 2
Fore
SplineSet
247 1118 m 1,0,-1
 247 1150 l 1,1,-1
 859 1150 l 1,2,-1
 859 1118 l 1,3,-1
 820 1118 l 2,4,5
 770 1118 770 1118 740 1100 c 0,6,7
 719 1089 719 1089 706 1060 c 0,8,9
 696 1040 696 1040 696 953 c 2,10,-1
 696 390 l 2,11,12
 696 225 696 225 663 149.5 c 128,-1,13
 630 74 630 74 545.5 23.5 c 128,-1,14
 461 -27 461 -27 342 -27 c 0,15,16
 197 -27 197 -27 108 49.5 c 128,-1,17
 19 126 19 126 19 218 c 0,18,19
 19 278 19 278 55 315 c 128,-1,20
 91 352 91 352 144 352 c 0,21,22
 196 352 196 352 231 319 c 128,-1,23
 266 286 266 286 266 237 c 0,24,25
 266 214 266 214 261 196 c 0,26,27
 257 188 257 188 233.5 153.5 c 128,-1,28
 210 119 210 119 210 104 c 0,29,30
 210 83 210 83 232 66 c 0,31,32
 265 42 265 42 316 42 c 0,33,34
 353 42 353 42 377 60.5 c 128,-1,35
 401 79 401 79 410.5 119 c 128,-1,36
 420 159 420 159 420 338 c 2,37,-1
 420 953 l 2,38,39
 420 1041 420 1041 410.5 1063 c 128,-1,40
 401 1085 401 1085 372 1101.5 c 128,-1,41
 343 1118 343 1118 295 1118 c 2,42,-1
 247 1118 l 1,0,-1
EndSplineSet
EndChar

StartChar: K
Encoding: 75 75 37
Width: 1350
Flags: W
LayerCount: 2
Fore
SplineSet
723 710 m 1,0,-1
 1128 204 l 2,1,2
 1214 96 1214 96 1275 58 c 0,3,4
 1321 32 1321 32 1371 32 c 1,5,-1
 1371 0 l 1,6,-1
 772 0 l 1,7,-1
 772 32 l 1,8,9
 829 36 829 36 845.5 48.5 c 128,-1,10
 862 61 862 61 862 81 c 0,11,12
 862 117 862 117 783 214 c 2,13,-1
 519 546 l 1,14,-1
 477 511 l 1,15,-1
 477 197 l 2,16,17
 477 107 477 107 487.5 85 c 128,-1,18
 498 63 498 63 526.5 47.5 c 128,-1,19
 555 32 555 32 619 32 c 1,20,-1
 619 0 l 1,21,-1
 39 0 l 1,22,-1
 39 32 l 1,23,-1
 77 32 l 2,24,25
 127 32 127 32 158 49 c 0,26,27
 180 61 180 61 192 90 c 0,28,29
 201 110 201 110 201 197 c 2,30,-1
 201 953 l 2,31,32
 201 1041 201 1041 191.5 1063 c 128,-1,33
 182 1085 182 1085 153.5 1101.5 c 128,-1,34
 125 1118 125 1118 77 1118 c 2,35,-1
 39 1118 l 1,36,-1
 39 1150 l 1,37,-1
 612 1150 l 1,38,-1
 612 1118 l 1,39,40
 553 1118 553 1118 523 1101 c 0,41,42
 500 1090 500 1090 488 1062 c 0,43,44
 477 1041 477 1041 477 953 c 2,45,-1
 477 596 l 1,46,-1
 904 940 l 2,47,48
 993 1012 993 1012 993 1056 c 0,49,50
 993 1088 993 1088 956 1107 c 0,51,52
 938 1116 938 1116 864 1118 c 1,53,-1
 864 1150 l 1,54,-1
 1312 1150 l 1,55,-1
 1312 1118 l 1,56,57
 1253 1114 1253 1114 1218.5 1096.5 c 128,-1,58
 1184 1079 1184 1079 1060 979 c 2,59,-1
 723 710 l 1,0,-1
EndSplineSet
EndChar

StartChar: L
Encoding: 76 76 38
Width: 1159
Flags: W
LayerCount: 2
Fore
SplineSet
1096 404 m 1,0,-1
 1054 0 l 1,1,-1
 32 0 l 1,2,-1
 32 32 l 1,3,-1
 70 32 l 2,4,5
 121 32 121 32 151 49 c 0,6,7
 173 61 173 61 184 90 c 0,8,9
 194 110 194 110 194 197 c 2,10,-1
 194 953 l 2,11,12
 194 1041 194 1041 185 1063 c 128,-1,13
 176 1085 176 1085 147.5 1101.5 c 128,-1,14
 119 1118 119 1118 70 1118 c 2,15,-1
 32 1118 l 1,16,-1
 32 1150 l 1,17,-1
 646 1150 l 1,18,-1
 646 1118 l 1,19,-1
 596 1118 l 2,20,21
 545 1118 545 1118 515 1100 c 0,22,23
 493 1089 493 1089 480 1060 c 0,24,25
 471 1040 471 1040 471 953 c 2,26,-1
 471 220 l 2,27,28
 471 132 471 132 481 108 c 128,-1,29
 491 84 491 84 520 72 c 0,30,31
 542 65 542 65 623 65 c 2,32,-1
 719 65 l 2,33,34
 811 65 811 65 872 97 c 128,-1,35
 933 129 933 129 977.5 198.5 c 128,-1,36
 1022 268 1022 268 1062 404 c 1,37,-1
 1096 404 l 1,0,-1
EndSplineSet
EndChar

StartChar: M
Encoding: 77 77 39
Width: 1639
Flags: W
LayerCount: 2
Fore
SplineSet
828 392 m 1,0,-1
 1139 1150 l 1,1,-1
 1608 1150 l 1,2,-1
 1608 1118 l 1,3,-1
 1571 1118 l 2,4,5
 1520 1118 1520 1118 1489 1100 c 0,6,7
 1468 1089 1468 1089 1455 1061 c 0,8,9
 1446 1041 1446 1041 1446 955 c 2,10,-1
 1446 197 l 2,11,12
 1446 108 1446 108 1455.5 86.5 c 128,-1,13
 1465 65 1465 65 1493.5 48.5 c 128,-1,14
 1522 32 1522 32 1571 32 c 2,15,-1
 1608 32 l 1,16,-1
 1608 0 l 1,17,-1
 1007 0 l 1,18,-1
 1007 32 l 1,19,-1
 1045 32 l 2,20,21
 1096 32 1096 32 1126 49 c 0,22,23
 1147 61 1147 61 1160 90 c 0,24,25
 1169 110 1169 110 1169 197 c 2,26,-1
 1169 1049 l 1,27,-1
 728 0 l 1,28,-1
 708 0 l 1,29,-1
 261 1041 l 1,30,-1
 261 231 l 2,31,32
 261 146 261 146 265 127 c 0,33,34
 276 85 276 85 313 58.5 c 128,-1,35
 350 32 350 32 428 32 c 1,36,-1
 428 0 l 1,37,-1
 35 0 l 1,38,-1
 35 32 l 1,39,-1
 47 32 l 2,40,41
 85 31 85 31 118 44 c 128,-1,42
 151 57 151 57 167.5 79 c 128,-1,43
 184 101 184 101 194 141 c 0,44,45
 196 151 196 151 196 227 c 2,46,-1
 196 955 l 2,47,48
 196 1042 196 1042 186.5 1063.5 c 128,-1,49
 177 1085 177 1085 148.5 1101.5 c 128,-1,50
 120 1118 120 1118 71 1118 c 2,51,-1
 35 1118 l 1,52,-1
 35 1150 l 1,53,-1
 505 1150 l 1,54,-1
 828 392 l 1,0,-1
EndSplineSet
EndChar

StartChar: N
Encoding: 78 78 40
Width: 1254
Flags: W
LayerCount: 2
Fore
SplineSet
432 1150 m 1,0,-1
 1000 437 l 1,1,-1
 1000 931 l 2,2,3
 1000 1035 1000 1035 970 1071 c 0,4,5
 930 1120 930 1120 833 1118 c 1,6,-1
 833 1150 l 1,7,-1
 1214 1150 l 1,8,-1
 1214 1118 l 1,9,10
 1141 1109 1141 1109 1116 1094 c 128,-1,11
 1091 1079 1091 1079 1076.5 1045.5 c 128,-1,12
 1062 1012 1062 1012 1062 931 c 2,13,-1
 1062 -27 l 1,14,-1
 1033 -27 l 1,15,-1
 257 931 l 1,16,-1
 257 200 l 2,17,18
 257 101 257 101 302 66.5 c 128,-1,19
 347 32 347 32 405 32 c 2,20,-1
 432 32 l 1,21,-1
 432 0 l 1,22,-1
 24 0 l 1,23,-1
 24 32 l 1,24,25
 120 32 120 32 157 70 c 128,-1,26
 194 108 194 108 194 200 c 2,27,-1
 194 1011 l 1,28,-1
 170 1042 l 2,29,30
 134 1088 134 1088 105.5 1102.5 c 128,-1,31
 77 1117 77 1117 24 1118 c 1,32,-1
 24 1150 l 1,33,-1
 432 1150 l 1,0,-1
EndSplineSet
EndChar

StartChar: O
Encoding: 79 79 41
Width: 1350
Flags: W
LayerCount: 2
Fore
SplineSet
671 1166 m 1,0,1
 946 1177 946 1177 1117.5 1006 c 128,-1,2
 1289 835 1289 835 1289 579 c 0,3,4
 1289 360 1289 360 1161 194 c 0,5,6
 991 -27 991 -27 682 -27 c 0,7,8
 371 -27 371 -27 201 184 c 0,9,10
 68 350 68 350 68 579 c 0,11,12
 68 834 68 834 242.5 1005.5 c 128,-1,13
 417 1177 417 1177 671 1166 c 1,0,1
681 1112 m 0,14,15
 524 1112 524 1112 441 951 c 0,16,17
 374 818 374 818 374 570 c 0,18,19
 374 277 374 277 477 136 c 0,20,21
 549 37 549 37 679 37 c 0,22,23
 766 37 766 37 825 79 c 0,24,25
 900 134 900 134 941.5 253 c 128,-1,26
 983 372 983 372 983 564 c 0,27,28
 983 792 983 792 940.5 905.5 c 128,-1,29
 898 1019 898 1019 832 1065.5 c 128,-1,30
 766 1112 766 1112 681 1112 c 0,14,15
EndSplineSet
EndChar

StartChar: P
Encoding: 80 80 42
Width: 1061
Flags: W
LayerCount: 2
Fore
SplineSet
469 520 m 1,0,-1
 469 201 l 2,1,2
 469 108 469 108 480.5 84 c 128,-1,3
 492 60 492 60 521 46 c 128,-1,4
 550 32 550 32 629 32 c 1,5,-1
 629 0 l 1,6,-1
 45 0 l 1,7,-1
 45 32 l 1,8,9
 124 32 124 32 152 46.5 c 128,-1,10
 180 61 180 61 192 84.5 c 128,-1,11
 204 108 204 108 204 201 c 2,12,-1
 204 948 l 2,13,14
 204 1041 204 1041 192 1065.5 c 128,-1,15
 180 1090 180 1090 151.5 1104 c 128,-1,16
 123 1118 123 1118 45 1118 c 1,17,-1
 45 1150 l 1,18,-1
 545 1150 l 2,19,20
 793 1150 793 1150 900.5 1061.5 c 128,-1,21
 1008 973 1008 973 1008 842 c 0,22,23
 1008 729 1008 729 938.5 649.5 c 128,-1,24
 869 570 869 570 747 541 c 0,25,26
 665 520 665 520 469 520 c 1,0,-1
469 1083 m 1,27,-1
 469 587 l 1,28,29
 497 585 497 585 511 585 c 0,30,31
 615 585 615 585 671 646.5 c 128,-1,32
 727 708 727 708 727 837 c 0,33,34
 727 965 727 965 671 1024 c 128,-1,35
 615 1083 615 1083 503 1083 c 2,36,-1
 469 1083 l 1,27,-1
EndSplineSet
EndChar

StartChar: Q
Encoding: 81 81 43
Width: 1350
Flags: W
LayerCount: 2
Fore
SplineSet
830 -11 m 1,0,1
 869 -123 869 -123 951 -179.5 c 128,-1,2
 1033 -236 1033 -236 1158 -236 c 0,3,4
 1191 -236 1191 -236 1230 -230 c 1,5,-1
 1230 -282 l 1,6,7
 1101 -314 1101 -314 1001 -314 c 0,8,9
 843 -314 843 -314 719 -236.5 c 128,-1,10
 595 -159 595 -159 532 -11 c 1,11,12
 323 34 323 34 195.5 194 c 128,-1,13
 68 354 68 354 68 577 c 0,14,15
 68 834 68 834 240.5 1005.5 c 128,-1,16
 413 1177 413 1177 681 1177 c 0,17,18
 946 1177 946 1177 1118 1005 c 128,-1,19
 1290 833 1290 833 1290 577 c 0,20,21
 1290 353 1290 353 1155 187.5 c 128,-1,22
 1020 22 1020 22 830 -11 c 1,0,1
679 1112 m 0,23,24
 527 1112 527 1112 443 953 c 0,25,26
 374 820 374 820 374 575 c 0,27,28
 374 279 374 279 478 137 c 0,29,30
 551 37 551 37 679 37 c 0,31,32
 808 37 808 37 880 135 c 0,33,34
 985 275 985 275 985 555 c 0,35,36
 985 832 985 832 919 956 c 0,37,38
 837 1112 837 1112 679 1112 c 0,23,24
EndSplineSet
EndChar

StartChar: R
Encoding: 82 82 44
Width: 1254
Flags: W
LayerCount: 2
Fore
SplineSet
461 524 m 1,0,-1
 461 201 l 2,1,2
 461 108 461 108 472.5 84 c 128,-1,3
 484 60 484 60 513 46 c 128,-1,4
 542 32 542 32 621 32 c 1,5,-1
 621 0 l 1,6,-1
 32 0 l 1,7,-1
 32 32 l 1,8,9
 112 32 112 32 140.5 46.5 c 128,-1,10
 169 61 169 61 180.5 84.5 c 128,-1,11
 192 108 192 108 192 201 c 2,12,-1
 192 948 l 2,13,14
 192 1041 192 1041 180.5 1065.5 c 128,-1,15
 169 1090 169 1090 140 1104 c 128,-1,16
 111 1118 111 1118 32 1118 c 1,17,-1
 32 1150 l 1,18,-1
 566 1150 l 2,19,20
 775 1150 775 1150 872 1121 c 128,-1,21
 969 1092 969 1092 1030 1014.5 c 128,-1,22
 1091 937 1091 937 1091 833 c 0,23,24
 1091 706 1091 706 999 622 c 0,25,26
 940 570 940 570 835 544 c 1,27,-1
 1112 155 l 2,28,29
 1166 78 1166 78 1189 60 c 0,30,31
 1223 34 1223 34 1270 32 c 1,32,-1
 1270 0 l 1,33,-1
 907 0 l 1,34,-1
 536 524 l 1,35,-1
 461 524 l 1,0,-1
461 1088 m 1,36,-1
 461 584 l 1,37,-1
 510 584 l 2,38,39
 628 584 628 584 686 606 c 128,-1,40
 744 628 744 628 778 684 c 128,-1,41
 812 740 812 740 812 831 c 0,42,43
 812 962 812 962 750.5 1025 c 128,-1,44
 689 1088 689 1088 552 1088 c 2,45,-1
 461 1088 l 1,36,-1
EndSplineSet
EndChar

StartChar: S
Encoding: 83 83 45
Width: 966
Flags: W
LayerCount: 2
Fore
SplineSet
816 1177 m 1,0,-1
 825 793 l 1,1,-1
 791 793 l 1,2,3
 765 937 765 937 669 1025 c 128,-1,4
 573 1113 573 1113 461 1113 c 0,5,6
 375 1113 375 1113 324 1066.5 c 128,-1,7
 273 1020 273 1020 273 960 c 0,8,9
 273 922 273 922 291 893 c 0,10,11
 316 852 316 852 371 813 c 0,12,13
 410 785 410 785 554 714 c 0,14,15
 757 615 757 615 827 527 c 256,16,17
 897 439 897 439 897 324 c 0,18,19
 897 180 897 180 784.5 76 c 128,-1,20
 672 -28 672 -28 498 -28 c 0,21,22
 444 -28 444 -28 396 -16.5 c 128,-1,23
 348 -5 348 -5 275 25 c 0,24,25
 234 42 234 42 208 42 c 0,26,27
 185 42 185 42 161 25 c 128,-1,28
 137 8 137 8 121 -27 c 1,29,-1
 90 -27 l 1,30,-1
 90 408 l 1,31,-1
 121 408 l 1,32,33
 159 225 159 225 265 128.5 c 128,-1,34
 371 32 371 32 494 32 c 0,35,36
 589 32 589 32 645.5 84 c 128,-1,37
 702 136 702 136 702 205 c 0,38,39
 702 245 702 245 680.5 283 c 128,-1,40
 659 321 659 321 614.5 355.5 c 128,-1,41
 570 390 570 390 459 445 c 0,42,43
 302 523 302 523 233 577 c 128,-1,44
 164 631 164 631 127.5 698 c 128,-1,45
 91 765 91 765 91 846 c 0,46,47
 91 983 91 983 192 1080 c 128,-1,48
 293 1177 293 1177 446 1177 c 0,49,50
 502 1177 502 1177 554 1163 c 0,51,52
 595 1152 595 1152 652 1124.5 c 128,-1,53
 709 1097 709 1097 731 1097 c 0,54,55
 754 1097 754 1097 766.5 1111 c 128,-1,56
 779 1125 779 1125 791 1177 c 1,57,-1
 816 1177 l 1,0,-1
EndSplineSet
EndChar

StartChar: T
Encoding: 84 84 46
Width: 1159
Flags: W
LayerCount: 2
Fore
SplineSet
1096 1150 m 1,0,-1
 1096 838 l 1,1,-1
 1065 838 l 1,2,3
 1038 947 1038 947 1005 994 c 128,-1,4
 972 1041 972 1041 914 1068 c 0,5,6
 882 1083 882 1083 801 1083 c 2,7,-1
 715 1083 l 1,8,-1
 715 197 l 2,9,10
 715 108 715 108 725.5 86.5 c 128,-1,11
 736 65 736 65 764 48.5 c 128,-1,12
 792 32 792 32 842 32 c 2,13,-1
 880 32 l 1,14,-1
 880 0 l 1,15,-1
 278 0 l 1,16,-1
 278 32 l 1,17,-1
 316 32 l 2,18,19
 366 32 366 32 396 49 c 0,20,21
 418 61 418 61 430 90 c 0,22,23
 440 110 440 110 440 197 c 2,24,-1
 440 1083 l 1,25,-1
 357 1083 l 2,26,27
 241 1083 241 1083 189 1035 c 0,28,29
 114 966 114 966 95 838 c 1,30,-1
 63 838 l 1,31,-1
 63 1150 l 1,32,-1
 1096 1150 l 1,0,-1
EndSplineSet
EndChar

StartChar: U
Encoding: 85 85 47
Width: 1254
Flags: W
LayerCount: 2
Fore
SplineSet
40 1150 m 1,0,-1
 634 1150 l 1,1,-1
 634 1118 l 1,2,-1
 604 1118 l 2,3,4
 537 1118 537 1118 512.5 1104.5 c 128,-1,5
 488 1091 488 1091 477 1066 c 128,-1,6
 466 1041 466 1041 466 943 c 2,7,-1
 466 379 l 2,8,9
 466 226 466 226 489.5 175.5 c 128,-1,10
 513 125 513 125 566.5 92 c 128,-1,11
 620 59 620 59 702 59 c 0,12,13
 795 59 795 59 860.5 101 c 128,-1,14
 926 143 926 143 958.5 216.5 c 128,-1,15
 991 290 991 290 991 474 c 2,16,-1
 991 943 l 2,17,18
 991 1020 991 1020 975 1053 c 128,-1,19
 959 1086 959 1086 935 1099 c 0,20,21
 897 1118 897 1118 827 1118 c 1,22,-1
 827 1150 l 1,23,-1
 1224 1150 l 1,24,-1
 1224 1118 l 1,25,-1
 1201 1118 l 2,26,27
 1152 1118 1152 1118 1120 1098.5 c 128,-1,28
 1088 1079 1088 1079 1074 1041 c 0,29,30
 1062 1013 1062 1013 1062 943 c 2,31,-1
 1062 507 l 2,32,33
 1062 303 1062 303 1035.5 213.5 c 128,-1,34
 1009 124 1009 124 905.5 48 c 128,-1,35
 802 -28 802 -28 623 -28 c 0,36,37
 474 -28 474 -28 392 13 c 0,38,39
 282 67 282 67 236 151.5 c 128,-1,40
 190 236 190 236 190 379 c 2,41,-1
 190 943 l 2,42,43
 190 1042 190 1042 178.5 1066.5 c 128,-1,44
 167 1091 167 1091 140 1105 c 128,-1,45
 113 1119 113 1119 40 1118 c 1,46,-1
 40 1150 l 1,0,-1
EndSplineSet
EndChar

StartChar: V
Encoding: 86 86 48
Width: 1254
Flags: W
LayerCount: 2
Fore
SplineSet
1236 1150 m 1,0,-1
 1236 1118 l 1,1,2
 1173 1109 1173 1109 1125 1052 c 0,3,4
 1089 1009 1089 1009 1019 852 c 2,5,-1
 622 -27 l 1,6,-1
 595 -27 l 1,7,-1
 200 888 l 2,8,9
 129 1054 129 1054 105 1082.5 c 128,-1,10
 81 1111 81 1111 14 1118 c 1,11,-1
 14 1150 l 1,12,-1
 565 1150 l 1,13,-1
 565 1118 l 1,14,-1
 546 1118 l 2,15,16
 472 1118 472 1118 444 1100 c 0,17,18
 425 1088 425 1088 425 1062 c 0,19,20
 425 1047 425 1047 432 1026.5 c 128,-1,21
 439 1006 439 1006 477 915 c 2,22,-1
 723 342 l 1,23,-1
 950 852 l 2,24,25
 990 944 990 944 999.5 975.5 c 128,-1,26
 1009 1007 1009 1007 1009 1029 c 0,27,28
 1009 1055 1009 1055 995.5 1074.5 c 128,-1,29
 982 1094 982 1094 956 1105 c 0,30,31
 919 1118 919 1118 859 1118 c 1,32,-1
 859 1150 l 1,33,-1
 1236 1150 l 1,0,-1
EndSplineSet
EndChar

StartChar: W
Encoding: 87 87 49
Width: 1736
Flags: W
LayerCount: 2
Fore
SplineSet
1721 1150 m 1,0,-1
 1721 1118 l 1,1,2
 1690 1116 1690 1116 1667.5 1100.5 c 128,-1,3
 1645 1085 1645 1085 1628 1054 c 0,4,5
 1623 1044 1623 1044 1575 922 c 2,6,-1
 1215 -27 l 1,7,-1
 1181 -27 l 1,8,-1
 897 714 l 1,9,-1
 583 -27 l 1,10,-1
 551 -27 l 1,11,-1
 173 913 l 2,12,13
 116 1054 116 1054 93 1083.5 c 128,-1,14
 70 1113 70 1113 15 1118 c 1,15,-1
 15 1150 l 1,16,-1
 514 1150 l 1,17,-1
 514 1118 l 1,18,19
 454 1117 454 1117 433.5 1100 c 128,-1,20
 413 1083 413 1083 413 1059 c 0,21,22
 413 1027 413 1027 456 922 c 2,23,-1
 681 365 l 1,24,-1
 862 800 l 1,25,-1
 814 922 l 2,26,27
 775 1023 775 1023 753.5 1056.5 c 128,-1,28
 732 1090 732 1090 704.5 1104 c 128,-1,29
 677 1118 677 1118 624 1118 c 1,30,-1
 624 1150 l 1,31,-1
 1181 1150 l 1,32,-1
 1181 1118 l 1,33,34
 1123 1117 1123 1117 1097 1109 c 0,35,36
 1079 1103 1079 1103 1069 1089 c 128,-1,37
 1059 1075 1059 1075 1059 1058 c 0,38,39
 1059 1038 1059 1038 1097 938 c 2,40,-1
 1307 393 l 1,41,-1
 1495 886 l 2,42,43
 1524 962 1524 962 1530.5 990.5 c 128,-1,44
 1537 1019 1537 1019 1537 1042 c 0,45,46
 1537 1077 1537 1077 1513.5 1097 c 128,-1,47
 1490 1117 1490 1117 1423 1118 c 1,48,-1
 1423 1150 l 1,49,-1
 1721 1150 l 1,0,-1
EndSplineSet
EndChar

StartChar: X
Encoding: 88 88 50
Width: 1254
Flags: W
LayerCount: 2
Fore
SplineSet
734 674 m 1,0,-1
 1050 204 l 2,1,2
 1130 87 1130 87 1163.5 61.5 c 128,-1,3
 1197 36 1197 36 1242 32 c 1,4,-1
 1242 0 l 1,5,-1
 682 0 l 1,6,-1
 682 32 l 1,7,8
 748 36 748 36 768 51.5 c 128,-1,9
 788 67 788 67 788 89 c 0,10,11
 788 104 788 104 782 117 c 0,12,13
 770 142 770 142 723 211 c 2,14,-1
 554 460 l 1,15,-1
 379 245 l 2,16,17
 300 147 300 147 300 112 c 0,18,19
 300 88 300 88 320.5 67 c 128,-1,20
 341 46 341 46 381 36 c 0,21,22
 399 32 399 32 454 32 c 1,23,-1
 454 0 l 1,24,-1
 12 0 l 1,25,-1
 12 32 l 1,26,27
 87 42 87 42 130 72 c 0,28,29
 188 111 188 111 289 235 c 2,30,-1
 517 513 l 1,31,-1
 225 943 l 2,32,33
 153 1049 153 1049 142 1061 c 0,34,35
 120 1089 120 1089 97.5 1101 c 128,-1,36
 75 1113 75 1113 36 1118 c 1,37,-1
 36 1150 l 1,38,-1
 607 1150 l 1,39,-1
 607 1118 l 1,40,-1
 579 1118 l 2,41,42
 529 1118 529 1118 509.5 1103 c 128,-1,43
 490 1088 490 1088 490 1063 c 0,44,45
 490 1045 490 1045 496 1031 c 2,46,-1
 554 943 l 1,47,-1
 697 726 l 1,48,-1
 818 874 l 2,49,50
 912 989 912 989 912 1035 c 0,51,52
 912 1058 912 1058 898.5 1077 c 128,-1,53
 885 1096 885 1096 860.5 1107 c 128,-1,54
 836 1118 836 1118 784 1118 c 1,55,-1
 784 1150 l 1,56,-1
 1207 1150 l 1,57,-1
 1207 1118 l 1,58,59
 1158 1117 1158 1117 1127 1106 c 128,-1,60
 1096 1095 1096 1095 1062 1063 c 0,61,62
 1040 1043 1040 1043 952 937 c 2,63,-1
 734 674 l 1,0,-1
EndSplineSet
EndChar

StartChar: Y
Encoding: 89 89 51
Width: 1254
Flags: W
LayerCount: 2
Fore
SplineSet
1235 1150 m 1,0,-1
 1235 1118 l 1,1,2
 1178 1111 1178 1111 1147 1085 c 0,3,4
 1105 1049 1105 1049 1013 891 c 2,5,-1
 764 475 l 1,6,-1
 764 197 l 2,7,8
 764 108 764 108 773 86.5 c 128,-1,9
 782 65 782 65 809.5 48.5 c 128,-1,10
 837 32 837 32 884 32 c 2,11,-1
 948 32 l 1,12,-1
 948 0 l 1,13,-1
 303 0 l 1,14,-1
 303 32 l 1,15,-1
 363 32 l 2,16,17
 413 32 413 32 443 49 c 0,18,19
 465 61 465 61 478 90 c 0,20,21
 488 110 488 110 488 197 c 2,22,-1
 488 427 l 1,23,-1
 217 920 l 2,24,25
 137 1066 137 1066 103.5 1091.5 c 128,-1,26
 70 1117 70 1117 15 1118 c 1,27,-1
 15 1150 l 1,28,-1
 566 1150 l 1,29,-1
 566 1118 l 1,30,-1
 542 1118 l 2,31,32
 492 1118 492 1118 472 1104 c 128,-1,33
 452 1090 452 1090 452 1074 c 0,34,35
 452 1043 452 1043 519 920 c 2,36,-1
 727 540 l 1,37,-1
 935 886 l 2,38,39
 1011 1013 1011 1013 1011 1055 c 0,40,41
 1011 1078 1011 1078 990 1093 c 0,42,43
 960 1114 960 1114 884 1118 c 1,44,-1
 884 1150 l 1,45,-1
 1235 1150 l 1,0,-1
EndSplineSet
EndChar

StartChar: Z
Encoding: 90 90 52
Width: 1159
Flags: W
LayerCount: 2
Fore
SplineSet
1060 1150 m 1,0,-1
 384 65 l 1,1,-1
 603 65 l 2,2,3
 758 65 758 65 820 84 c 0,4,5
 921 114 921 114 993.5 196 c 128,-1,6
 1066 278 1066 278 1095 416 c 1,7,-1
 1128 416 l 1,8,-1
 1081 0 l 1,9,-1
 28 0 l 1,10,-1
 705 1088 l 1,11,-1
 534 1088 l 2,12,13
 435 1088 435 1088 404 1081 c 0,14,15
 344 1071 344 1071 292 1038 c 128,-1,16
 240 1005 240 1005 206 951 c 128,-1,17
 172 897 172 897 152 813 c 1,18,-1
 121 813 l 1,19,-1
 152 1150 l 1,20,-1
 1060 1150 l 1,0,-1
EndSplineSet
EndChar

StartChar: bracketleft
Encoding: 91 91 53
Width: 579
Flags: W
LayerCount: 2
Fore
SplineSet
181 -317 m 1,0,-1
 181 1150 l 1,1,-1
 523 1150 l 1,2,-1
 523 1114 l 1,3,-1
 484 1114 l 2,4,5
 428 1114 428 1114 409 1103 c 128,-1,6
 390 1092 390 1092 380.5 1069 c 128,-1,7
 371 1046 371 1046 371 960 c 2,8,-1
 371 -134 l 2,9,10
 371 -215 371 -215 374 -227 c 0,11,12
 382 -258 382 -258 402.5 -272 c 128,-1,13
 423 -286 423 -286 484 -286 c 2,14,-1
 523 -286 l 1,15,-1
 523 -317 l 1,16,-1
 181 -317 l 1,0,-1
EndSplineSet
EndChar

StartChar: backslash
Encoding: 92 92 54
Width: 482
Flags: W
LayerCount: 2
Fore
SplineSet
2 1177 m 1,0,-1
 108 1177 l 1,1,-1
 488 -27 l 1,2,-1
 378 -27 l 1,3,-1
 2 1177 l 1,0,-1
EndSplineSet
EndChar

StartChar: bracketright
Encoding: 93 93 55
Width: 579
Flags: W
LayerCount: 2
Fore
SplineSet
397 1150 m 1,0,-1
 397 -317 l 1,1,-1
 57 -317 l 1,2,-1
 57 -285 l 1,3,-1
 95 -285 l 2,4,5
 151 -285 151 -285 170 -274 c 128,-1,6
 189 -263 189 -263 199 -240 c 128,-1,7
 209 -217 209 -217 209 -133 c 2,8,-1
 209 964 l 2,9,10
 209 1045 209 1045 206 1057 c 0,11,12
 197 1086 197 1086 176.5 1101 c 128,-1,13
 156 1116 156 1116 95 1116 c 2,14,-1
 57 1116 l 1,15,-1
 57 1150 l 1,16,-1
 397 1150 l 1,0,-1
EndSplineSet
EndChar

StartChar: asciicircum
Encoding: 94 94 56
Width: 1009
Flags: W
LayerCount: 2
Fore
SplineSet
125 565 m 1,0,-1
 473 1173 l 1,1,-1
 543 1173 l 1,2,-1
 885 565 l 1,3,-1
 750 565 l 1,4,-1
 500 999 l 1,5,-1
 254 565 l 1,6,-1
 125 565 l 1,0,-1
EndSplineSet
EndChar

StartChar: underscore
Encoding: 95 95 57
Width: 868
Flags: W
LayerCount: 2
Fore
SplineSet
-16 -264 m 1,0,-1
 884 -264 l 1,1,-1
 884 -375 l 1,2,-1
 -16 -375 l 1,3,-1
 -16 -264 l 1,0,-1
EndSplineSet
EndChar

StartChar: grave
Encoding: 96 96 58
Width: 225
Flags: W
LayerCount: 2
Fore
SplineSet
127 1062 m 1,0,1
 164 977 164 977 187 902 c 1,2,3
 194 847 194 847 182 853 c 1,4,5
 159 887 159 887 108.5 982.5 c 128,-1,6
 58 1078 58 1078 49 1112 c 1,7,8
 46 1151 46 1151 127 1062 c 1,0,1
EndSplineSet
EndChar

StartChar: a
Encoding: 97 97 59
Width: 868
Flags: W
LayerCount: 2
Fore
SplineSet
496 117 m 1,0,1
 351 -11 351 -11 235 -11 c 0,2,3
 167 -11 167 -11 122.5 33.5 c 128,-1,4
 78 78 78 78 78 145 c 0,5,6
 78 235 78 235 156 308 c 128,-1,7
 234 381 234 381 496 501 c 1,8,-1
 496 581 l 2,9,10
 496 671 496 671 486.5 694.5 c 128,-1,11
 477 718 477 718 449.5 735.5 c 128,-1,12
 422 753 422 753 388 753 c 0,13,14
 333 753 333 753 298 727 c 0,15,16
 276 712 276 712 276 692 c 0,17,18
 276 674 276 674 299 648 c 0,19,20
 332 612 332 612 332 578 c 0,21,22
 332 536 332 536 300.5 506.5 c 128,-1,23
 269 477 269 477 219 477 c 0,24,25
 166 477 166 477 130 509.5 c 128,-1,26
 94 542 94 542 94 585 c 0,27,28
 94 647 94 647 142.5 702 c 128,-1,29
 191 757 191 757 277.5 786.5 c 128,-1,30
 364 816 364 816 457 816 c 0,31,32
 570 816 570 816 636 768.5 c 128,-1,33
 702 721 702 721 721 665 c 0,34,35
 732 630 732 630 732 501 c 2,36,-1
 732 193 l 2,37,38
 732 139 732 139 736.5 125 c 128,-1,39
 741 111 741 111 749.5 104.5 c 128,-1,40
 758 98 758 98 770 98 c 0,41,42
 791 98 791 98 814 129 c 1,43,-1
 840 108 l 1,44,45
 797 46 797 46 751.5 17.5 c 128,-1,46
 706 -11 706 -11 649 -11 c 0,47,48
 581 -11 581 -11 543 21 c 128,-1,49
 505 53 505 53 496 117 c 1,0,1
496 179 m 1,50,-1
 496 444 l 1,51,52
 393 384 393 384 343 316 c 0,53,54
 311 269 311 269 311 223 c 0,55,56
 311 184 311 184 338 155 c 0,57,58
 359 131 359 131 397 131 c 0,59,60
 440 131 440 131 496 179 c 1,50,-1
EndSplineSet
EndChar

StartChar: b
Encoding: 98 98 60
Width: 966
Flags: W
LayerCount: 2
Fore
SplineSet
366 1150 m 1,0,-1
 366 713 l 1,1,2
 465 816 465 816 584 816 c 0,3,4
 666 816 666 816 738 768.5 c 128,-1,5
 810 721 810 721 850.5 633 c 128,-1,6
 891 545 891 545 891 429 c 0,7,8
 891 299 891 299 839.5 193 c 128,-1,9
 788 87 788 87 701.5 32 c 128,-1,10
 615 -23 615 -23 503 -23 c 0,11,12
 439 -23 439 -23 389 -3 c 128,-1,13
 339 17 339 17 290 63 c 1,14,-1
 159 -23 l 1,15,-1
 130 -23 l 1,16,-1
 130 986 l 2,17,18
 130 1054 130 1054 125 1071 c 0,19,20
 117 1094 117 1094 98 1105.5 c 128,-1,21
 79 1117 79 1117 36 1118 c 1,22,-1
 36 1150 l 1,23,-1
 366 1150 l 1,0,-1
366 638 m 1,24,-1
 366 285 l 2,25,26
 366 177 366 177 371 147 c 0,27,28
 379 98 379 98 411 67 c 128,-1,29
 443 36 443 36 494 36 c 0,30,31
 536 36 536 36 567.5 60.5 c 128,-1,32
 599 85 599 85 619.5 158 c 128,-1,33
 640 231 640 231 640 421 c 0,34,35
 640 603 640 603 595 671 c 0,36,37
 562 720 562 720 506 720 c 0,38,39
 432 720 432 720 366 638 c 1,24,-1
EndSplineSet
EndChar

StartChar: c
Encoding: 99 99 61
Width: 771
Flags: W
LayerCount: 2
Fore
SplineSet
706 205 m 1,0,-1
 731 184 l 1,1,2
 676 78 676 78 592.5 27.5 c 128,-1,3
 509 -23 509 -23 414 -23 c 0,4,5
 257 -23 257 -23 161.5 96 c 128,-1,6
 66 215 66 215 66 384 c 0,7,8
 66 545 66 545 153 668 c 0,9,10
 257 816 257 816 440 816 c 0,11,12
 563 816 563 816 635.5 754.5 c 128,-1,13
 708 693 708 693 708 617 c 0,14,15
 708 568 708 568 679 539.5 c 128,-1,16
 650 511 650 511 602 511 c 0,17,18
 552 511 552 511 519.5 544 c 128,-1,19
 487 577 487 577 479 661 c 0,20,21
 474 714 474 714 455 736 c 0,22,23
 435 757 435 757 409 757 c 0,24,25
 368 757 368 757 339 714 c 0,26,27
 295 649 295 649 295 514 c 0,28,29
 295 402 295 402 331 299.5 c 128,-1,30
 367 197 367 197 428 147 c 0,31,32
 475 111 475 111 538 111 c 0,33,34
 580 111 580 111 617.5 131 c 128,-1,35
 655 151 655 151 706 205 c 1,0,-1
EndSplineSet
EndChar

StartChar: d
Encoding: 100 100 62
Width: 966
Flags: W
LayerCount: 2
Fore
SplineSet
829 1150 m 1,0,-1
 829 237 l 2,1,2
 829 145 829 145 834 128 c 0,3,4
 842 100 842 100 861 86.5 c 128,-1,5
 880 73 880 73 926 70 c 1,6,-1
 926 41 l 1,7,-1
 591 -23 l 1,8,-1
 591 102 l 1,9,10
 532 29 532 29 485 3 c 128,-1,11
 438 -23 438 -23 378 -23 c 0,12,13
 227 -23 227 -23 138 112 c 0,14,15
 67 223 67 223 67 383 c 0,16,17
 67 511 67 511 111 612 c 128,-1,18
 155 713 155 713 231.5 764.5 c 128,-1,19
 308 816 308 816 396 816 c 0,20,21
 454 816 454 816 498 794.5 c 128,-1,22
 542 773 542 773 591 718 c 1,23,-1
 591 956 l 2,24,25
 591 1047 591 1047 584 1066 c 0,26,27
 575 1091 575 1091 554 1102.5 c 128,-1,28
 533 1114 533 1114 477 1114 c 1,29,-1
 477 1150 l 1,30,-1
 829 1150 l 1,0,-1
591 613 m 1,31,32
 529 732 529 732 439 732 c 0,33,34
 407 732 407 732 387 715 c 0,35,36
 355 689 355 689 335.5 623.5 c 128,-1,37
 316 558 316 558 316 421 c 0,38,39
 316 270 316 270 337.5 198 c 128,-1,40
 359 126 359 126 397 94 c 0,41,42
 418 78 418 78 452 78 c 0,43,44
 526 78 526 78 591 195 c 1,45,-1
 591 613 l 1,31,32
EndSplineSet
EndChar

StartChar: e
Encoding: 101 101 63
Width: 771
Flags: W
LayerCount: 2
Fore
SplineSet
730 425 m 1,0,-1
 295 425 l 1,1,2
 303 267 303 267 379 176 c 0,3,4
 438 105 438 105 519 105 c 0,5,6
 570 105 570 105 612 133.5 c 128,-1,7
 654 162 654 162 702 235 c 1,8,-1
 730 217 l 1,9,10
 666 86 666 86 588 31.5 c 128,-1,11
 510 -23 510 -23 407 -23 c 0,12,13
 231 -23 231 -23 140 112 c 0,14,15
 67 222 67 222 67 384 c 0,16,17
 67 582 67 582 174.5 699 c 128,-1,18
 282 816 282 816 426 816 c 0,19,20
 546 816 546 816 634.5 717.5 c 128,-1,21
 723 619 723 619 730 425 c 1,0,-1
522 481 m 1,22,23
 522 618 522 618 507 669 c 128,-1,24
 492 720 492 720 460 746 c 0,25,26
 443 761 443 761 413 761 c 0,27,28
 369 761 369 761 341 719 c 0,29,30
 290 642 290 642 290 511 c 2,31,-1
 290 481 l 1,32,-1
 522 481 l 1,22,23
EndSplineSet
EndChar

StartChar: f
Encoding: 102 102 64
Width: 579
Flags: W
LayerCount: 2
Fore
SplineSet
406 710 m 1,0,-1
 406 159 l 2,1,2
 406 79 406 79 423 59 c 0,3,4
 450 28 450 28 524 31 c 1,5,-1
 524 0 l 1,6,-1
 56 0 l 1,7,-1
 56 31 l 1,8,9
 109 32 109 32 132 43 c 128,-1,10
 155 54 155 54 163.5 74.5 c 128,-1,11
 172 95 172 95 172 159 c 2,12,-1
 172 710 l 1,13,-1
 56 710 l 1,14,-1
 56 793 l 1,15,-1
 172 793 l 1,16,-1
 172 851 l 1,17,-1
 171 891 l 2,18,19
 171 1013 171 1013 260.5 1095 c 128,-1,20
 350 1177 350 1177 502 1177 c 0,21,22
 606 1177 606 1177 656.5 1137.5 c 128,-1,23
 707 1098 707 1098 707 1050 c 0,24,25
 707 1012 707 1012 675.5 984 c 128,-1,26
 644 956 644 956 593 956 c 0,27,28
 549 956 549 956 523 979.5 c 128,-1,29
 497 1003 497 1003 497 1030 c 0,30,31
 497 1038 497 1038 502 1062 c 0,32,33
 506 1076 506 1076 506 1089 c 0,34,35
 506 1107 506 1107 495 1115 c 0,36,37
 481 1128 481 1128 462 1128 c 0,38,39
 438 1128 438 1128 421.5 1108 c 128,-1,40
 405 1088 405 1088 405 1042 c 2,41,-1
 406 894 l 1,42,-1
 406 793 l 1,43,-1
 524 793 l 1,44,-1
 524 710 l 1,45,-1
 406 710 l 1,0,-1
EndSplineSet
EndChar

StartChar: g
Encoding: 103 103 65
Width: 868
Flags: W
LayerCount: 2
Fore
SplineSet
567 783 m 1,0,-1
 834 783 l 1,1,-1
 834 690 l 1,2,-1
 683 690 l 1,3,4
 724 649 724 649 740 615 c 0,5,6
 761 569 761 569 761 519 c 0,7,8
 761 435 761 435 714 372.5 c 128,-1,9
 667 310 667 310 586 275 c 128,-1,10
 505 240 505 240 442 240 c 0,11,12
 437 240 437 240 340 244 c 0,13,14
 302 244 302 244 276 218.5 c 128,-1,15
 250 193 250 193 250 159 c 0,16,17
 250 128 250 128 273.5 108.5 c 128,-1,18
 297 89 297 89 350 89 c 2,19,-1
 496 91 l 2,20,21
 674 91 674 91 741 52 c 0,22,23
 837 -2 837 -2 837 -116 c 0,24,25
 837 -188 837 -188 792.5 -246.5 c 128,-1,26
 748 -305 748 -305 676 -333 c 0,27,28
 567 -375 567 -375 425 -375 c 0,29,30
 318 -375 318 -375 230 -354 c 128,-1,31
 142 -333 142 -333 104 -296.5 c 128,-1,32
 66 -260 66 -260 66 -218 c 0,33,34
 66 -180 66 -180 95 -149 c 128,-1,35
 124 -118 124 -118 204 -96 c 1,36,37
 93 -42 93 -42 93 54 c 0,38,39
 93 112 93 112 138 167.5 c 128,-1,40
 183 223 183 223 281 264 c 1,41,42
 167 305 167 305 116.5 373 c 128,-1,43
 66 441 66 441 66 530 c 0,44,45
 66 647 66 647 160.5 731.5 c 128,-1,46
 255 816 255 816 405 816 c 0,47,48
 483 816 483 816 567 783 c 1,0,-1
421 764 m 0,49,50
 371 764 371 764 337 714.5 c 128,-1,51
 303 665 303 665 303 509 c 0,52,53
 303 383 303 383 337 335.5 c 128,-1,54
 371 288 371 288 417 288 c 0,55,56
 467 288 467 288 501 335 c 128,-1,57
 535 382 535 382 535 516 c 0,58,59
 535 668 535 668 497 723 c 0,60,61
 470 764 470 764 421 764 c 0,49,50
371 -117 m 0,62,63
 284 -117 284 -117 257 -131 c 0,64,65
 208 -158 208 -158 208 -202 c 256,66,67
 208 -246 208 -246 257.5 -281 c 128,-1,68
 307 -316 307 -316 446 -316 c 0,69,70
 564 -316 564 -316 631.5 -284.5 c 128,-1,71
 699 -253 699 -253 699 -197 c 0,72,73
 699 -176 699 -176 686 -161 c 0,74,75
 664 -136 664 -136 617 -126.5 c 128,-1,76
 570 -117 570 -117 371 -117 c 0,62,63
EndSplineSet
EndChar

StartChar: h
Encoding: 104 104 66
Width: 966
Flags: W
LayerCount: 2
Fore
SplineSet
383 1150 m 1,0,-1
 383 691 l 1,1,2
 447 760 447 760 501.5 788 c 128,-1,3
 556 816 556 816 615 816 c 0,4,5
 689 816 689 816 742 773.5 c 128,-1,6
 795 731 795 731 812.5 674 c 128,-1,7
 830 617 830 617 830 481 c 2,8,-1
 830 172 l 2,9,10
 830 82 830 82 847 59 c 128,-1,11
 864 36 864 36 916 31 c 1,12,-1
 916 0 l 1,13,-1
 514 0 l 1,14,-1
 514 31 l 1,15,16
 556 36 556 36 578 65 c 0,17,18
 593 87 593 87 593 172 c 2,19,-1
 593 526 l 2,20,21
 593 624 593 624 585.5 649 c 128,-1,22
 578 674 578 674 559.5 688 c 128,-1,23
 541 702 541 702 518 702 c 0,24,25
 484 702 484 702 452 678.5 c 128,-1,26
 420 655 420 655 383 597 c 1,27,-1
 383 172 l 2,28,29
 383 87 383 87 395 66 c 0,30,31
 411 37 411 37 461 31 c 1,32,-1
 461 0 l 1,33,-1
 59 0 l 1,34,-1
 59 31 l 1,35,36
 109 36 109 36 130 63 c 0,37,38
 145 82 145 82 145 172 c 2,39,-1
 145 977 l 2,40,41
 145 1067 145 1067 128.5 1089.5 c 128,-1,42
 112 1112 112 1112 59 1118 c 1,43,-1
 59 1150 l 1,44,-1
 383 1150 l 1,0,-1
EndSplineSet
EndChar

StartChar: i
Encoding: 105 105 67
Width: 482
Flags: W
LayerCount: 2
Fore
SplineSet
249 1177 m 0,0,1
 304 1177 304 1177 342.5 1138.5 c 128,-1,2
 381 1100 381 1100 381 1045 c 0,3,4
 381 991 381 991 342 953 c 128,-1,5
 303 915 303 915 249 915 c 256,6,7
 195 915 195 915 157 953 c 128,-1,8
 119 991 119 991 119 1045 c 0,9,10
 119 1100 119 1100 157 1138.5 c 128,-1,11
 195 1177 195 1177 249 1177 c 0,0,1
368 793 m 1,12,-1
 368 164 l 2,13,14
 368 81 368 81 387.5 57.5 c 128,-1,15
 407 34 407 34 464 31 c 1,16,-1
 464 0 l 1,17,-1
 36 0 l 1,18,-1
 36 31 l 1,19,20
 88 32 88 32 113 61 c 0,21,22
 130 81 130 81 130 164 c 2,23,-1
 130 628 l 2,24,25
 130 711 130 711 110.5 734.5 c 128,-1,26
 91 758 91 758 36 761 c 1,27,-1
 36 793 l 1,28,-1
 368 793 l 1,12,-1
EndSplineSet
EndChar

StartChar: j
Encoding: 106 106 68
Width: 579
Flags: W
LayerCount: 2
Fore
SplineSet
302 1177 m 256,0,1
 356 1177 356 1177 393.5 1138.5 c 128,-1,2
 431 1100 431 1100 431 1047 c 0,3,4
 431 993 431 993 393 955 c 128,-1,5
 355 917 355 917 302 917 c 0,6,7
 248 917 248 917 210 955 c 128,-1,8
 172 993 172 993 172 1047 c 0,9,10
 172 1100 172 1100 210 1138.5 c 128,-1,11
 248 1177 248 1177 302 1177 c 256,0,1
421 793 m 1,12,-1
 421 -28 l 2,13,14
 421 -143 421 -143 406 -198 c 0,15,16
 385 -278 385 -278 322 -326.5 c 128,-1,17
 259 -375 259 -375 155 -375 c 256,18,19
 51 -375 51 -375 1 -332.5 c 128,-1,20
 -49 -290 -49 -290 -49 -230 c 0,21,22
 -49 -193 -49 -193 -23 -165.5 c 128,-1,23
 3 -138 3 -138 38 -138 c 0,24,25
 70 -138 70 -138 89 -157 c 128,-1,26
 108 -176 108 -176 108 -214 c 0,27,28
 108 -224 108 -224 107 -237 c 0,29,30
 105 -255 105 -255 105 -262 c 0,31,32
 105 -292 105 -292 119 -306 c 0,33,34
 132 -320 132 -320 154 -320 c 0,35,36
 173 -320 173 -320 187 -303 c 128,-1,37
 201 -286 201 -286 201 -255 c 0,38,39
 201 -239 201 -239 196 -187 c 0,40,41
 188 -92 188 -92 187 -73 c 2,42,-1
 184 128 l 1,43,-1
 184 618 l 1,44,-1
 184 662 l 2,45,46
 184 715 184 715 166 735.5 c 128,-1,47
 148 756 148 756 90 761 c 1,48,-1
 90 793 l 1,49,-1
 421 793 l 1,12,-1
EndSplineSet
EndChar

StartChar: k
Encoding: 107 107 69
Width: 966
Flags: W
LayerCount: 2
Fore
SplineSet
381 1150 m 1,0,-1
 381 393 l 1,1,-1
 565 575 l 2,2,3
 621 630 621 630 635.5 654 c 128,-1,4
 650 678 650 678 650 702 c 0,5,6
 650 724 650 724 631.5 739.5 c 128,-1,7
 613 755 613 755 558 761 c 1,8,-1
 558 793 l 1,9,-1
 914 793 l 1,10,-1
 914 761 l 1,11,12
 863 759 863 759 825 737 c 128,-1,13
 787 715 787 715 675 607 c 2,14,-1
 588 523 l 1,15,-1
 775 249 l 2,16,17
 888 83 888 83 909 63 c 0,18,19
 938 34 938 34 982 31 c 1,20,-1
 982 0 l 1,21,-1
 572 0 l 1,22,-1
 572 31 l 1,23,24
 600 31 600 31 612 41 c 128,-1,25
 624 51 624 51 624 63 c 0,26,27
 624 83 624 83 588 135 c 2,28,-1
 431 365 l 1,29,-1
 381 315 l 1,30,-1
 381 172 l 2,31,32
 381 82 381 82 397.5 59 c 128,-1,33
 414 36 414 36 467 31 c 1,34,-1
 467 0 l 1,35,-1
 57 0 l 1,36,-1
 57 31 l 1,37,38
 108 36 108 36 129 63 c 0,39,40
 143 82 143 82 143 172 c 2,41,-1
 143 977 l 2,42,43
 143 1067 143 1067 126.5 1089.5 c 128,-1,44
 110 1112 110 1112 57 1118 c 1,45,-1
 57 1150 l 1,46,-1
 381 1150 l 1,0,-1
EndSplineSet
EndChar

StartChar: l
Encoding: 108 108 70
Width: 482
Flags: W
LayerCount: 2
Fore
SplineSet
369 1150 m 1,0,-1
 369 164 l 2,1,2
 369 81 369 81 388.5 57.5 c 128,-1,3
 408 34 408 34 464 31 c 1,4,-1
 464 0 l 1,5,-1
 36 0 l 1,6,-1
 36 31 l 1,7,8
 89 32 89 32 114 61 c 0,9,10
 131 81 131 81 131 164 c 2,11,-1
 131 986 l 2,12,13
 131 1068 131 1068 111.5 1091.5 c 128,-1,14
 92 1115 92 1115 36 1118 c 1,15,-1
 36 1150 l 1,16,-1
 369 1150 l 1,0,-1
EndSplineSet
EndChar

StartChar: m
Encoding: 109 109 71
Width: 1447
Flags: W
LayerCount: 2
Fore
SplineSet
388 793 m 1,0,-1
 388 689 l 1,1,2
 453 760 453 760 508.5 788 c 128,-1,3
 564 816 564 816 630 816 c 0,4,5
 706 816 706 816 758 780.5 c 128,-1,6
 810 745 810 745 837 672 c 1,7,8
 905 748 905 748 967.5 782 c 128,-1,9
 1030 816 1030 816 1098 816 c 0,10,11
 1181 816 1181 816 1229.5 778.5 c 128,-1,12
 1278 741 1278 741 1297.5 683 c 128,-1,13
 1317 625 1317 625 1317 498 c 2,14,-1
 1317 173 l 2,15,16
 1317 82 1317 82 1333 59.5 c 128,-1,17
 1349 37 1349 37 1401 31 c 1,18,-1
 1401 0 l 1,19,-1
 992 0 l 1,20,-1
 992 31 l 1,21,22
 1041 35 1041 35 1063 68 c 0,23,24
 1079 91 1079 91 1079 173 c 2,25,-1
 1079 514 l 2,26,27
 1079 620 1079 620 1070.5 648.5 c 128,-1,28
 1062 677 1062 677 1043.5 691.5 c 128,-1,29
 1025 706 1025 706 1001 706 c 0,30,31
 965 706 965 706 927 679 c 128,-1,32
 889 652 889 652 851 599 c 1,33,-1
 851 173 l 2,34,35
 851 87 851 87 866 66 c 0,36,37
 885 34 885 34 940 31 c 1,38,-1
 940 0 l 1,39,-1
 530 0 l 1,40,-1
 530 31 l 1,41,42
 563 32 563 32 582 46.5 c 128,-1,43
 601 61 601 61 607.5 82.5 c 128,-1,44
 614 104 614 104 614 173 c 2,45,-1
 614 514 l 2,46,47
 614 621 614 621 605.5 648.5 c 128,-1,48
 597 676 597 676 577.5 691 c 128,-1,49
 558 706 558 706 534 706 c 0,50,51
 500 706 500 706 473 689 c 0,52,53
 432 662 432 662 388 599 c 1,54,-1
 388 173 l 2,55,56
 388 89 388 89 404.5 62.5 c 128,-1,57
 421 36 421 36 473 31 c 1,58,-1
 473 0 l 1,59,-1
 65 0 l 1,60,-1
 65 31 l 1,61,62
 114 36 114 36 136 63 c 0,63,64
 151 82 151 82 151 173 c 2,65,-1
 151 621 l 2,66,67
 151 710 151 710 134 732.5 c 128,-1,68
 117 755 117 755 65 761 c 1,69,-1
 65 793 l 1,70,-1
 388 793 l 1,0,-1
EndSplineSet
EndChar

StartChar: n
Encoding: 110 110 72
Width: 966
Flags: W
LayerCount: 2
Fore
SplineSet
383 793 m 1,0,-1
 383 690 l 1,1,2
 443 757 443 757 499 786.5 c 128,-1,3
 555 816 555 816 620 816 c 0,4,5
 697 816 697 816 748 773.5 c 128,-1,6
 799 731 799 731 816 668 c 0,7,8
 829 619 829 619 829 481 c 2,9,-1
 829 173 l 2,10,11
 829 82 829 82 846 59 c 128,-1,12
 863 36 863 36 915 31 c 1,13,-1
 915 0 l 1,14,-1
 514 0 l 1,15,-1
 514 31 l 1,16,17
 559 36 559 36 579 68 c 0,18,19
 591 89 591 89 591 173 c 2,20,-1
 591 526 l 2,21,22
 591 623 591 623 584 648.5 c 128,-1,23
 577 674 577 674 559 688 c 128,-1,24
 541 702 541 702 518 702 c 0,25,26
 445 702 445 702 383 598 c 1,27,-1
 383 173 l 2,28,29
 383 84 383 84 399.5 60 c 128,-1,30
 416 36 416 36 460 31 c 1,31,-1
 460 0 l 1,32,-1
 59 0 l 1,33,-1
 59 31 l 1,34,35
 109 36 109 36 130 63 c 0,36,37
 145 82 145 82 145 173 c 2,38,-1
 145 621 l 2,39,40
 145 710 145 710 128.5 732.5 c 128,-1,41
 112 755 112 755 59 761 c 1,42,-1
 59 793 l 1,43,-1
 383 793 l 1,0,-1
EndSplineSet
EndChar

StartChar: o
Encoding: 111 111 73
Width: 868
Flags: W
LayerCount: 2
Fore
SplineSet
432 816 m 0,0,1
 536 816 536 816 625 763 c 128,-1,2
 714 710 714 710 760.5 611.5 c 128,-1,3
 807 513 807 513 807 396 c 0,4,5
 807 227 807 227 721 113 c 0,6,7
 617 -23 617 -23 435 -23 c 0,8,9
 257 -23 257 -23 160 102 c 128,-1,10
 63 227 63 227 63 392 c 0,11,12
 63 563 63 563 162 689.5 c 128,-1,13
 261 816 261 816 432 816 c 0,0,1
436 757 m 0,14,15
 392 757 392 757 361.5 724 c 128,-1,16
 331 691 331 691 321.5 594.5 c 128,-1,17
 312 498 312 498 312 328 c 0,18,19
 312 236 312 236 323 158 c 0,20,21
 333 98 333 98 363 66.5 c 128,-1,22
 393 35 393 35 432 35 c 256,23,24
 471 35 471 35 496 56 c 0,25,26
 529 85 529 85 541 137 c 0,27,28
 558 217 558 217 558 462 c 0,29,30
 558 606 558 606 541.5 660 c 128,-1,31
 525 714 525 714 494 739 c 0,32,33
 472 757 472 757 436 757 c 0,14,15
EndSplineSet
EndChar

StartChar: p
Encoding: 112 112 74
Width: 966
Flags: W
LayerCount: 2
Fore
SplineSet
366 81 m 1,0,-1
 366 -214 l 2,1,2
 366 -276 366 -276 375.5 -298 c 128,-1,3
 385 -320 385 -320 405.5 -330 c 128,-1,4
 426 -340 426 -340 485 -340 c 1,5,-1
 485 -371 l 1,6,-1
 33 -371 l 1,7,-1
 33 -340 l 1,8,9
 86 -338 86 -338 111 -311 c 0,10,11
 128 -290 128 -290 128 -210 c 2,12,-1
 128 628 l 2,13,14
 128 711 128 711 108.5 734.5 c 128,-1,15
 89 758 89 758 33 761 c 1,16,-1
 33 793 l 1,17,-1
 366 793 l 1,18,-1
 366 689 l 1,19,20
 407 749 407 749 450 777 c 0,21,22
 512 816 512 816 585 816 c 0,23,24
 672 816 672 816 744 761 c 128,-1,25
 816 706 816 706 853 609 c 128,-1,26
 890 512 890 512 890 401 c 0,27,28
 890 280 890 280 851.5 180.5 c 128,-1,29
 813 81 813 81 740 29 c 128,-1,30
 667 -23 667 -23 577 -23 c 0,31,32
 511 -23 511 -23 455 5 c 0,33,34
 412 28 412 28 366 81 c 1,0,-1
366 166 m 1,35,36
 439 63 439 63 522 63 c 0,37,38
 567 63 567 63 597 111 c 0,39,40
 641 182 641 182 641 383 c 0,41,42
 641 587 641 587 593 664 c 0,43,44
 561 713 561 713 507 713 c 0,45,46
 421 713 421 713 366 589 c 1,47,-1
 366 166 l 1,35,36
EndSplineSet
EndChar

StartChar: q
Encoding: 113 113 75
Width: 966
Flags: W
LayerCount: 2
Fore
SplineSet
591 83 m 1,0,1
 540 29 540 29 494 6 c 0,2,3
 435 -23 435 -23 371 -23 c 0,4,5
 222 -23 222 -23 135 109 c 0,6,7
 66 215 66 215 66 363 c 0,8,9
 66 485 66 485 118.5 593.5 c 128,-1,10
 171 702 171 702 262 759 c 128,-1,11
 353 816 353 816 455 816 c 0,12,13
 523 816 523 816 576 793.5 c 128,-1,14
 629 771 629 771 667 724 c 1,15,-1
 799 816 l 1,16,-1
 829 816 l 1,17,-1
 829 -210 l 2,18,19
 829 -288 829 -288 842 -307 c 0,20,21
 864 -339 864 -339 931 -340 c 1,22,-1
 931 -371 l 1,23,-1
 473 -371 l 1,24,-1
 473 -340 l 1,25,26
 526 -340 526 -340 549.5 -328 c 128,-1,27
 573 -316 573 -316 582 -297 c 128,-1,28
 591 -278 591 -278 591 -217 c 2,29,-1
 591 83 l 1,0,1
591 160 m 1,30,-1
 591 487 l 2,31,32
 591 623 591 623 576.5 667 c 128,-1,33
 562 711 562 711 522 744 c 0,34,35
 501 760 501 760 470 760 c 0,36,37
 405 760 405 760 370 703 c 0,38,39
 314 616 314 616 314 378 c 0,40,41
 314 196 314 196 363 122 c 0,42,43
 395 72 395 72 447 72 c 0,44,45
 478 72 478 72 516.5 93 c 128,-1,46
 555 114 555 114 591 160 c 1,30,-1
EndSplineSet
EndChar

StartChar: r
Encoding: 114 114 76
Width: 771
Flags: W
LayerCount: 2
Fore
SplineSet
388 793 m 1,0,-1
 388 613 l 1,1,2
 466 736 466 736 525.5 776 c 128,-1,3
 585 816 585 816 640 816 c 0,4,5
 688 816 688 816 716 787 c 128,-1,6
 744 758 744 758 744 705 c 0,7,8
 744 648 744 648 716.5 616.5 c 128,-1,9
 689 585 689 585 651 585 c 0,10,11
 605 585 605 585 572.5 613.5 c 128,-1,12
 540 642 540 642 533 647 c 0,13,14
 525 651 525 651 514 651 c 0,15,16
 490 651 490 651 467 633 c 0,17,18
 432 604 432 604 414 550 c 0,19,20
 388 469 388 469 388 369 c 2,21,-1
 388 187 l 1,22,-1
 388 139 l 2,23,24
 388 91 388 91 394 77 c 0,25,26
 405 54 405 54 424.5 43.5 c 128,-1,27
 444 33 444 33 492 31 c 1,28,-1
 492 0 l 1,29,-1
 64 0 l 1,30,-1
 64 31 l 1,31,32
 116 35 116 35 134 59 c 128,-1,33
 152 83 152 83 152 187 c 2,34,-1
 152 625 l 2,35,36
 152 693 152 693 145 711 c 0,37,38
 137 736 137 736 120.5 746.5 c 128,-1,39
 104 757 104 757 64 761 c 1,40,-1
 64 793 l 1,41,-1
 388 793 l 1,0,-1
EndSplineSet
EndChar

StartChar: s
Encoding: 115 115 77
Width: 676
Flags: W
LayerCount: 2
Fore
SplineSet
560 815 m 1,0,-1
 572 545 l 1,1,-1
 544 545 l 1,2,3
 492 665 492 665 436.5 709 c 128,-1,4
 381 753 381 753 325 753 c 0,5,6
 290 753 290 753 266 729.5 c 128,-1,7
 242 706 242 706 242 676 c 0,8,9
 242 653 242 653 259 632 c 0,10,11
 286 597 286 597 410.5 512.5 c 128,-1,12
 535 428 535 428 574.5 369.5 c 128,-1,13
 614 311 614 311 614 237 c 0,14,15
 614 172 614 172 581 108.5 c 128,-1,16
 548 45 548 45 487.5 11 c 128,-1,17
 427 -23 427 -23 354 -23 c 0,18,19
 298 -23 298 -23 202 12 c 0,20,21
 177 21 177 21 167 21 c 0,22,23
 140 21 140 21 121 -21 c 1,24,-1
 93 -21 l 1,25,-1
 79 264 l 1,26,-1
 108 264 l 1,27,28
 146 152 146 152 213 96 c 128,-1,29
 280 40 280 40 339 40 c 0,30,31
 379 40 379 40 405 65 c 128,-1,32
 431 90 431 90 431 125 c 0,33,34
 431 166 431 166 406 196 c 128,-1,35
 381 226 381 226 293 286 c 0,36,37
 163 375 163 375 125 423 c 0,38,39
 69 493 69 493 69 577 c 0,40,41
 69 668 69 668 132 742 c 128,-1,42
 195 816 195 816 315 816 c 0,43,44
 379 816 379 816 439 785 c 0,45,46
 462 773 462 773 477 773 c 256,47,48
 492 773 492 773 501.5 779 c 128,-1,49
 511 785 511 785 531 815 c 1,50,-1
 560 815 l 1,0,-1
EndSplineSet
EndChar

StartChar: t
Encoding: 116 116 78
Width: 579
Flags: W
LayerCount: 2
Fore
SplineSet
373 1083 m 1,0,-1
 373 793 l 1,1,-1
 562 793 l 1,2,-1
 562 709 l 1,3,-1
 373 709 l 1,4,-1
 373 219 l 2,5,6
 373 151 373 151 379.5 131 c 128,-1,7
 386 111 386 111 402 99 c 128,-1,8
 418 87 418 87 431 87 c 0,9,10
 487 87 487 87 536 171 c 1,11,-1
 562 152 l 1,12,13
 493 -11 493 -11 338 -11 c 0,14,15
 263 -11 263 -11 211 31 c 128,-1,16
 159 73 159 73 144 125 c 0,17,18
 136 154 136 154 136 281 c 2,19,-1
 136 709 l 1,20,-1
 32 709 l 1,21,-1
 32 739 l 1,22,23
 139 814 139 814 214 897 c 128,-1,24
 289 980 289 980 346 1083 c 1,25,-1
 373 1083 l 1,0,-1
EndSplineSet
EndChar

StartChar: u
Encoding: 117 117 79
Width: 966
Flags: W
LayerCount: 2
Fore
SplineSet
825 793 m 1,0,-1
 825 172 l 2,1,2
 825 82 825 82 842 59 c 128,-1,3
 859 36 859 36 909 31 c 1,4,-1
 909 0 l 1,5,-1
 587 0 l 1,6,-1
 587 106 l 1,7,8
 530 38 530 38 473.5 7.5 c 128,-1,9
 417 -23 417 -23 346 -23 c 0,10,11
 279 -23 279 -23 227 17.5 c 128,-1,12
 175 58 175 58 157 113.5 c 128,-1,13
 139 169 139 169 139 306 c 2,14,-1
 139 621 l 2,15,16
 139 710 139 710 122.5 732.5 c 128,-1,17
 106 755 106 755 53 761 c 1,18,-1
 53 793 l 1,19,-1
 376 793 l 1,20,-1
 376 251 l 2,21,22
 376 166 376 166 384 141.5 c 128,-1,23
 392 117 392 117 409.5 104 c 128,-1,24
 427 91 427 91 450 91 c 0,25,26
 481 91 481 91 506 108 c 0,27,28
 540 129 540 129 587 197 c 1,29,-1
 587 621 l 2,30,31
 587 710 587 710 570 732.5 c 128,-1,32
 553 755 553 755 501 761 c 1,33,-1
 501 793 l 1,34,-1
 825 793 l 1,0,-1
EndSplineSet
EndChar

StartChar: v
Encoding: 118 118 80
Width: 868
Flags: W
LayerCount: 2
Fore
SplineSet
417 -23 m 1,0,-1
 149 591 l 2,1,2
 101 702 101 702 74 731 c 0,3,4
 54 754 54 754 16 761 c 1,5,-1
 16 793 l 1,6,-1
 438 793 l 1,7,-1
 438 761 l 1,8,9
 397 761 397 761 384 747 c 0,10,11
 363 728 363 728 363 703 c 0,12,13
 363 672 363 672 401 585 c 2,14,-1
 531 287 l 1,15,-1
 635 545 l 2,16,17
 681 655 681 655 681 701 c 0,18,19
 681 727 681 727 661.5 743.5 c 128,-1,20
 642 760 642 760 594 761 c 1,21,-1
 594 793 l 1,22,-1
 853 793 l 1,23,-1
 853 761 l 1,24,25
 816 757 816 757 792 733.5 c 128,-1,26
 768 710 768 710 721 599 c 2,27,-1
 456 -23 l 1,28,-1
 417 -23 l 1,0,-1
EndSplineSet
EndChar

StartChar: w
Encoding: 119 119 81
Width: 1254
Flags: W
LayerCount: 2
Fore
SplineSet
845 -23 m 1,0,-1
 628 558 l 1,1,-1
 414 -23 l 1,2,-1
 371 -23 l 1,3,-1
 159 551 l 2,4,5
 112 683 112 683 78 723 c 0,6,7
 57 749 57 749 15 761 c 1,8,-1
 15 793 l 1,9,-1
 414 793 l 1,10,-1
 414 761 l 1,11,12
 374 761 374 761 358.5 749.5 c 128,-1,13
 343 738 343 738 343 723 c 256,14,15
 343 708 343 708 371 636 c 2,16,-1
 487 326 l 1,17,-1
 599 636 l 1,18,-1
 590 656 l 2,19,20
 565 720 565 720 546 737.5 c 128,-1,21
 527 755 527 755 487 761 c 1,22,-1
 487 793 l 1,23,-1
 893 793 l 1,24,-1
 893 761 l 1,25,26
 846 759 846 759 833 748.5 c 128,-1,27
 820 738 820 738 820 719 c 256,28,29
 820 700 820 700 845 636 c 2,30,-1
 956 326 l 1,31,-1
 1058 612 l 2,32,33
 1080 672 1080 672 1080 694 c 0,34,35
 1080 727 1080 727 1064 742.5 c 128,-1,36
 1048 758 1048 758 1002 761 c 1,37,-1
 1002 793 l 1,38,-1
 1236 793 l 1,39,-1
 1236 761 l 1,40,41
 1198 757 1198 757 1174.5 734 c 128,-1,42
 1151 711 1151 711 1115 606 c 2,43,-1
 893 -23 l 1,44,-1
 845 -23 l 1,0,-1
EndSplineSet
EndChar

StartChar: x
Encoding: 120 120 82
Width: 868
Flags: W
LayerCount: 2
Fore
SplineSet
528 485 m 1,0,-1
 665 225 l 2,1,2
 736 88 736 88 778 52 c 0,3,4
 800 32 800 32 841 31 c 1,5,-1
 841 0 l 1,6,-1
 399 0 l 1,7,-1
 399 31 l 1,8,9
 450 35 450 35 462.5 44 c 128,-1,10
 475 53 475 53 475 70 c 0,11,12
 475 93 475 93 447 144 c 2,13,-1
 379 273 l 1,14,-1
 320 188 l 2,15,16
 281 129 281 129 276 118 c 0,17,18
 269 102 269 102 269 89 c 0,19,20
 269 70 269 70 277 56.5 c 128,-1,21
 285 43 285 43 299 37 c 128,-1,22
 313 31 313 31 350 31 c 1,23,-1
 350 0 l 1,24,-1
 40 0 l 1,25,-1
 40 31 l 1,26,27
 98 31 98 31 145.5 62.5 c 128,-1,28
 193 94 193 94 285 229 c 2,29,-1
 350 325 l 1,30,-1
 214 579 l 2,31,32
 146 702 146 702 113.5 730 c 128,-1,33
 81 758 81 758 40 761 c 1,34,-1
 40 793 l 1,35,-1
 479 793 l 1,36,-1
 479 761 l 1,37,-1
 456 761 l 1,38,-1
 412 745 l 2,39,40
 405 740 405 740 405 726 c 0,41,42
 405 713 405 713 409 700 c 0,43,44
 412 693 412 693 434 654 c 2,45,-1
 495 538 l 1,46,-1
 528 584 l 2,47,48
 596 677 596 677 596 714 c 0,49,50
 596 732 596 732 581 744.5 c 128,-1,51
 566 757 566 757 528 761 c 1,52,-1
 528 793 l 1,53,-1
 808 793 l 1,54,-1
 808 761 l 1,55,56
 757 760 757 760 712 730 c 128,-1,57
 667 700 667 700 611 613 c 2,58,-1
 528 485 l 1,0,-1
EndSplineSet
EndChar

StartChar: y
Encoding: 121 121 83
Width: 868
Flags: W
LayerCount: 2
Fore
SplineSet
422 -32 m 1,0,-1
 166 555 l 2,1,2
 108 689 108 689 80.5 719 c 128,-1,3
 53 749 53 749 15 761 c 1,4,-1
 15 793 l 1,5,-1
 436 793 l 1,6,-1
 436 761 l 1,7,8
 394 760 394 760 377 745.5 c 128,-1,9
 360 731 360 731 360 710 c 0,10,11
 360 678 360 678 403 583 c 2,12,-1
 538 273 l 1,13,-1
 631 513 l 2,14,15
 681 641 681 641 681 691 c 0,16,17
 681 723 681 723 660 741.5 c 128,-1,18
 639 760 639 760 587 761 c 1,19,-1
 587 793 l 1,20,-1
 852 793 l 1,21,-1
 852 761 l 1,22,23
 813 757 813 757 788.5 731.5 c 128,-1,24
 764 706 764 706 706 555 c 2,25,-1
 480 -32 l 2,26,27
 394 -252 394 -252 353 -303 c 0,28,29
 295 -375 295 -375 206 -375 c 0,30,31
 136 -375 136 -375 92.5 -335 c 128,-1,32
 49 -295 49 -295 49 -237 c 0,33,34
 49 -189 49 -189 78.5 -156.5 c 128,-1,35
 108 -124 108 -124 153 -124 c 0,36,37
 195 -124 195 -124 221 -151 c 128,-1,38
 247 -178 247 -178 248 -235 c 0,39,40
 248 -267 248 -267 255 -277 c 0,41,42
 262 -286 262 -286 275 -286 c 0,43,44
 295 -286 295 -286 318 -261 c 0,45,46
 352 -226 352 -226 397 -99 c 2,47,-1
 422 -32 l 1,0,-1
EndSplineSet
EndChar

StartChar: z
Encoding: 122 122 84
Width: 771
Flags: W
LayerCount: 2
Fore
SplineSet
708 0 m 1,0,-1
 18 0 l 1,1,-1
 18 19 l 1,2,-1
 454 741 l 1,3,-1
 326 741 l 2,4,5
 244 741 244 741 208.5 726 c 128,-1,6
 173 711 173 711 151 679 c 128,-1,7
 129 647 129 647 105 562 c 1,8,-1
 75 562 l 1,9,-1
 75 793 l 1,10,-1
 743 793 l 1,11,-1
 743 770 l 1,12,-1
 311 54 l 1,13,-1
 365 54 l 2,14,15
 528 54 528 54 600 100.5 c 128,-1,16
 672 147 672 147 708 271 c 1,17,-1
 731 271 l 1,18,-1
 708 0 l 1,0,-1
EndSplineSet
EndChar

StartChar: braceleft
Encoding: 123 123 85
Width: 685
Flags: W
LayerCount: 2
Fore
SplineSet
611 1177 m 1,0,-1
 611 1138 l 1,1,2
 526 1121 526 1121 485.5 1078 c 128,-1,3
 445 1035 445 1035 445 978 c 0,4,5
 445 922 445 922 465 837.5 c 128,-1,6
 485 753 485 753 485 690 c 0,7,8
 485 633 485 633 451.5 573 c 128,-1,9
 418 513 418 513 353 471 c 0,10,11
 307 441 307 441 210 414 c 1,12,13
 315 382 315 382 363 350 c 0,14,15
 425 306 425 306 456.5 247.5 c 128,-1,16
 488 189 488 189 488 137 c 0,17,18
 488 86 488 86 467 1 c 128,-1,19
 446 -84 446 -84 446 -146 c 0,20,21
 446 -207 446 -207 485 -251 c 128,-1,22
 524 -295 524 -295 611 -312 c 1,23,-1
 611 -351 l 1,24,-1
 581 -351 l 2,25,26
 494 -352 494 -352 416.5 -311 c 128,-1,27
 339 -270 339 -270 300 -206 c 128,-1,28
 261 -142 261 -142 261 -83 c 0,29,30
 261 -23 261 -23 286 78 c 0,31,32
 306 154 306 154 306 213 c 0,33,34
 306 280 306 280 264 327 c 128,-1,35
 222 374 222 374 140 388 c 1,36,-1
 140 439 l 1,37,38
 222 453 222 453 264 502 c 128,-1,39
 306 551 306 551 306 621 c 0,40,41
 306 679 306 679 287 752 c 0,42,43
 261 852 261 852 261 905 c 0,44,45
 261 960 261 960 294.5 1017 c 128,-1,46
 328 1074 328 1074 377.5 1109.5 c 128,-1,47
 427 1145 427 1145 487 1161 c 0,48,49
 532 1173 532 1173 611 1177 c 1,0,-1
EndSplineSet
EndChar

StartChar: bar
Encoding: 124 124 86
Width: 383
Flags: W
LayerCount: 2
Fore
SplineSet
135 -375 m 1,0,-1
 135 1177 l 1,1,-1
 245 1177 l 1,2,-1
 245 -375 l 1,3,-1
 135 -375 l 1,0,-1
EndSplineSet
EndChar

StartChar: asciitilde
Encoding: 126 126 87
Width: 903
Flags: W
LayerCount: 2
Fore
SplineSet
885 601 m 1,0,-1
 934 601 l 1,1,2
 929 466 929 466 864 397 c 128,-1,3
 799 328 799 328 706 328 c 0,4,5
 660 328 660 328 610 342 c 128,-1,6
 560 356 560 356 388 428 c 0,7,8
 264 480 264 480 209 480 c 0,9,10
 151 480 151 480 112.5 444.5 c 128,-1,11
 74 409 74 409 59 329 c 1,12,-1
 11 329 l 1,13,14
 17 467 17 467 79.5 534.5 c 128,-1,15
 142 602 142 602 231 602 c 0,16,17
 276 602 276 602 319 590 c 0,18,19
 405 566 405 566 555 501 c 0,20,21
 637 465 637 465 681 454 c 0,22,23
 706 447 706 447 736 447 c 0,24,25
 795 447 795 447 836.5 487 c 128,-1,26
 878 527 878 527 885 601 c 1,0,-1
EndSplineSet
EndChar

StartChar: ccedilla
Encoding: 231 231 90
Width: 805
Flags: W
LayerCount: 2
Fore
SplineSet
775 198 m 1,0,-1
 764 142 l 1,1,2
 616 37 616 37 445 -9 c 1,3,-1
 408 -65 l 1,4,5
 481 -86 481 -86 481 -146 c 0,6,7
 481 -197 481 -197 424.5 -240.5 c 128,-1,8
 368 -284 368 -284 301 -284 c 0,9,10
 272 -284 272 -284 232 -277 c 1,11,-1
 287 -201 l 1,12,13
 322 -223 322 -223 348 -223 c 0,14,15
 412 -223 412 -223 412 -172 c 0,16,17
 412 -117 412 -117 311 -111 c 1,18,-1
 376 -19 l 1,19,20
 145 5 145 5 145 228 c 0,21,22
 145 445 145 445 302 622 c 128,-1,23
 459 799 459 799 652 799 c 0,24,25
 736 799 736 799 819 762 c 1,26,-1
 770 578 l 1,27,-1
 725 578 l 1,28,-1
 728 589 l 2,29,30
 735 622 735 622 735 638 c 0,31,32
 735 737 735 737 599 737 c 0,33,34
 475 737 475 737 382.5 595 c 128,-1,35
 290 453 290 453 290 263 c 0,36,37
 290 62 290 62 446 62 c 0,38,39
 563 62 563 62 775 198 c 1,0,-1
EndSplineSet
EndChar

StartChar: icircumflex
Encoding: 238 238 95
Width: 468
Flags: W
LayerCount: 2
Fore
SplineSet
328 0 m 1,0,-1
 140 0 l 1,1,-1
 140 1117 l 1,2,-1
 328 1117 l 1,3,-1
 328 0 l 1,0,-1
521 1297 m 1,4,-1
 370 1297 l 1,5,-1
 231 1560 l 1,6,-1
 93 1297 l 1,7,-1
 -54 1297 l 1,8,-1
 120 1676 l 1,9,-1
 347 1676 l 1,10,-1
 521 1297 l 1,4,-1
EndSplineSet
EndChar

StartChar: idieresis
Encoding: 239 239 96
Width: 468
Flags: W
LayerCount: 2
Fore
SplineSet
328 0 m 1,0,-1
 140 0 l 1,1,-1
 140 1117 l 1,2,-1
 328 1117 l 1,3,-1
 328 0 l 1,0,-1
506 1304 m 1,4,-1
 317 1304 l 1,5,-1
 317 1499 l 1,6,-1
 506 1499 l 1,7,-1
 506 1304 l 1,4,-1
151 1304 m 1,8,-1
 -38 1304 l 1,9,-1
 -38 1499 l 1,10,-1
 151 1499 l 1,11,-1
 151 1304 l 1,8,-1
EndSplineSet
EndChar

StartChar: dagger
Encoding: 8224 8224 101
Width: 932
Flags: W
LayerCount: 2
Fore
SplineSet
347 -231 m 1,0,-1
 567 622 l 1,1,-1
 248 592 l 1,2,-1
 297 700 l 1,3,-1
 576 668 l 1,4,-1
 607 1066 l 1,5,-1
 755 1093 l 1,6,-1
 621 668 l 1,7,-1
 941 700 l 1,8,-1
 895 592 l 1,9,-1
 612 622 l 1,10,-1
 496 -213 l 1,11,-1
 347 -231 l 1,0,-1
EndSplineSet
EndChar

StartChar: degree
Encoding: 176 176 102
Width: 409
Flags: W
LayerCount: 2
Fore
SplineSet
395 844 m 0,0,1
 344 844 344 844 307.5 880 c 128,-1,2
 271 916 271 916 271 968 c 0,3,4
 271 1021 271 1021 307.5 1057 c 128,-1,5
 344 1093 344 1093 395 1093 c 0,6,7
 447 1093 447 1093 483 1057 c 128,-1,8
 519 1021 519 1021 519 968 c 0,9,10
 519 916 519 916 483 880 c 128,-1,11
 447 844 447 844 395 844 c 0,0,1
395 888 m 256,12,13
 427 888 427 888 450.5 912 c 128,-1,14
 474 936 474 936 474 968 c 256,15,16
 474 1000 474 1000 450.5 1024 c 128,-1,17
 427 1048 427 1048 395 1048 c 256,18,19
 363 1048 363 1048 339 1024 c 128,-1,20
 315 1000 315 1000 315 968 c 256,21,22
 315 936 315 936 339 912 c 128,-1,23
 363 888 363 888 395 888 c 256,12,13
EndSplineSet
EndChar

StartChar: cent
Encoding: 162 162 103
Width: 693
Flags: W
LayerCount: 2
Fore
SplineSet
365 -18 m 1,0,-1
 404 176 l 1,1,2
 142 195 142 195 142 355 c 0,3,4
 142 459 142 459 242 534.5 c 128,-1,5
 342 610 342 610 492 622 c 1,6,-1
 527 799 l 1,7,-1
 572 799 l 1,8,-1
 537 622 l 1,9,10
 637 617 637 617 715 601 c 1,11,-1
 689 471 l 1,12,-1
 644 471 l 1,13,14
 644 477 644 477 645 488 c 0,15,16
 648 509 648 509 648 517 c 0,17,18
 648 572 648 572 528 578 c 1,19,-1
 459 229 l 1,20,21
 567 229 567 229 661 280 c 1,22,-1
 650 229 l 1,23,24
 544 176 544 176 448 176 c 1,25,-1
 409 -18 l 1,26,-1
 365 -18 l 1,0,-1
415 232 m 1,27,-1
 484 578 l 1,28,29
 272 547 272 547 272 383 c 0,30,31
 272 255 272 255 415 232 c 1,27,-1
EndSplineSet
EndChar

StartChar: sterling
Encoding: 163 163 104
Width: 874
Flags: W
LayerCount: 2
Fore
SplineSet
17 0 m 1,0,-1
 109 88 l 1,1,-1
 122 88 l 2,2,3
 229 88 229 88 272.5 136.5 c 128,-1,4
 316 185 316 185 347 343 c 2,5,-1
 356 391 l 1,6,-1
 196 391 l 1,7,-1
 205 436 l 1,8,-1
 365 436 l 1,9,-1
 378 499 l 2,10,11
 407 642 407 642 496.5 721 c 128,-1,12
 586 800 586 800 718 800 c 0,13,14
 797 800 797 800 892 765 c 1,15,-1
 858 586 l 1,16,-1
 808 586 l 1,17,-1
 810 598 l 2,18,19
 812 608 812 608 812 620 c 0,20,21
 812 746 812 746 679 746 c 0,22,23
 614 746 614 746 584.5 710 c 128,-1,24
 555 674 555 674 535 569 c 2,25,-1
 508 436 l 1,26,-1
 748 436 l 1,27,-1
 739 391 l 1,28,-1
 499 391 l 1,29,-1
 492 359 l 2,30,31
 473 265 473 265 427.5 208 c 128,-1,32
 382 151 382 151 275 88 c 1,33,-1
 480 88 l 2,34,35
 617 88 617 88 679 102.5 c 128,-1,36
 741 117 741 117 819 167 c 1,37,-1
 808 113 l 1,38,39
 735 35 735 35 665.5 7.5 c 128,-1,40
 596 -20 596 -20 470 -20 c 1,41,-1
 442 -19 l 1,42,-1
 17 0 l 1,0,-1
EndSplineSet
EndChar

StartChar: section
Encoding: 167 167 105
Width: 932
Flags: W
LayerCount: 2
Fore
SplineSet
107 -153 m 1,0,-1
 232 -80 l 1,1,2
 348 -178 348 -178 481 -178 c 0,3,4
 564 -178 564 -178 621.5 -127.5 c 128,-1,5
 679 -77 679 -77 679 -5 c 0,6,7
 679 48 679 48 645.5 80.5 c 128,-1,8
 612 113 612 113 513 160 c 2,9,-1
 440 193 l 2,10,11
 247 283 247 283 247 409 c 0,12,13
 247 528 247 528 409 652 c 1,14,15
 328 717 328 717 328 815 c 0,16,17
 328 938 328 938 440 1015.5 c 128,-1,18
 552 1093 552 1093 727 1093 c 0,19,20
 814 1093 814 1093 933 1060 c 1,21,-1
 897 879 l 1,22,-1
 853 879 l 1,23,24
 857 904 857 904 857 916 c 0,25,26
 857 1039 857 1039 652 1039 c 0,27,28
 560 1039 560 1039 500.5 987 c 128,-1,29
 441 935 441 935 441 853 c 0,30,31
 441 798 441 798 466 774.5 c 128,-1,32
 491 751 491 751 613 686 c 2,33,-1
 674 652 l 2,34,35
 854 553 854 553 854 444 c 0,36,37
 854 319 854 319 703 200 c 1,38,39
 801 136 801 136 801 40 c 0,40,41
 801 -75 801 -75 684.5 -153 c 128,-1,42
 568 -231 568 -231 397 -231 c 0,43,44
 244 -231 244 -231 107 -153 c 1,0,-1
667 229 m 1,45,46
 747 319 747 319 747 394 c 0,47,48
 747 470 747 470 628 527 c 2,49,-1
 558 562 l 2,50,51
 495 593 495 593 445 625 c 1,52,53
 355 545 355 545 355 456 c 0,54,55
 355 382 355 382 474 326 c 2,56,-1
 571 279 l 2,57,58
 607 263 607 263 667 229 c 1,45,46
EndSplineSet
EndChar

StartChar: bullet
Encoding: 8226 8226 106
Width: 931
Flags: W
LayerCount: 2
Fore
SplineSet
817 662 m 256,0,1
 817 517 817 517 713.5 414 c 128,-1,2
 610 311 610 311 465 311 c 256,3,4
 320 311 320 311 217 414 c 128,-1,5
 114 517 114 517 114 662 c 256,6,7
 114 807 114 807 217 910 c 128,-1,8
 320 1013 320 1013 465 1013 c 256,9,10
 610 1013 610 1013 713.5 910 c 128,-1,11
 817 807 817 807 817 662 c 256,0,1
EndSplineSet
EndChar

StartChar: paragraph
Encoding: 182 182 107
Width: 932
Flags: W
LayerCount: 2
Fore
SplineSet
365 -239 m 1,0,-1
 511 496 l 1,1,2
 241 542 241 542 241 747 c 0,3,4
 241 876 241 876 346.5 968 c 128,-1,5
 452 1060 452 1060 628 1085 c 1,6,-1
 660 1244 l 1,7,-1
 704 1244 l 1,8,-1
 673 1085 l 1,9,-1
 703 1086 l 2,10,11
 744 1086 744 1086 796 1080 c 1,12,-1
 828 1244 l 1,13,-1
 873 1244 l 1,14,-1
 839 1071 l 1,15,16
 891 1057 891 1057 948 1036 c 1,17,-1
 938 988 l 1,18,19
 898 1005 898 1005 830 1024 c 1,20,-1
 742 586 l 1,21,22
 794 603 794 603 869 643 c 1,23,-1
 859 586 l 1,24,25
 794 549 794 549 732 530 c 1,26,-1
 578 -239 l 1,27,-1
 534 -239 l 1,28,-1
 684 514 l 1,29,30
 597 496 597 496 556 496 c 1,31,-1
 409 -239 l 1,32,-1
 365 -239 l 1,0,-1
695 568 m 1,33,-1
 787 1031 l 1,34,35
 738 1040 738 1040 704 1040 c 0,36,37
 691 1040 691 1040 664 1039 c 1,38,-1
 567 553 l 1,39,40
 625 553 625 553 695 568 c 1,33,-1
EndSplineSet
EndChar

StartChar: registered
Encoding: 174 174 108
Width: 897
Flags: W
LayerCount: 2
Fore
SplineSet
580 445 m 0,0,1
 448 445 448 445 354.5 538.5 c 128,-1,2
 261 632 261 632 261 764 c 256,3,4
 261 896 261 896 354.5 990 c 128,-1,5
 448 1084 448 1084 580 1084 c 0,6,7
 714 1084 714 1084 807 990 c 128,-1,8
 900 896 900 896 900 764 c 256,9,10
 900 632 900 632 806.5 538.5 c 128,-1,11
 713 445 713 445 580 445 c 0,0,1
580 484 m 0,12,13
 695 484 695 484 777.5 567 c 128,-1,14
 860 650 860 650 860 764 c 256,15,16
 860 878 860 878 777.5 961 c 128,-1,17
 695 1044 695 1044 580 1044 c 0,18,19
 466 1044 466 1044 383.5 961 c 128,-1,20
 301 878 301 878 301 764 c 256,21,22
 301 650 301 650 383.5 567 c 128,-1,23
 466 484 466 484 580 484 c 0,12,13
529 737 m 1,24,-1
 501 596 l 1,25,-1
 394 596 l 1,26,-1
 403 639 l 1,27,-1
 456 639 l 1,28,-1
 511 915 l 1,29,-1
 458 915 l 1,30,-1
 466 959 l 1,31,-1
 598 959 l 2,32,33
 751 959 751 959 751 875 c 0,34,35
 751 800 751 800 650 750 c 1,36,-1
 685 639 l 1,37,-1
 747 639 l 1,38,-1
 738 596 l 1,39,-1
 641 596 l 1,40,-1
 591 737 l 1,41,-1
 529 737 l 1,24,-1
538 782 m 1,42,-1
 574 782 l 2,43,44
 697 782 697 782 697 866 c 0,45,46
 697 915 697 915 607 915 c 2,47,-1
 564 915 l 1,48,-1
 538 782 l 1,42,-1
EndSplineSet
EndChar

StartChar: copyright
Encoding: 169 169 109
Width: 1244
Flags: W
LayerCount: 2
Fore
SplineSet
725 -27 m 0,0,1
 495 -27 495 -27 330.5 137 c 128,-1,2
 166 301 166 301 166 533 c 256,3,4
 166 765 166 765 330.5 929 c 128,-1,5
 495 1093 495 1093 725 1093 c 0,6,7
 958 1093 958 1093 1122 929 c 128,-1,8
 1286 765 1286 765 1286 533 c 256,9,10
 1286 301 1286 301 1122 137 c 128,-1,11
 958 -27 958 -27 725 -27 c 0,0,1
725 18 m 0,12,13
 939 18 939 18 1090 169 c 128,-1,14
 1241 320 1241 320 1241 533 c 256,15,16
 1241 746 1241 746 1090 897 c 128,-1,17
 939 1048 939 1048 725 1048 c 0,18,19
 513 1048 513 1048 362 897 c 128,-1,20
 211 746 211 746 211 533 c 256,21,22
 211 320 211 320 362 169 c 128,-1,23
 513 18 513 18 725 18 c 0,12,13
890 246 m 1,24,25
 785 213 785 213 704 213 c 0,26,27
 580 213 580 213 508 279.5 c 128,-1,28
 436 346 436 346 436 462 c 0,29,30
 436 625 436 625 541 734.5 c 128,-1,31
 646 844 646 844 805 844 c 0,32,33
 896 844 896 844 1003 814 c 1,34,-1
 967 675 l 1,35,-1
 915 684 l 1,36,-1
 923 766 l 1,37,38
 854 798 854 798 792 798 c 0,39,40
 688 798 688 798 616 700 c 128,-1,41
 544 602 544 602 544 462 c 0,42,43
 544 271 544 271 722 271 c 0,44,45
 823 271 823 271 902 307 c 1,46,-1
 890 246 l 1,24,25
EndSplineSet
EndChar

StartChar: trademark
Encoding: 8482 8482 110
Width: 1333
Flags: W
LayerCount: 2
Fore
SplineSet
440 1021 m 1,0,-1
 307 1021 l 1,1,-1
 288 923 l 1,2,-1
 225 923 l 1,3,-1
 254 1066 l 1,4,-1
 751 1066 l 1,5,-1
 723 923 l 1,6,-1
 661 923 l 1,7,-1
 679 1021 l 1,8,-1
 546 1021 l 1,9,-1
 456 569 l 1,10,-1
 554 569 l 1,11,-1
 545 524 l 1,12,-1
 243 524 l 1,13,-1
 253 569 l 1,14,-1
 350 569 l 1,15,-1
 440 1021 l 1,0,-1
1011 569 m 1,16,-1
 942 956 l 1,17,-1
 857 524 l 1,18,-1
 688 524 l 1,19,-1
 697 569 l 1,20,-1
 794 569 l 1,21,-1
 884 1021 l 1,22,-1
 787 1021 l 1,23,-1
 796 1066 l 1,24,-1
 1036 1066 l 1,25,-1
 1092 747 l 1,26,-1
 1265 1066 l 1,27,-1
 1481 1066 l 1,28,-1
 1473 1021 l 1,29,-1
 1375 1021 l 1,30,-1
 1285 569 l 1,31,-1
 1383 569 l 1,32,-1
 1373 524 l 1,33,-1
 1178 524 l 1,34,-1
 1270 985 l 1,35,-1
 1041 569 l 1,36,-1
 1011 569 l 1,16,-1
EndSplineSet
EndChar

StartChar: acute
Encoding: 180 180 111
Width: 256
Flags: W
LayerCount: 2
Fore
SplineSet
118 999 m 1,0,1
 195 1083 195 1083 192 1046 c 1,2,3
 183 1014 183 1014 135.5 924 c 128,-1,4
 88 834 88 834 66 802 c 1,5,6
 55 796 55 796 62 848 c 1,7,8
 83 919 83 919 118 999 c 1,0,1
EndSplineSet
EndChar

StartChar: dieresis
Encoding: 168 168 112
Width: 862
Flags: W
LayerCount: 2
Fore
SplineSet
495 923 m 1,0,-1
 408 1033 l 1,1,-1
 520 1119 l 1,2,-1
 607 1003 l 1,3,-1
 495 923 l 1,0,-1
841 923 m 1,4,-1
 752 1035 l 1,5,-1
 866 1119 l 1,6,-1
 951 1004 l 1,7,-1
 841 923 l 1,4,-1
EndSplineSet
EndChar

StartChar: plusminus
Encoding: 177 177 113
Width: 932
Flags: W
LayerCount: 2
Fore
SplineSet
76 0 m 1,0,-1
 92 80 l 1,1,-1
 873 80 l 1,2,-1
 858 0 l 1,3,-1
 76 0 l 1,0,-1
469 213 m 1,4,-1
 525 493 l 1,5,-1
 174 493 l 1,6,-1
 189 573 l 1,7,-1
 541 573 l 1,8,-1
 596 852 l 1,9,-1
 676 852 l 1,10,-1
 621 573 l 1,11,-1
 971 573 l 1,12,-1
 956 493 l 1,13,-1
 605 493 l 1,14,-1
 549 213 l 1,15,-1
 469 213 l 1,4,-1
EndSplineSet
EndChar

StartChar: yen
Encoding: 165 165 114
Width: 965
Flags: W
LayerCount: 2
Fore
SplineSet
156 0 m 1,0,-1
 247 99 l 1,1,2
 269 97 269 97 279 97 c 0,3,4
 415 97 415 97 477 257 c 1,5,-1
 272 257 l 1,6,-1
 280 301 l 1,7,-1
 489 301 l 1,8,9
 495 346 495 346 499 409 c 1,10,-1
 301 409 l 1,11,-1
 310 453 l 1,12,-1
 499 453 l 1,13,14
 499 465 499 465 499 470 c 0,15,16
 499 567 499 567 463.5 631 c 128,-1,17
 428 695 428 695 375 695 c 256,18,19
 322 695 322 695 250 638 c 128,-1,20
 178 581 178 581 139 509 c 1,21,-1
 106 534 l 1,22,23
 172 650 172 650 268.5 724.5 c 128,-1,24
 365 799 365 799 452 799 c 0,25,26
 612 799 612 799 612 518 c 1,27,-1
 611 472 l 1,28,29
 736 799 736 799 971 799 c 0,30,31
 1045 799 1045 799 1100 765 c 1,32,-1
 1016 653 l 1,33,34
 967 684 967 684 915 684 c 0,35,36
 742 684 742 684 651 453 c 1,37,-1
 835 453 l 1,38,-1
 826 409 l 1,39,-1
 643 409 l 1,40,-1
 634 369 l 2,41,42
 627 335 627 335 609 301 c 1,43,-1
 805 301 l 1,44,-1
 796 257 l 1,45,-1
 585 257 l 1,46,47
 519 138 519 138 389 91 c 1,48,-1
 624 77 l 1,49,-1
 534 -18 l 1,50,-1
 156 0 l 1,0,-1
EndSplineSet
EndChar

StartChar: mu1
Encoding: 181 181 115
Width: 992
Flags: W
LayerCount: 2
Fore
SplineSet
100 -302 m 1,0,-1
 155 -76 l 1,1,-1
 270 500 l 2,2,3
 282 560 282 560 282 611 c 0,4,5
 282 693 282 693 206 782 c 1,6,-1
 368 790 l 1,7,8
 427 740 427 740 427 623 c 0,9,10
 427 576 427 576 409 481 c 2,11,-1
 355 213 l 2,12,13
 347 176 347 176 347 161 c 0,14,15
 347 106 347 106 391 106 c 0,16,17
 446 106 446 106 553.5 229 c 128,-1,18
 661 352 661 352 753 519 c 1,19,-1
 805 782 l 1,20,-1
 958 790 l 1,21,-1
 905 569 l 1,22,-1
 834 213 l 2,23,24
 818 132 818 132 818 106 c 0,25,26
 818 53 818 53 861 53 c 0,27,28
 931 53 931 53 1075 218 c 1,29,-1
 1062 151 l 1,30,31
 905 -18 905 -18 779 -18 c 0,32,33
 675 -18 675 -18 675 91 c 0,34,35
 675 128 675 128 692 213 c 2,36,-1
 727 391 l 1,37,-1
 717 391 l 1,38,39
 517 0 517 0 312 0 c 1,40,-1
 255 -284 l 1,41,-1
 100 -302 l 1,0,-1
EndSplineSet
EndChar

StartChar: logicalnot
Encoding: 172 172 116
Width: 932
Flags: W
LayerCount: 2
Fore
SplineSet
177 510 m 1,0,-1
 193 590 l 1,1,-1
 975 590 l 1,2,-1
 906 248 l 1,3,-1
 814 248 l 1,4,-1
 866 510 l 1,5,-1
 177 510 l 1,0,-1
EndSplineSet
EndChar

StartChar: florin
Encoding: 402 402 117
Width: 679
Flags: W
LayerCount: 2
Fore
SplineSet
158 -231 m 1,0,-1
 210 -18 l 1,1,-1
 286 364 l 1,2,-1
 108 364 l 1,3,-1
 117 409 l 1,4,-1
 294 409 l 1,5,-1
 298 427 l 2,6,7
 330 586 330 586 463 692.5 c 128,-1,8
 596 799 596 799 761 799 c 0,9,10
 818 799 818 799 860 784 c 1,11,-1
 764 678 l 1,12,13
 712 729 712 729 643 729 c 0,14,15
 500 729 500 729 457 512 c 2,16,-1
 436 409 l 1,17,-1
 623 409 l 1,18,-1
 614 364 l 1,19,-1
 427 364 l 1,20,-1
 313 -213 l 1,21,-1
 158 -231 l 1,0,-1
EndSplineSet
EndChar

StartChar: ellipsis
Encoding: 8230 8230 118
Width: 1474
Flags: W
LayerCount: 2
Fore
SplineSet
178 0 m 1,0,-1
 206 142 l 1,1,-1
 348 142 l 1,2,-1
 319 0 l 1,3,-1
 178 0 l 1,0,-1
667 0 m 1,4,-1
 695 142 l 1,5,-1
 837 142 l 1,6,-1
 808 0 l 1,7,-1
 667 0 l 1,4,-1
1155 0 m 1,8,-1
 1183 142 l 1,9,-1
 1326 142 l 1,10,-1
 1297 0 l 1,11,-1
 1155 0 l 1,8,-1
EndSplineSet
EndChar

StartChar: OE
Encoding: 338 338 119
Width: 1477
Flags: W
LayerCount: 2
Fore
SplineSet
816 0 m 1,0,-1
 831 70 l 1,1,2
 711 -27 711 -27 549 -27 c 0,3,4
 371 -27 371 -27 269 81 c 128,-1,5
 167 189 167 189 167 378 c 0,6,7
 167 661 167 661 358 877 c 128,-1,8
 549 1093 549 1093 799 1093 c 0,9,10
 931 1093 931 1093 1017 1007 c 1,11,-1
 1029 1066 l 1,12,-1
 1593 1066 l 1,13,-1
 1529 862 l 1,14,-1
 1484 862 l 1,15,16
 1490 891 1490 891 1490 913 c 0,17,18
 1490 969 1490 969 1424.5 990.5 c 128,-1,19
 1359 1012 1359 1012 1187 1012 c 2,20,-1
 1165 1012 l 1,21,-1
 1082 586 l 1,22,-1
 1402 586 l 1,23,-1
 1329 512 l 1,24,25
 1165 533 1165 533 1107 533 c 2,26,-1
 1071 533 l 1,27,-1
 1012 218 l 2,28,29
 1002 167 1002 167 1002 156 c 0,30,31
 1002 80 1002 80 1228 80 c 0,32,33
 1348 80 1348 80 1453 160 c 1,34,-1
 1442 103 l 1,35,36
 1318 -23 1318 -23 1203 -23 c 0,37,38
 1183 -23 1183 -23 1161 -21 c 2,39,-1
 816 0 l 1,0,-1
888 361 m 2,40,-1
 961 723 l 2,41,42
 974 786 974 786 974 841 c 0,43,44
 974 933 974 933 916.5 990.5 c 128,-1,45
 859 1048 859 1048 769 1048 c 0,46,47
 604 1048 604 1048 466.5 844 c 128,-1,48
 329 640 329 640 329 395 c 0,49,50
 329 218 329 218 396.5 117.5 c 128,-1,51
 464 17 464 17 585 17 c 0,52,53
 818 17 818 17 888 361 c 2,40,-1
EndSplineSet
EndChar

StartChar: oe
Encoding: 339 339 120
Width: 1350
Flags: W
LayerCount: 2
Fore
SplineSet
706 145 m 1,0,1
 535 -18 535 -18 370 -18 c 0,2,3
 273 -18 273 -18 209 55 c 128,-1,4
 145 128 145 128 145 237 c 0,5,6
 145 448 145 448 302.5 623.5 c 128,-1,7
 460 799 460 799 650 799 c 0,8,9
 794 799 794 799 859 630 c 1,10,11
 1025 799 1025 799 1183 799 c 0,12,13
 1246 799 1246 799 1286.5 758 c 128,-1,14
 1327 717 1327 717 1327 651 c 0,15,16
 1327 508 1327 508 1192.5 414 c 128,-1,17
 1058 320 1058 320 841 311 c 1,18,-1
 840 278 l 1,19,20
 840 66 840 66 998 66 c 0,21,22
 1113 66 1113 66 1327 200 c 1,23,-1
 1316 146 l 1,24,25
 1083 -18 1083 -18 917 -18 c 0,26,27
 758 -18 758 -18 706 145 c 1,0,1
431 35 m 0,28,29
 544 35 544 35 636 178.5 c 128,-1,30
 728 322 728 322 728 499 c 0,31,32
 728 607 728 607 689 672 c 128,-1,33
 650 737 650 737 584 737 c 0,34,35
 472 737 472 737 382 594 c 128,-1,36
 292 451 292 451 292 272 c 0,37,38
 292 35 292 35 431 35 c 0,28,29
844 355 m 1,39,40
 1004 368 1004 368 1097.5 438.5 c 128,-1,41
 1191 509 1191 509 1191 620 c 0,42,43
 1191 733 1191 733 1110 733 c 0,44,45
 1024 733 1024 733 941.5 616 c 128,-1,46
 859 499 859 499 844 355 c 1,39,40
EndSplineSet
EndChar

StartChar: endash
Encoding: 8211 8211 121
Width: 434
Flags: W
LayerCount: 2
Fore
SplineSet
434 154 m 1,0,-1
 0 154 l 1,1,-1
 0 234 l 1,2,-1
 434 234 l 1,3,-1
 434 154 l 1,0,-1
EndSplineSet
EndChar

StartChar: emdash
Encoding: 8212 8212 122
Width: 1862
Flags: W
LayerCount: 2
Fore
SplineSet
1866 572 m 1,0,-1
 -4 572 l 1,1,-1
 -4 732 l 1,2,-1
 1866 732 l 1,3,-1
 1866 572 l 1,0,-1
EndSplineSet
EndChar

StartChar: quotedblleft
Encoding: 8220 8220 123
Width: 662
Flags: W
LayerCount: 2
Fore
SplineSet
535 861 m 1,0,-1
 374 861 l 1,1,-1
 374 989 l 2,2,3
 374 1185 374 1185 511 1254 c 1,4,-1
 529 1214 l 1,5,6
 435 1162 435 1162 435 1029 c 1,7,-1
 535 1029 l 1,8,-1
 535 861 l 1,0,-1
307 861 m 1,9,-1
 146 861 l 1,10,-1
 146 989 l 2,11,12
 146 1185 146 1185 283 1254 c 1,13,-1
 301 1214 l 1,14,15
 207 1162 207 1162 207 1029 c 1,16,-1
 307 1029 l 1,17,-1
 307 861 l 1,9,-1
EndSplineSet
EndChar

StartChar: quotedblright
Encoding: 8221 8221 124
Width: 662
Flags: W
LayerCount: 2
Fore
SplineSet
146 1254 m 1,0,-1
 307 1254 l 1,1,-1
 307 1126 l 2,2,3
 307 930 307 930 170 861 c 1,4,-1
 152 901 l 1,5,6
 246 953 246 953 246 1086 c 1,7,-1
 146 1086 l 1,8,-1
 146 1254 l 1,0,-1
374 1254 m 1,9,-1
 535 1254 l 1,10,-1
 535 1126 l 2,11,12
 535 930 535 930 398 861 c 1,13,-1
 380 901 l 1,14,15
 474 953 474 953 474 1086 c 1,16,-1
 374 1086 l 1,17,-1
 374 1254 l 1,9,-1
EndSplineSet
EndChar

StartChar: divide
Encoding: 247 247 125
Width: 1093
Flags: W
LayerCount: 2
Fore
SplineSet
624 674 m 1,0,-1
 466 674 l 1,1,-1
 466 855 l 1,2,-1
 624 855 l 1,3,-1
 624 674 l 1,0,-1
933 383 m 1,4,-1
 157 383 l 1,5,-1
 157 489 l 1,6,-1
 933 489 l 1,7,-1
 933 383 l 1,4,-1
624 17 m 1,8,-1
 466 17 l 1,9,-1
 466 198 l 1,10,-1
 624 198 l 1,11,-1
 624 17 l 1,8,-1
EndSplineSet
EndChar

StartChar: lozenge
Encoding: 9674 9674 126
Width: 1118
Flags: W
LayerCount: 2
Fore
SplineSet
1003 699 m 1,0,-1
 560 197 l 1,1,-1
 117 699 l 1,2,-1
 560 1202 l 1,3,-1
 1003 699 l 1,0,-1
848 699 m 1,4,-1
 560 1036 l 1,5,-1
 271 699 l 1,6,-1
 560 364 l 1,7,-1
 848 699 l 1,4,-1
EndSplineSet
EndChar

StartChar: Euro
Encoding: 8364 8364 128
Width: 812
Flags: W
LayerCount: 2
Fore
SplineSet
210 464 m 1,0,1
 252 596 252 596 371.5 697.5 c 128,-1,2
 491 799 491 799 674 799 c 0,3,4
 773 799 773 799 885 769 c 1,5,-1
 845 624 l 1,6,-1
 795 624 l 1,7,8
 801 653 801 653 801 665 c 0,9,10
 801 701 801 701 757 726 c 128,-1,11
 713 751 713 751 649 751 c 0,12,13
 445 751 445 751 349 464 c 1,14,-1
 686 464 l 1,15,-1
 677 420 l 1,16,-1
 337 420 l 2,17,18
 335 418 335 418 332 404 c 2,19,-1
 325 365 l 1,20,-1
 325 360 l 1,21,-1
 665 360 l 1,22,-1
 656 315 l 1,23,-1
 319 315 l 1,24,-1
 319 289 l 2,25,26
 319 178 319 178 370 115.5 c 128,-1,27
 421 53 421 53 512 53 c 0,28,29
 636 53 636 53 765 135 c 1,30,-1
 755 72 l 1,31,32
 604 -18 604 -18 459 -18 c 0,33,34
 324 -18 324 -18 249.5 59 c 128,-1,35
 175 136 175 136 175 274 c 0,36,37
 175 300 175 300 175 315 c 1,38,-1
 111 315 l 1,39,-1
 120 360 l 1,40,-1
 182 360 l 1,41,-1
 182 364 l 1,42,43
 189 401 189 401 194 420 c 1,44,-1
 118 420 l 1,45,-1
 127 464 l 1,46,-1
 210 464 l 1,0,1
EndSplineSet
EndChar

StartChar: guilsinglleft
Encoding: 8249 8249 129
Width: 560
Flags: W
LayerCount: 2
Fore
SplineSet
375 71 m 1,0,1
 304 237 304 237 167 391 c 1,2,3
 358 507 358 507 437 653 c 1,4,-1
 587 711 l 1,5,6
 536 589 536 589 315 441 c 1,7,8
 423 310 423 310 499 138 c 1,9,-1
 375 71 l 1,0,1
EndSplineSet
EndChar

StartChar: guilsinglright
Encoding: 8250 8250 130
Width: 560
Flags: W
LayerCount: 2
Fore
SplineSet
339 711 m 1,0,1
 410 545 410 545 546 391 c 1,2,3
 356 275 356 275 276 128 c 1,4,-1
 128 71 l 1,5,6
 178 193 178 193 400 341 c 1,7,8
 293 470 293 470 215 643 c 1,9,-1
 339 711 l 1,0,1
EndSplineSet
EndChar

StartChar: daggerdbl
Encoding: 8225 8225 133
Width: 932
Flags: W
LayerCount: 2
Fore
SplineSet
349 -231 m 1,0,-1
 481 185 l 1,1,-1
 161 154 l 1,2,-1
 211 261 l 1,3,-1
 490 229 l 1,4,-1
 567 616 l 1,5,-1
 247 586 l 1,6,-1
 297 693 l 1,7,-1
 575 661 l 1,8,-1
 608 1066 l 1,9,-1
 758 1093 l 1,10,-1
 620 661 l 1,11,-1
 940 693 l 1,12,-1
 889 586 l 1,13,-1
 611 616 l 1,14,-1
 535 229 l 1,15,-1
 855 261 l 1,16,-1
 804 154 l 1,17,-1
 525 185 l 1,18,-1
 499 -213 l 1,19,-1
 349 -231 l 1,0,-1
EndSplineSet
EndChar

StartChar: middot.001
Encoding: 8729 8729 134
Width: 620
Flags: W
LayerCount: 2
Fore
SplineSet
429 516 m 1,0,-1
 190 516 l 1,1,-1
 190 789 l 1,2,-1
 429 789 l 1,3,-1
 429 516 l 1,0,-1
EndSplineSet
EndChar

StartChar: quotesinglbase
Encoding: 8218 8218 135
Width: 418
Flags: W
LayerCount: 2
Fore
SplineSet
103 128 m 1,0,-1
 247 231 l 1,1,-1
 353 90 l 1,2,3
 345 -56 345 -56 262.5 -134.5 c 128,-1,4
 180 -213 180 -213 36 -213 c 1,5,-1
 76 -168 l 1,6,7
 189 -158 189 -158 211 -18 c 1,8,-1
 103 128 l 1,0,-1
EndSplineSet
EndChar

StartChar: quotedblbase
Encoding: 8222 8222 136
Width: 684
Flags: W
LayerCount: 2
Fore
SplineSet
91 92 m 1,0,-1
 204 178 l 1,1,-1
 292 64 l 1,2,3
 270 -213 270 -213 31 -213 c 1,4,-1
 60 -168 l 1,5,6
 166 -148 166 -148 179 -16 c 1,7,-1
 91 92 l 1,0,-1
401 92 m 1,8,-1
 516 178 l 1,9,-1
 602 64 l 1,10,11
 581 -213 581 -213 341 -213 c 1,12,-1
 372 -168 l 1,13,14
 476 -148 476 -148 490 -16 c 1,15,-1
 401 92 l 1,8,-1
EndSplineSet
EndChar

StartChar: perthousand
Encoding: 8240 8240 137
Width: 1571
Flags: W
LayerCount: 2
Fore
SplineSet
385 533 m 0,0,1
 304 533 304 533 254.5 584.5 c 128,-1,2
 205 636 205 636 205 722 c 0,3,4
 205 865 205 865 286.5 965.5 c 128,-1,5
 368 1066 368 1066 483 1066 c 0,6,7
 567 1066 567 1066 617.5 1014.5 c 128,-1,8
 668 963 668 963 668 877 c 0,9,10
 668 733 668 733 585.5 633 c 128,-1,11
 503 533 503 533 385 533 c 0,0,1
311 715 m 0,12,13
 311 578 311 578 398 578 c 0,14,15
 463 578 463 578 517 671.5 c 128,-1,16
 571 765 571 765 571 881 c 0,17,18
 571 1022 571 1022 483 1022 c 0,19,20
 416 1022 416 1022 363.5 928 c 128,-1,21
 311 834 311 834 311 715 c 0,12,13
850 0 m 0,22,23
 769 0 769 0 719.5 51.5 c 128,-1,24
 670 103 670 103 670 189 c 0,25,26
 670 331 670 331 751 432 c 128,-1,27
 832 533 832 533 947 533 c 0,28,29
 1031 533 1031 533 1081.5 481.5 c 128,-1,30
 1132 430 1132 430 1132 344 c 0,31,32
 1132 200 1132 200 1049.5 100 c 128,-1,33
 967 0 967 0 850 0 c 0,22,23
776 182 m 0,34,35
 776 44 776 44 862 44 c 0,36,37
 929 44 929 44 982 138 c 128,-1,38
 1035 232 1035 232 1035 348 c 0,39,40
 1035 490 1035 490 948 490 c 0,41,42
 880 490 880 490 828 395.5 c 128,-1,43
 776 301 776 301 776 182 c 0,34,35
131 -27 m 1,44,-1
 1111 1093 l 1,45,-1
 1206 1093 l 1,46,-1
 225 -27 l 1,47,-1
 131 -27 l 1,44,-1
1376 0 m 0,48,49
 1294 0 1294 0 1244.5 51.5 c 128,-1,50
 1195 103 1195 103 1195 189 c 0,51,52
 1195 331 1195 331 1276.5 432 c 128,-1,53
 1358 533 1358 533 1473 533 c 0,54,55
 1557 533 1557 533 1607.5 481.5 c 128,-1,56
 1658 430 1658 430 1658 344 c 0,57,58
 1658 200 1658 200 1575.5 100 c 128,-1,59
 1493 0 1493 0 1376 0 c 0,48,49
1301 183 m 0,60,61
 1301 44 1301 44 1389 44 c 0,62,63
 1453 44 1453 44 1507 138 c 128,-1,64
 1561 232 1561 232 1561 347 c 0,65,66
 1561 490 1561 490 1473 490 c 0,67,68
 1406 490 1406 490 1353.5 395.5 c 128,-1,69
 1301 301 1301 301 1301 183 c 0,60,61
EndSplineSet
EndChar

StartChar: circumflex
Encoding: 710 710 139
Width: 862
Flags: W
LayerCount: 2
Fore
SplineSet
870 976 m 1,0,-1
 783 923 l 1,1,2
 729 984 729 984 693 1082 c 1,3,4
 652 1032 652 1032 574 953 c 0,5,6
 571 949 571 949 553 931 c 1,7,-1
 452 923 l 1,8,9
 607 1037 607 1037 674 1120 c 1,10,-1
 772 1182 l 1,11,12
 805 1069 805 1069 870 976 c 1,0,-1
EndSplineSet
EndChar

StartChar: cedilla
Encoding: 184 184 140
Width: 862
Flags: W
LayerCount: 2
Fore
SplineSet
456 0 m 1,0,-1
 414 -64 l 1,1,2
 485 -86 485 -86 485 -147 c 0,3,4
 485 -198 485 -198 428.5 -241 c 128,-1,5
 372 -284 372 -284 303 -284 c 0,6,7
 272 -284 272 -284 237 -277 c 1,8,-1
 292 -201 l 1,9,10
 326 -223 326 -223 352 -223 c 0,11,12
 416 -223 416 -223 416 -171 c 0,13,14
 416 -112 416 -112 318 -112 c 1,15,-1
 394 0 l 1,16,-1
 456 0 l 1,0,-1
EndSplineSet
EndChar

StartChar: brokenbar
Encoding: 166 166 141
Width: 355
Flags: W
LayerCount: 2
Fore
SplineSet
86 -213 m 1,0,-1
 203 373 l 1,1,-1
 301 373 l 1,2,-1
 184 -213 l 1,3,-1
 86 -213 l 1,0,-1
238 551 m 1,4,-1
 355 1137 l 1,5,-1
 453 1137 l 1,6,-1
 337 551 l 1,7,-1
 238 551 l 1,4,-1
EndSplineSet
EndChar

StartChar: minus
Encoding: 8722 8722 142
Width: 1490
Flags: W
LayerCount: 2
Fore
SplineSet
1308 572 m 1,0,-1
 182 572 l 1,1,-1
 182 732 l 1,2,-1
 1308 732 l 1,3,-1
 1308 572 l 1,0,-1
EndSplineSet
EndChar

StartChar: multiply
Encoding: 215 215 143
Width: 824
Flags: W
LayerCount: 2
Fore
SplineSet
618 758 m 1,0,-1
 714 661 l 1,1,-1
 527 475 l 1,2,-1
 714 288 l 1,3,-1
 617 191 l 1,4,-1
 430 379 l 1,5,-1
 242 190 l 1,6,-1
 146 287 l 1,7,-1
 334 475 l 1,8,-1
 146 662 l 1,9,-1
 243 759 l 1,10,-1
 430 572 l 1,11,-1
 618 758 l 1,0,-1
EndSplineSet
EndChar

StartChar: onesuperior
Encoding: 185 185 144
Width: 596
Flags: W
LayerCount: 2
Fore
SplineSet
573 1093 m 1,0,-1
 487 657 l 2,1,2
 476 607 476 607 476 589 c 0,3,4
 476 570 476 570 532 563 c 1,5,-1
 591 560 l 1,6,-1
 582 516 l 1,7,-1
 210 516 l 1,8,-1
 218 560 l 1,9,-1
 279 563 l 2,10,11
 328 567 328 567 337.5 578 c 128,-1,12
 347 589 347 589 362 657 c 2,13,-1
 418 938 l 2,14,15
 423 960 423 960 423 978 c 0,16,17
 423 1004 423 1004 355 1013 c 2,18,-1
 310 1021 l 1,19,-1
 319 1066 l 1,20,-1
 573 1093 l 1,0,-1
EndSplineSet
EndChar

StartChar: twosuperior
Encoding: 178 178 145
Width: 596
Flags: W
LayerCount: 2
Fore
SplineSet
187 516 m 1,0,-1
 207 617 l 1,1,2
 362 712 362 712 454.5 803.5 c 128,-1,3
 547 895 547 895 547 952 c 0,4,5
 547 1046 547 1046 463 1046 c 0,6,7
 352 1046 352 1046 331 928 c 1,8,-1
 278 928 l 1,9,-1
 304 1059 l 1,10,11
 400 1093 400 1093 484 1093 c 0,12,13
 674 1093 674 1093 674 959 c 0,14,15
 674 887 674 887 624.5 842 c 128,-1,16
 575 797 575 797 297 617 c 1,17,-1
 607 617 l 1,18,-1
 587 516 l 1,19,-1
 187 516 l 1,0,-1
EndSplineSet
EndChar

StartChar: threesuperior
Encoding: 179 179 146
Width: 596
Flags: W
LayerCount: 2
Fore
SplineSet
185 545 m 1,0,-1
 257 620 l 1,1,2
 337 556 337 556 418 556 c 0,3,4
 460 556 460 556 490.5 587 c 128,-1,5
 521 618 521 618 521 661 c 0,6,7
 521 776 521 776 345 776 c 0,8,9
 323 776 323 776 301 773 c 1,10,-1
 331 859 l 1,11,12
 350 860 350 860 365 860 c 0,13,14
 412 860 412 860 466 849 c 1,15,16
 547 886 547 886 547 961 c 0,17,18
 547 1046 547 1046 454 1046 c 0,19,20
 365 1046 365 1046 342 941 c 1,21,-1
 289 941 l 1,22,-1
 311 1057 l 1,23,24
 398 1093 398 1093 484 1093 c 0,25,26
 662 1093 662 1093 662 984 c 0,27,28
 662 893 662 893 520 829 c 1,29,30
 625 790 625 790 625 693 c 0,31,32
 625 616 625 616 554.5 563 c 128,-1,33
 484 510 484 510 378 510 c 0,34,35
 289 510 289 510 185 545 c 1,0,-1
EndSplineSet
EndChar

StartChar: onehalf
Encoding: 189 189 147
Width: 1262
Flags: W
LayerCount: 2
Fore
SplineSet
528 1093 m 1,0,-1
 442 657 l 2,1,2
 432 606 432 606 432 589 c 0,3,4
 432 570 432 570 488 563 c 1,5,-1
 547 560 l 1,6,-1
 538 516 l 1,7,-1
 165 516 l 1,8,-1
 174 560 l 1,9,-1
 235 563 l 2,10,11
 283 567 283 567 293 578 c 128,-1,12
 303 589 303 589 318 657 c 2,13,-1
 373 938 l 2,14,15
 378 960 378 960 378 978 c 0,16,17
 378 1004 378 1004 310 1013 c 2,18,-1
 265 1021 l 1,19,-1
 274 1066 l 1,20,-1
 528 1093 l 1,0,-1
160 -27 m 1,21,-1
 1180 1093 l 1,22,-1
 1280 1093 l 1,23,-1
 257 -27 l 1,24,-1
 160 -27 l 1,21,-1
778 0 m 1,25,-1
 797 103 l 1,26,27
 952 197 952 197 1045 288 c 128,-1,28
 1138 379 1138 379 1138 436 c 0,29,30
 1138 530 1138 530 1053 530 c 0,31,32
 942 530 942 530 922 413 c 1,33,-1
 868 413 l 1,34,-1
 895 544 l 1,35,36
 989 578 989 578 1075 578 c 0,37,38
 1264 578 1264 578 1264 445 c 0,39,40
 1264 373 1264 373 1214.5 328 c 128,-1,41
 1165 283 1165 283 887 103 c 1,42,-1
 1197 103 l 1,43,-1
 1177 0 l 1,44,-1
 778 0 l 1,25,-1
EndSplineSet
EndChar

StartChar: onequarter
Encoding: 188 188 148
Width: 1262
Flags: W
LayerCount: 2
Fore
SplineSet
546 1093 m 1,0,-1
 460 657 l 2,1,2
 450 606 450 606 450 589 c 0,3,4
 450 570 450 570 506 563 c 1,5,-1
 565 560 l 1,6,-1
 556 516 l 1,7,-1
 183 516 l 1,8,-1
 192 560 l 1,9,-1
 253 563 l 2,10,11
 301 567 301 567 311 578 c 128,-1,12
 321 589 321 589 336 657 c 2,13,-1
 391 938 l 2,14,15
 396 960 396 960 396 978 c 0,16,17
 396 1004 396 1004 328 1013 c 2,18,-1
 283 1021 l 1,19,-1
 292 1066 l 1,20,-1
 546 1093 l 1,0,-1
178 -27 m 1,21,-1
 1198 1093 l 1,22,-1
 1298 1093 l 1,23,-1
 275 -27 l 1,24,-1
 178 -27 l 1,21,-1
981 164 m 1,25,-1
 732 182 l 1,26,-1
 747 261 l 1,27,-1
 1102 578 l 1,28,-1
 1170 578 l 1,29,-1
 1102 236 l 1,30,-1
 1212 229 l 1,31,-1
 1168 149 l 1,32,-1
 1086 157 l 1,33,34
 1076 102 1076 102 1076 74 c 0,35,36
 1076 52 1076 52 1129 49 c 2,37,-1
 1189 45 l 1,38,-1
 1180 0 l 1,39,-1
 820 0 l 1,40,-1
 829 45 l 1,41,-1
 886 49 l 2,42,43
 937 52 937 52 952 64 c 128,-1,44
 967 76 967 76 973 117 c 0,45,46
 976 134 976 134 981 164 c 1,25,-1
997 244 m 1,47,-1
 1038 446 l 1,48,-1
 823 255 l 1,49,-1
 997 244 l 1,47,-1
EndSplineSet
EndChar

StartChar: threequarters
Encoding: 190 190 149
Width: 1262
Flags: W
LayerCount: 2
Fore
SplineSet
174 545 m 1,0,-1
 247 620 l 1,1,2
 326 556 326 556 407 556 c 0,3,4
 448 556 448 556 478.5 587 c 128,-1,5
 509 618 509 618 509 661 c 0,6,7
 509 776 509 776 333 776 c 0,8,9
 311 776 311 776 289 773 c 1,10,-1
 319 859 l 1,11,12
 338 860 338 860 355 860 c 0,13,14
 401 860 401 860 455 849 c 1,15,16
 535 886 535 886 535 961 c 0,17,18
 535 1046 535 1046 442 1046 c 0,19,20
 354 1046 354 1046 330 941 c 1,21,-1
 277 941 l 1,22,-1
 301 1057 l 1,23,24
 387 1093 387 1093 472 1093 c 0,25,26
 651 1093 651 1093 651 984 c 0,27,28
 651 893 651 893 508 829 c 1,29,30
 614 790 614 790 614 693 c 0,31,32
 614 616 614 616 543 563 c 128,-1,33
 472 510 472 510 366 510 c 0,34,35
 277 510 277 510 174 545 c 1,0,-1
178 -27 m 1,36,-1
 1198 1093 l 1,37,-1
 1298 1093 l 1,38,-1
 275 -27 l 1,39,-1
 178 -27 l 1,36,-1
981 164 m 1,40,-1
 732 182 l 1,41,-1
 747 261 l 1,42,-1
 1102 578 l 1,43,-1
 1170 578 l 1,44,-1
 1102 236 l 1,45,-1
 1212 229 l 1,46,-1
 1168 149 l 1,47,-1
 1086 157 l 1,48,49
 1076 102 1076 102 1076 74 c 0,50,51
 1076 52 1076 52 1129 49 c 2,52,-1
 1189 45 l 1,53,-1
 1180 0 l 1,54,-1
 820 0 l 1,55,-1
 829 45 l 1,56,-1
 886 49 l 2,57,58
 938 52 938 52 952.5 64 c 128,-1,59
 967 76 967 76 973 117 c 0,60,61
 976 134 976 134 981 164 c 1,40,-1
997 244 m 1,62,-1
 1038 446 l 1,63,-1
 823 255 l 1,64,-1
 997 244 l 1,62,-1
EndSplineSet
EndChar

StartChar: macron
Encoding: 175 175 150
Width: 1118
Flags: W
LayerCount: 2
Fore
SplineSet
1134 1659 m 1,0,-1
 -16 1659 l 1,1,-1
 -16 1789 l 1,2,-1
 1134 1789 l 1,3,-1
 1134 1659 l 1,0,-1
EndSplineSet
EndChar

StartChar: periodcentered
Encoding: 183 183 151
Width: 724
Flags: W
LayerCount: 2
Fore
SplineSet
482 832 m 1,0,-1
 243 832 l 1,1,-1
 243 1117 l 1,2,-1
 482 1117 l 1,3,-1
 482 832 l 1,0,-1
EndSplineSet
EndChar

StartChar: H22073
Encoding: 9633 9633 152
Width: 1237
Flags: W
LayerCount: 2
Fore
SplineSet
146 944 m 1,0,-1
 1090 944 l 1,1,-1
 1090 0 l 1,2,-1
 146 0 l 1,3,-1
 146 944 l 1,0,-1
222 868 m 1,4,-1
 222 76 l 1,5,-1
 1014 76 l 1,6,-1
 1014 868 l 1,7,-1
 222 868 l 1,4,-1
EndSplineSet
EndChar

StartChar: H18543
Encoding: 9642 9642 153
Width: 1089
Flags: W
LayerCount: 2
Fore
SplineSet
886 994 m 1,0,-1
 886 300 l 1,1,-1
 192 300 l 1,2,-1
 192 994 l 1,3,-1
 886 994 l 1,0,-1
EndSplineSet
EndChar

StartChar: H18551
Encoding: 9643 9643 154
Width: 1089
Flags: W
LayerCount: 2
Fore
SplineSet
888 996 m 1,0,-1
 888 301 l 1,1,-1
 193 301 l 1,2,-1
 193 996 l 1,3,-1
 888 996 l 1,0,-1
774 882 m 1,4,-1
 307 882 l 1,5,-1
 307 415 l 1,6,-1
 774 415 l 1,7,-1
 774 882 l 1,4,-1
EndSplineSet
EndChar

StartChar: H18533
Encoding: 9679 9679 155
Width: 1339
Flags: W
LayerCount: 2
Fore
SplineSet
204 719 m 0,0,1
 204 920 204 920 345 1061 c 128,-1,2
 486 1202 486 1202 685 1202 c 0,3,4
 885 1202 885 1202 1026 1061 c 128,-1,5
 1167 920 1167 920 1167 719 c 0,6,7
 1167 521 1167 521 1026 380 c 128,-1,8
 885 239 885 239 685 239 c 0,9,10
 486 239 486 239 345 380 c 128,-1,11
 204 521 204 521 204 719 c 0,0,1
EndSplineSet
EndChar

StartChar: openbullet
Encoding: 9702 9702 156
Width: 1089
Flags: W
LayerCount: 2
Fore
SplineSet
544 1171 m 0,0,1
 700 1171 700 1171 810.5 1060.5 c 128,-1,2
 921 950 921 950 921 794 c 256,3,4
 921 638 921 638 810.5 528 c 128,-1,5
 700 418 700 418 544 418 c 256,6,7
 388 418 388 418 278 528 c 128,-1,8
 168 638 168 638 168 794 c 256,9,10
 168 950 168 950 277.5 1060.5 c 128,-1,11
 387 1171 387 1171 544 1171 c 0,0,1
544 1057 m 0,12,13
 435 1057 435 1057 358.5 979.5 c 128,-1,14
 282 902 282 902 282 794 c 0,15,16
 282 685 282 685 359 608.5 c 128,-1,17
 436 532 436 532 544 532 c 256,18,19
 652 532 652 532 729.5 608.5 c 128,-1,20
 807 685 807 685 807 794 c 0,21,22
 807 902 807 902 730.5 979.5 c 128,-1,23
 654 1057 654 1057 544 1057 c 0,12,13
EndSplineSet
EndChar

StartChar: currency
Encoding: 164 164 157
Width: 932
Flags: W
LayerCount: 2
Fore
SplineSet
769 322 m 1,0,-1
 879 184 l 1,1,-1
 841 153 l 1,2,-1
 732 292 l 1,3,4
 616 214 616 214 504 214 c 0,5,6
 394 214 394 214 310 292 c 1,7,-1
 145 153 l 1,8,-1
 120 184 l 1,9,-1
 286 322 l 1,10,11
 243 397 243 397 243 470 c 0,12,13
 243 613 243 613 369 743 c 1,14,-1
 259 882 l 1,15,-1
 297 913 l 1,16,-1
 407 775 l 1,17,18
 521 852 521 852 634 852 c 0,19,20
 744 852 744 852 828 775 c 1,21,-1
 994 913 l 1,22,-1
 1019 882 l 1,23,-1
 852 743 l 1,24,25
 895 668 895 668 895 596 c 0,26,27
 895 455 895 455 769 322 c 1,0,-1
818 579 m 0,28,29
 818 666 818 666 762 721.5 c 128,-1,30
 706 777 706 777 620 777 c 0,31,32
 502 777 502 777 411 688 c 128,-1,33
 320 599 320 599 320 485 c 0,34,35
 320 400 320 400 376.5 344.5 c 128,-1,36
 433 289 433 289 519 289 c 0,37,38
 635 289 635 289 726.5 377.5 c 128,-1,39
 818 466 818 466 818 579 c 0,28,29
EndSplineSet
EndChar

StartChar: uniFFFC
Encoding: 65532 65532 158
Width: 2048
Flags: W
LayerCount: 2
Fore
SplineSet
2048 1150 m 1,0,-1
 1948 1150 l 1,1,-1
 1948 1373 l 1,2,-1
 1725 1373 l 1,3,-1
 1725 1473 l 1,4,-1
 2048 1473 l 1,5,-1
 2048 1150 l 1,0,-1
1473 1373 m 1,6,-1
 1150 1373 l 1,7,-1
 1150 1473 l 1,8,-1
 1473 1473 l 1,9,-1
 1473 1373 l 1,6,-1
2048 575 m 1,10,-1
 1948 575 l 1,11,-1
 1948 898 l 1,12,-1
 2048 898 l 1,13,-1
 2048 575 l 1,10,-1
1782 611 m 2,14,15
 1782 370 1782 370 1571 370 c 0,16,17
 1485 370 1485 370 1433 415 c 1,18,-1
 1506 494 l 1,19,20
 1531 468 1531 468 1571 468 c 0,21,22
 1666 468 1666 468 1666 606 c 2,23,-1
 1666 1090 l 1,24,-1
 1782 1090 l 1,25,-1
 1782 611 l 2,14,15
898 1373 m 1,26,-1
 575 1373 l 1,27,-1
 575 1473 l 1,28,-1
 898 1473 l 1,29,-1
 898 1373 l 1,26,-1
2048 0 m 1,30,-1
 1725 0 l 1,31,-1
 1725 100 l 1,32,-1
 1948 100 l 1,33,-1
 1948 323 l 1,34,-1
 2048 323 l 1,35,-1
 2048 0 l 1,30,-1
1423 591 m 0,36,37
 1423 382 1423 382 1149 382 c 2,38,-1
 909 382 l 1,39,-1
 909 1090 l 1,40,-1
 1144 1090 l 2,41,42
 1393 1090 1393 1090 1393 904 c 0,43,44
 1393 813 1393 813 1304 759 c 1,45,46
 1423 713 1423 713 1423 591 c 0,36,37
323 1373 m 1,47,-1
 100 1373 l 1,48,-1
 100 1150 l 1,49,-1
 0 1150 l 1,50,-1
 0 1473 l 1,51,-1
 323 1473 l 1,52,-1
 323 1373 l 1,47,-1
1473 0 m 1,53,-1
 1150 0 l 1,54,-1
 1150 100 l 1,55,-1
 1473 100 l 1,56,-1
 1473 0 l 1,53,-1
854 735 m 0,57,58
 854 562 854 562 772 466 c 128,-1,59
 690 370 690 370 537 370 c 256,60,61
 384 370 384 370 303.5 466 c 128,-1,62
 223 562 223 562 223 735 c 0,63,64
 223 910 223 910 303.5 1006 c 128,-1,65
 384 1102 384 1102 537 1102 c 256,66,67
 690 1102 690 1102 772 1006 c 128,-1,68
 854 910 854 910 854 735 c 0,57,58
100 575 m 1,69,-1
 0 575 l 1,70,-1
 0 898 l 1,71,-1
 100 898 l 1,72,-1
 100 575 l 1,69,-1
898 0 m 1,73,-1
 575 0 l 1,74,-1
 575 100 l 1,75,-1
 898 100 l 1,76,-1
 898 0 l 1,73,-1
323 0 m 1,77,-1
 0 0 l 1,78,-1
 0 323 l 1,79,-1
 100 323 l 1,80,-1
 100 100 l 1,81,-1
 323 100 l 1,82,-1
 323 0 l 1,77,-1
1277 893 m 0,83,84
 1277 992 1277 992 1114 992 c 2,85,-1
 1025 992 l 1,86,-1
 1025 798 l 1,87,-1
 1126 798 l 2,88,89
 1277 798 1277 798 1277 893 c 0,83,84
1307 591 m 0,90,91
 1307 700 1307 700 1136 700 c 2,92,-1
 1025 700 l 1,93,-1
 1025 480 l 1,94,-1
 1149 480 l 2,95,96
 1307 480 1307 480 1307 591 c 0,90,91
738 735 m 0,97,98
 738 1004 738 1004 537 1004 c 0,99,100
 339 1004 339 1004 339 735 c 0,101,102
 339 468 339 468 537 468 c 0,103,104
 738 468 738 468 738 735 c 0,97,98
EndSplineSet
EndChar

StartChar: dotbelowcomb
Encoding: 65538 -1 160
Width: 0
Flags: W
LayerCount: 2
Fore
SplineSet
666 -382 m 1,0,-1
 452 -382 l 1,1,-1
 452 -187 l 1,2,-1
 666 -187 l 1,3,-1
 666 -382 l 1,0,-1
EndSplineSet
EndChar

StartChar: zerowidthnonjoiner
Encoding: 8204 8204 175
Width: 0
GlyphClass: 2
Flags: W
LayerCount: 2
Fore
SplineSet
36 1289 m 1,0,-1
 36 -275 l 1,1,-1
 -36 -275 l 1,2,-1
 -36 1289 l 1,3,-1
 36 1289 l 1,0,-1
EndSplineSet
EndChar

StartChar: zerowidthjoiner
Encoding: 8205 8205 176
Width: 0
GlyphClass: 2
Flags: W
LayerCount: 2
Fore
SplineSet
36 -275 m 1,0,-1
 -36 -275 l 1,1,-1
 -36 1114 l 1,2,-1
 -170 978 l 1,3,-1
 -219 1027 l 1,4,-1
 -48 1196 l 1,5,-1
 -219 1364 l 1,6,-1
 -170 1413 l 1,7,-1
 0 1242 l 1,8,-1
 170 1413 l 1,9,-1
 219 1364 l 1,10,-1
 48 1196 l 1,11,-1
 219 1027 l 1,12,-1
 170 978 l 1,13,-1
 36 1114 l 1,14,-1
 36 -275 l 1,0,-1
EndSplineSet
EndChar

StartChar: lefttorightmark
Encoding: 8206 8206 177
Width: 0
GlyphClass: 2
Flags: W
LayerCount: 2
Fore
SplineSet
430 1198 m 1,0,-1
 213 984 l 1,1,-1
 164 1033 l 1,2,-1
 301 1163 l 1,3,-1
 35 1163 l 1,4,-1
 35 -275 l 1,5,-1
 -36 -275 l 1,6,-1
 -36 1234 l 1,7,-1
 301 1234 l 1,8,-1
 164 1364 l 1,9,-1
 213 1413 l 1,10,-1
 430 1198 l 1,0,-1
EndSplineSet
EndChar

StartChar: righttoleftmark
Encoding: 8207 8207 178
Width: 0
GlyphClass: 2
Flags: W
LayerCount: 2
Fore
SplineSet
35 -275 m 1,0,-1
 -36 -275 l 1,1,-1
 -36 1163 l 1,2,-1
 -302 1163 l 1,3,-1
 -165 1033 l 1,4,-1
 -214 984 l 1,5,-1
 -431 1198 l 1,6,-1
 -214 1413 l 1,7,-1
 -165 1364 l 1,8,-1
 -302 1234 l 1,9,-1
 35 1234 l 1,10,-1
 35 -275 l 1,0,-1
EndSplineSet
EndChar

StartChar: afii57388.001
Encoding: 1644 1644 179
Width: 353
GlyphClass: 2
Flags: W
LayerCount: 2
Fore
SplineSet
210 654 m 0,0,1
 200 627 200 627 185 603 c 0,2,3
 180 597 180 597 173.5 593.5 c 128,-1,4
 167 590 167 590 162 590 c 128,-1,5
 157 590 157 590 154.5 593 c 128,-1,6
 152 596 152 596 155 603 c 0,7,8
 187 660 187 660 202.5 713.5 c 128,-1,9
 218 767 218 767 218 800 c 1,10,11
 194 806 194 806 179 816 c 128,-1,12
 164 826 164 826 155 837.5 c 128,-1,13
 146 849 146 849 143 859 c 128,-1,14
 140 869 140 869 140 874 c 0,15,16
 140 890 140 890 145.5 907 c 128,-1,17
 151 924 151 924 160.5 937.5 c 128,-1,18
 170 951 170 951 183.5 959.5 c 128,-1,19
 197 968 197 968 213 968 c 0,20,21
 272 968 272 968 272 874 c 0,22,23
 272 859 272 859 268 835 c 128,-1,24
 264 811 264 811 256 781.5 c 128,-1,25
 248 752 248 752 236.5 719.5 c 128,-1,26
 225 687 225 687 210 654 c 0,0,1
EndSplineSet
EndChar

StartChar: afii57409
Encoding: 1569 1569 180
Width: 828
GlyphClass: 2
Flags: W
AnchorPoint: "Anchor-1" 480 -330 basechar 0
AnchorPoint: "Anchor-0" 405 660 basechar 0
LayerCount: 2
Fore
SplineSet
753 120 m 1,0,-1
 166 -30 l 1,1,-1
 166 97 l 1,2,-1
 291 150 l 1,3,-1
 256 198 l 1,4,5
 237 235 237 235 237 291 c 0,6,7
 237 378 237 378 309.5 448 c 128,-1,8
 382 518 382 518 470 518 c 0,9,10
 586 518 586 518 651 456 c 1,11,-1
 614 343 l 1,12,13
 564 373 564 373 462 373 c 0,14,15
 433 373 433 373 398 355 c 0,16,17
 357 334 357 334 357 308 c 0,18,19
 357 264 357 264 417 242 c 0,20,21
 461 226 461 226 514 226 c 0,22,23
 542 226 542 226 753 295 c 1,24,-1
 753 120 l 1,0,-1
EndSplineSet
EndChar

StartChar: afii57440
Encoding: 1600 1600 181
Width: 695
GlyphClass: 2
Flags: W
LayerCount: 2
Fore
SplineSet
724 0 m 1,0,-1
 -29 0 l 1,1,-1
 -29 235 l 1,2,-1
 724 235 l 1,3,-1
 724 0 l 1,0,-1
EndSplineSet
EndChar

StartChar: afii57453
Encoding: 1613 1613 182
Width: 0
GlyphClass: 4
Flags: W
AnchorPoint: "Anchor-3" 0 0 mark 0
AnchorPoint: "Anchor-1" 0 0 mark 0
LayerCount: 2
Fore
SplineSet
226 -50 m 1,0,-1
 -234 -173 l 1,1,-1
 -252 -98 l 1,2,-1
 208 29 l 1,3,-1
 226 -50 l 1,0,-1
226 118 m 1,4,-1
 -234 -5 l 1,5,-1
 -252 70 l 1,6,-1
 208 197 l 1,7,-1
 226 118 l 1,4,-1
EndSplineSet
EndChar

StartChar: afii57455.001
Encoding: 65539 -1 183
Width: 596
GlyphClass: 4
Flags: W
LayerCount: 2
Fore
SplineSet
521 1690 m 0,0,1
 521 1581 521 1581 418 1497 c 1,2,-1
 484 1451 l 1,3,-1
 435 1398 l 1,4,5
 403 1417 403 1417 365 1460 c 1,6,7
 228 1364 228 1364 56 1328 c 1,8,-1
 25 1394 l 1,9,10
 214 1455 214 1455 292 1520 c 1,11,12
 250 1580 250 1580 250 1613 c 0,13,14
 250 1672 250 1672 299 1733.5 c 128,-1,15
 348 1795 348 1795 405 1795 c 0,16,17
 451 1795 451 1795 486 1765 c 128,-1,18
 521 1735 521 1735 521 1690 c 0,0,1
446 1659 m 0,19,20
 446 1715 446 1715 381 1715 c 0,21,22
 355 1715 355 1715 330 1685 c 128,-1,23
 305 1655 305 1655 305 1628 c 0,24,25
 305 1581 305 1581 366 1552 c 1,26,27
 446 1608 446 1608 446 1659 c 0,19,20
EndSplineSet
EndChar

StartChar: afii57458.001
Encoding: 65540 -1 184
Width: 465
GlyphClass: 4
Flags: W
LayerCount: 2
Fore
SplineSet
365 629 m 0,0,1
 365 561 365 561 323 512 c 0,2,3
 278 461 278 461 211 461 c 0,4,5
 153 461 153 461 115 498 c 128,-1,6
 77 535 77 535 77 592 c 0,7,8
 77 689 77 689 124 746 c 0,9,10
 161 793 161 793 206 793 c 0,11,12
 256 793 256 793 307 751 c 0,13,14
 365 701 365 701 365 629 c 0,0,1
301 621 m 0,15,16
 301 662 301 662 268 688 c 0,17,18
 238 712 238 712 195 712 c 0,19,20
 174 712 174 712 154 680.5 c 128,-1,21
 134 649 134 649 134 626 c 0,22,23
 134 553 134 553 213 553 c 0,24,25
 246 553 246 553 272 570 c 0,26,27
 301 589 301 589 301 621 c 0,15,16
EndSplineSet
EndChar

StartChar: afii57381
Encoding: 1642 1642 185
Width: 1044
GlyphClass: 2
Flags: W
LayerCount: 2
Fore
SplineSet
403 1085 m 1,0,-1
 245 936 l 1,1,-1
 88 1085 l 1,2,-1
 245 1232 l 1,3,-1
 403 1085 l 1,0,-1
793 1211 m 1,4,-1
 303 -139 l 1,5,-1
 197 -94 l 1,6,-1
 678 1256 l 1,7,-1
 793 1211 l 1,4,-1
954 56 m 1,8,-1
 796 -94 l 1,9,-1
 639 56 l 1,10,-1
 796 204 l 1,11,-1
 954 56 l 1,8,-1
EndSplineSet
EndChar

StartChar: afii57461
Encoding: 1643 1643 186
Width: 985
GlyphClass: 2
Flags: W
LayerCount: 2
Fore
SplineSet
118 -521 m 1,0,-1
 771 502 l 1,1,-1
 885 502 l 1,2,-1
 232 -521 l 1,3,-1
 118 -521 l 1,0,-1
EndSplineSet
EndChar

StartChar: afii63167
Encoding: 1645 1645 187
Width: 1118
GlyphClass: 2
Flags: W
LayerCount: 2
Fore
SplineSet
694 729 m 1,0,-1
 1057 733 l 1,1,-1
 1057 610 l 1,2,-1
 702 612 l 1,3,-1
 971 352 l 1,4,-1
 883 264 l 1,5,-1
 616 539 l 1,6,-1
 623 168 l 1,7,-1
 498 168 l 1,8,-1
 502 539 l 1,9,-1
 236 264 l 1,10,-1
 147 352 l 1,11,-1
 422 614 l 1,12,-1
 63 610 l 1,13,-1
 63 733 l 1,14,-1
 420 729 l 1,15,-1
 170 975 l 1,16,-1
 258 1065 l 1,17,-1
 502 817 l 1,18,-1
 498 1176 l 1,19,-1
 623 1176 l 1,20,-1
 616 813 l 1,21,-1
 860 1065 l 1,22,-1
 948 975 l 1,23,-1
 694 729 l 1,0,-1
EndSplineSet
EndChar

StartChar: afii57459
Encoding: 65541 -1 188
Width: 622
GlyphClass: 2
Flags: W
LayerCount: 2
Fore
SplineSet
571 359 m 0,0,1
 571 1 571 1 131 0 c 2,2,-1
 -70 0 l 1,3,-1
 -70 235 l 1,4,-1
 249 235 l 2,5,6
 420 235 420 235 420 353 c 1,7,8
 382 309 382 309 268 309 c 0,9,10
 73 309 73 309 73 493 c 0,11,12
 73 581 73 581 132 688 c 0,13,14
 204 818 204 818 304 818 c 0,15,16
 427 818 427 818 507 642 c 0,17,18
 571 499 571 499 571 359 c 0,0,1
373 526 m 1,19,20
 363 559 363 559 339 591 c 0,21,22
 309 628 309 628 279 628 c 0,23,24
 258 628 258 628 233 602 c 128,-1,25
 208 576 208 576 208 554 c 0,26,27
 208 482 208 482 285 482 c 0,28,29
 354 482 354 482 373 526 c 1,19,20
EndSplineSet
EndChar

StartChar: afii57543
Encoding: 65542 -1 189
Width: 509
Flags: W
LayerCount: 2
Fore
SplineSet
509 0 m 1,0,-1
 490 0 l 2,1,2
 346 1 346 1 300 106 c 1,3,4
 225 1 225 1 61 0 c 2,5,-1
 -70 0 l 1,6,-1
 -70 235 l 1,7,-1
 53 235 l 2,8,9
 207 235 207 235 207 342 c 2,10,-1
 207 422 l 1,11,-1
 374 477 l 1,12,-1
 374 427 l 2,13,14
 374 235 374 235 498 235 c 2,15,-1
 509 235 l 1,16,-1
 509 0 l 1,0,-1
EndSplineSet
EndChar

StartChar: afii57534
Encoding: 1749 1749 190
Width: 771
GlyphClass: 2
Flags: W
LayerCount: 2
Fore
SplineSet
710 284 m 0,0,1
 710 152 710 152 628 68 c 128,-1,2
 546 -16 546 -16 415 -16 c 0,3,4
 303 -16 303 -16 238 35 c 0,5,6
 165 91 165 91 165 199 c 0,7,8
 165 321 165 321 281 504 c 1,9,-1
 237 524 l 1,10,-1
 347 713 l 1,11,12
 497 660 497 660 597 553 c 0,13,14
 710 431 710 431 710 284 c 0,0,1
553 271 m 0,15,16
 553 364 553 364 400 438 c 1,17,18
 325 339 325 339 325 284 c 0,19,20
 325 202 325 202 421 202 c 0,21,22
 462 202 462 202 502 217 c 0,23,24
 553 237 553 237 553 271 c 0,15,16
EndSplineSet
EndChar

StartChar: afii64240
Encoding: 65543 -1 191
Width: 382
Flags: W
LayerCount: 2
Fore
SplineSet
333 173 m 1,0,-1
 209 9 l 1,1,-1
 40 121 l 1,2,-1
 164 287 l 1,3,-1
 333 173 l 1,0,-1
EndSplineSet
EndChar

StartChar: afii64241
Encoding: 65544 -1 192
Width: 640
Flags: W
LayerCount: 2
Fore
SplineSet
583 164 m 1,0,-1
 473 15 l 1,1,-1
 337 111 l 1,2,-1
 257 -1 l 1,3,-1
 85 116 l 1,4,-1
 195 265 l 1,5,-1
 339 166 l 1,6,-1
 418 278 l 1,7,-1
 583 164 l 1,0,-1
EndSplineSet
EndChar

StartChar: afii63954
Encoding: 65545 -1 193
Width: 662
Flags: W
LayerCount: 2
Fore
SplineSet
97 110 m 1,0,-1
 199 250 l 1,1,-1
 332 161 l 1,2,-1
 409 265 l 1,3,-1
 565 161 l 1,4,-1
 459 22 l 1,5,-1
 326 110 l 1,6,-1
 254 6 l 1,7,-1
 97 110 l 1,0,-1
176 356 m 1,8,-1
 279 492 l 1,9,-1
 423 395 l 1,10,-1
 322 258 l 1,11,-1
 176 356 l 1,8,-1
EndSplineSet
EndChar

StartChar: afii57382
Encoding: 65546 -1 194
Width: 586
Flags: W
LayerCount: 2
Fore
SplineSet
523 -111 m 1,0,-1
 421 -251 l 1,1,-1
 288 -162 l 1,2,-1
 211 -266 l 1,3,-1
 54 -162 l 1,4,-1
 161 -23 l 1,5,-1
 294 -111 l 1,6,-1
 366 -6 l 1,7,-1
 523 -111 l 1,0,-1
449 -356 m 1,8,-1
 346 -493 l 1,9,-1
 202 -395 l 1,10,-1
 303 -259 l 1,11,-1
 449 -356 l 1,8,-1
EndSplineSet
EndChar

StartChar: afii64242
Encoding: 65547 -1 195
Width: 436
Flags: W
LayerCount: 2
Fore
SplineSet
388 328 m 0,0,1
 388 168 388 168 289 82 c 0,2,3
 195 1 195 1 31 0 c 2,4,-1
 -70 0 l 1,5,-1
 -70 235 l 1,6,-1
 131 235 l 2,7,8
 236 235 236 235 236 287 c 0,9,10
 236 319 236 319 190 378 c 2,11,-1
 121 466 l 1,12,-1
 253 656 l 1,13,14
 388 521 388 521 388 328 c 0,0,1
EndSplineSet
EndChar

StartChar: afii62881
Encoding: 59416 59416 196
Width: 0
GlyphClass: 4
Flags: W
AnchorPoint: "Anchor-2" 0 0 mark 0
AnchorPoint: "Anchor-0" 0 0 mark 0
LayerCount: 2
Fore
SplineSet
228 422 m 1,0,-1
 -232 299 l 1,1,-1
 -250 374 l 1,2,-1
 210 501 l 1,3,-1
 228 422 l 1,0,-1
228 590 m 1,4,-1
 -232 467 l 1,5,-1
 -250 542 l 1,6,-1
 210 669 l 1,7,-1
 228 590 l 1,4,-1
199 302 m 1,8,9
 218 239 218 239 218 183 c 0,10,11
 218 25 218 25 93 25 c 0,12,13
 37 25 37 25 -1 112 c 1,14,15
 -68 -14 -68 -14 -149 -14 c 256,16,17
 -230 -14 -230 -14 -230 83 c 0,18,19
 -230 147 -230 147 -191 217 c 1,20,-1
 -147 217 l 1,21,22
 -162 164 -162 164 -162 136 c 0,23,24
 -162 89 -162 89 -113 89 c 0,25,26
 -40 89 -40 89 -18 244 c 1,27,-1
 37 265 l 1,28,29
 41 197 41 197 45 176 c 0,30,31
 59 125 59 125 104 125 c 0,32,33
 157 125 157 125 157 195 c 0,34,35
 157 231 157 231 142 283 c 1,36,-1
 199 302 l 1,8,9
EndSplineSet
Ligature2: "'ccmp' Glyph Composition/Decomposition in Arabic lookup 4 subtable" afii57457 afii57451
EndChar

StartChar: afii57373
Encoding: 65548 -1 200
Width: 484
Flags: W
LayerCount: 2
Fore
SplineSet
455 605 m 1,0,-1
 38 483 l 1,1,-1
 43 549 l 1,2,-1
 142 602 l 1,3,4
 90 653 90 653 90 705 c 0,5,6
 90 766 90 766 140 816 c 128,-1,7
 190 866 190 866 251 866 c 0,8,9
 331 866 331 866 376 823 c 1,10,-1
 351 759 l 1,11,12
 312 775 312 775 248 775 c 0,13,14
 222 775 222 775 194 761 c 0,15,16
 161 744 161 744 161 721 c 0,17,18
 161 651 161 651 284 651 c 0,19,20
 300 651 300 651 451 697 c 1,21,-1
 455 605 l 1,0,-1
EndSplineSet
EndChar

StartChar: afii57374
Encoding: 65549 -1 201
Width: 677
GlyphClass: 2
Flags: W
LayerCount: 2
Fore
SplineSet
677 0 m 1,0,-1
 608 0 l 2,1,2
 432 1 432 1 322 81 c 1,3,4
 279 50 279 50 203.5 25 c 128,-1,5
 128 0 128 0 75 0 c 2,6,-1
 -70 0 l 1,7,-1
 -70 235 l 1,8,-1
 152 235 l 1,9,10
 113 280 113 280 113 364 c 0,11,12
 113 478 113 478 214 584 c 0,13,14
 309 683 309 683 394 683 c 0,15,16
 481 683 481 683 533 588 c 0,17,18
 575 509 575 509 575 414 c 0,19,20
 575 300 575 300 495 235 c 1,21,-1
 677 235 l 1,22,-1
 677 0 l 1,0,-1
440 389 m 0,23,24
 440 422 440 422 414 444 c 128,-1,25
 388 466 388 466 355 466 c 0,26,27
 321 466 321 466 286 437 c 128,-1,28
 251 408 251 408 251 375 c 0,29,30
 251 349 251 349 280 327.5 c 128,-1,31
 309 306 309 306 336 306 c 0,32,33
 366 306 366 306 403 333 c 128,-1,34
 440 360 440 360 440 389 c 0,23,24
EndSplineSet
EndChar

StartChar: afii57375
Encoding: 1619 1619 202
Width: 772
GlyphClass: 2
Flags: W
LayerCount: 2
Fore
SplineSet
704 1295 m 1,0,1
 665 1224 665 1224 592 1184 c 0,2,3
 527 1148 527 1148 461 1148 c 0,4,5
 421 1148 421 1148 343 1162 c 128,-1,6
 265 1176 265 1176 226 1176 c 0,7,8
 144 1176 144 1176 89 1121 c 1,9,-1
 18 1218 l 1,10,11
 97 1318 97 1318 204 1318 c 0,12,13
 242 1318 242 1318 318.5 1305.5 c 128,-1,14
 395 1293 395 1293 434 1293 c 0,15,16
 577 1293 577 1293 655 1390 c 1,17,-1
 704 1295 l 1,0,1
EndSplineSet
EndChar

StartChar: afii57471
Encoding: 65550 -1 203
Width: 1733
Flags: W
LayerCount: 2
Fore
SplineSet
1733 0 m 1,0,-1
 1694 0 l 2,1,2
 1542 1 1542 1 1485 119 c 1,3,4
 1408 17 1408 17 1143 -28 c 0,5,6
 968 -58 968 -58 759 -58 c 0,7,8
 165 -58 165 -58 165 291 c 0,9,10
 165 395 165 395 242 548 c 1,11,-1
 393 501 l 1,12,13
 349 405 349 405 349 364 c 0,14,15
 349 279 349 279 414 238 c 0,16,17
 510 178 510 178 770 178 c 2,18,-1
 858 178 l 2,19,20
 1072 178 1072 178 1173 193 c 0,21,22
 1411 228 1411 228 1411 342 c 2,23,-1
 1411 394 l 1,24,-1
 1578 449 l 1,25,-1
 1578 401 l 2,26,27
 1578 307 1578 307 1607 273 c 0,28,29
 1639 235 1639 235 1730 235 c 2,30,-1
 1733 235 l 1,31,-1
 1733 0 l 1,0,-1
EndSplineSet
EndChar

StartChar: afii52258
Encoding: 65551 -1 204
Width: 1766
GlyphClass: 2
Flags: W
LayerCount: 2
Fore
SplineSet
1766 0 m 1,0,-1
 1678 0 l 2,1,2
 1612 0 1612 0 1539 29 c 1,3,4
 1453 57 1453 57 1413 93 c 1,5,6
 1351 45 1351 45 1212 4 c 0,7,8
 1012 -55 1012 -55 765 -55 c 0,9,10
 171 -55 171 -55 171 293 c 0,11,12
 171 398 171 398 248 551 c 1,13,-1
 399 504 l 1,14,15
 355 408 355 408 355 367 c 0,16,17
 355 282 355 282 420 241 c 0,18,19
 517 180 517 180 776 180 c 2,20,-1
 864 180 l 2,21,22
 992 180 992 180 1112 200 c 0,23,24
 1213 217 1213 217 1241 235 c 1,25,26
 1199 282 1199 282 1199 378 c 0,27,28
 1199 490 1199 490 1302 597 c 0,29,30
 1399 697 1399 697 1483 697 c 0,31,32
 1570 697 1570 697 1624 602 c 0,33,34
 1670 521 1670 521 1670 427 c 0,35,36
 1670 303 1670 303 1584 235 c 1,37,-1
 1766 235 l 1,38,-1
 1766 0 l 1,0,-1
1535 403 m 0,39,40
 1535 436 1535 436 1506 458 c 128,-1,41
 1477 480 1477 480 1444 480 c 0,42,43
 1409 480 1409 480 1373 451.5 c 128,-1,44
 1337 423 1337 423 1337 389 c 0,45,46
 1337 363 1337 363 1369 341 c 0,47,48
 1398 320 1398 320 1425 320 c 0,49,50
 1455 320 1455 320 1495 347.5 c 128,-1,51
 1535 375 1535 375 1535 403 c 0,39,40
EndSplineSet
EndChar

StartChar: afii62889
Encoding: 65552 -1 210
Width: 1302
Flags: W
LayerCount: 2
Fore
SplineSet
1302 0 m 1,0,-1
 1169 0 l 1,1,2
 1148 -173 1148 -173 1029 -308 c 0,3,4
 876 -481 876 -481 627 -481 c 256,5,6
 378 -481 378 -481 252 -329 c 0,7,8
 149 -205 149 -205 149 -16 c 0,9,10
 149 153 149 153 223 306 c 1,11,-1
 386 246 l 1,12,13
 339 129 339 129 339 29 c 0,14,15
 339 -105 339 -105 427 -179 c 0,16,17
 510 -247 510 -247 647 -247 c 0,18,19
 843 -247 843 -247 953 -136 c 0,20,21
 1029 -60 1029 -60 1029 1 c 1,22,-1
 971 1 l 2,23,24
 826 1 826 1 759 37 c 0,25,26
 669 87 669 87 669 218 c 0,27,28
 669 315 669 315 722 417 c 0,29,30
 789 546 789 546 894 546 c 0,31,32
 1009 546 1009 546 1087 440 c 0,33,34
 1152 352 1152 352 1167 235 c 1,35,-1
 1302 235 l 1,36,-1
 1302 0 l 1,0,-1
1004 207 m 1,37,38
 1000 253 1000 253 970 298 c 0,39,40
 935 348 935 348 892 348 c 0,41,42
 869 348 869 348 842 325 c 128,-1,43
 815 302 815 302 815 279 c 0,44,45
 815 228 815 228 861 214 c 0,46,47
 883 207 883 207 952 207 c 2,48,-1
 1004 207 l 1,37,38
EndSplineSet
EndChar

StartChar: afii62887
Encoding: 65553 -1 211
Width: 1692
Flags: W
LayerCount: 2
Fore
SplineSet
1650 372 m 0,0,1
 1650 -55 1650 -55 759 -55 c 0,2,3
 165 -55 165 -55 165 293 c 0,4,5
 165 398 165 398 242 551 c 1,6,-1
 393 504 l 1,7,8
 349 408 349 408 349 367 c 0,9,10
 349 282 349 282 414 241 c 0,11,12
 511 180 511 180 770 180 c 2,13,-1
 894 180 l 2,14,15
 1114 180 1114 180 1308 234 c 0,16,17
 1488 284 1488 284 1488 331 c 0,18,19
 1488 367 1488 367 1386 496 c 1,20,-1
 1518 686 l 1,21,22
 1650 551 1650 551 1650 372 c 0,0,1
EndSplineSet
EndChar

StartChar: afii62888
Encoding: 1697 1697 212
Width: 1682
GlyphClass: 2
Flags: W
LayerCount: 2
Fore
SplineSet
1630 403 m 0,0,1
 1630 -55 1630 -55 739 -55 c 0,2,3
 145 -55 145 -55 145 293 c 0,4,5
 145 398 145 398 222 551 c 1,6,-1
 373 504 l 1,7,8
 329 408 329 408 329 367 c 0,9,10
 329 282 329 282 394 241 c 0,11,12
 491 180 491 180 750 180 c 2,13,-1
 874 180 l 2,14,15
 1122 180 1122 180 1302 234 c 0,16,17
 1496 292 1496 292 1490 381 c 1,18,19
 1452 337 1452 337 1339 337 c 0,20,21
 1249 337 1249 337 1196 385 c 128,-1,22
 1143 433 1143 433 1143 521 c 0,23,24
 1143 608 1143 608 1202 715 c 0,25,26
 1274 845 1274 845 1374 845 c 0,27,28
 1498 845 1498 845 1572 677 c 0,29,30
 1630 544 1630 544 1630 403 c 0,0,1
1443 554 m 1,31,32
 1433 588 1433 588 1409 619 c 0,33,34
 1380 656 1380 656 1350 656 c 0,35,36
 1329 656 1329 656 1303.5 629.5 c 128,-1,37
 1278 603 1278 603 1278 581 c 0,38,39
 1278 510 1278 510 1355 510 c 0,40,41
 1423 510 1423 510 1443 554 c 1,31,32
EndSplineSet
Substitution2: "'fina' Terminal Forms in Arabic lookup 3 subtable" afii52258
Substitution2: "'medi' Medial Forms in Arabic lookup 2 subtable" afii57374
Substitution2: "'init' Initial Forms in Arabic lookup 0 subtable" afii57459
EndChar

StartChar: afii57567
Encoding: 1705 1705 219
Width: 1882
GlyphClass: 2
Flags: W
AnchorPoint: "Anchor-1" 750 -465 basechar 0
AnchorPoint: "Anchor-0" 750 1125 basechar 0
LayerCount: 2
Fore
SplineSet
1891 1280 m 1,0,-1
 1860 1041 l 1,1,2
 1707 1006 1707 1006 1578 972 c 0,3,4
 1276 893 1276 893 1170 844 c 0,5,6
 1138 829 1138 829 1160 812 c 0,7,8
 1348 669 1348 669 1372 647 c 0,9,10
 1539 492 1539 492 1539 364 c 0,11,12
 1539 -57 1539 -57 748 -57 c 0,13,14
 125 -57 125 -57 125 306 c 0,15,16
 125 421 125 421 205 579 c 1,17,-1
 364 529 l 1,18,19
 318 430 318 430 318 386 c 0,20,21
 318 295 318 295 386 249 c 0,22,23
 489 180 489 180 760 180 c 2,24,-1
 803 180 l 2,25,26
 967 180 967 180 1114 201 c 0,27,28
 1368 237 1368 237 1368 320 c 0,29,30
 1368 399 1368 399 1185 542 c 0,31,32
 985 698 985 698 964 749 c 1,33,34
 966 802 966 802 988 875 c 0,35,36
 1013 957 1013 957 1035 969 c 0,37,38
 1294 1105 1294 1105 1891 1280 c 1,0,-1
EndSplineSet
Substitution2: "'fina' Terminal Forms in Arabic lookup 3 subtable" afii62964
Substitution2: "'medi' Medial Forms in Arabic lookup 2 subtable" afii52306
Substitution2: "'init' Initial Forms in Arabic lookup 0 subtable" afii52305
EndChar

StartChar: afii62964
Encoding: 64399 64399 220
Width: 1969
GlyphClass: 2
Flags: W
AnchorPoint: "Anchor-1" 735 -525 basechar 0
AnchorPoint: "Anchor-0" 660 1140 basechar 0
LayerCount: 2
Fore
SplineSet
1969 0 m 1,0,-1
 1873 0 l 2,1,2
 1749 1 1749 1 1621 88 c 0,3,4
 1511 163 1511 163 1430 279 c 1,5,6
 1430 -55 1430 -55 716 -55 c 0,7,8
 121 -55 121 -55 121 293 c 0,9,10
 121 398 121 398 198 551 c 1,11,-1
 349 504 l 1,12,13
 305 408 305 408 305 367 c 0,14,15
 305 282 305 282 370 241 c 0,16,17
 467 180 467 180 726 180 c 2,18,-1
 767 180 l 2,19,20
 928 180 928 180 1068 206 c 0,21,22
 1301 248 1301 248 1301 345 c 0,23,24
 1301 409 1301 409 1169 528 c 0,25,26
 1021 662 1021 662 1001 711 c 1,27,28
 1004 765 1004 765 1021 831 c 0,29,30
 1041 910 1041 910 1064 922 c 0,31,32
 1321 1057 1321 1057 1966 1258 c 1,33,-1
 1939 1030 l 1,34,35
 1779 988 1779 988 1666 956 c 0,36,37
 1361 869 1361 869 1196 801 c 0,38,39
 1160 786 1160 786 1186 766 c 0,40,41
 1348 639 1348 639 1521 471 c 0,42,43
 1659 338 1659 338 1705 305 c 0,44,45
 1804 235 1804 235 1917 235 c 2,46,-1
 1969 235 l 1,47,-1
 1969 0 l 1,0,-1
EndSplineSet
EndChar

StartChar: afii52305
Encoding: 64400 64400 221
Width: 966
GlyphClass: 2
Flags: W
AnchorPoint: "Anchor-1" 285 -480 basechar 0
AnchorPoint: "Anchor-0" 225 1335 basechar 0
LayerCount: 2
Fore
SplineSet
982 1280 m 1,0,-1
 952 1041 l 1,1,2
 821 1011 821 1011 670 971 c 0,3,4
 367 891 367 891 262 844 c 0,5,6
 227 828 227 828 250 812 c 0,7,8
 292 783 292 783 376 723 c 0,9,10
 479 648 479 648 545 566 c 0,11,12
 630 461 630 461 630 364 c 0,13,14
 630 144 630 144 474 61 c 0,15,16
 361 0 361 0 113 0 c 2,17,-1
 -70 0 l 1,18,-1
 -70 235 l 1,19,-1
 119 235 l 2,20,21
 460 235 460 235 460 320 c 0,22,23
 460 399 460 399 278 542 c 0,24,25
 77 700 77 700 55 749 c 1,26,27
 57 798 57 798 80 875 c 0,28,29
 105 957 105 957 127 969 c 0,30,31
 388 1106 388 1106 982 1280 c 1,0,-1
EndSplineSet
EndChar

StartChar: afii52306
Encoding: 64401 64401 222
Width: 1065
GlyphClass: 2
Flags: W
AnchorPoint: "Anchor-1" 480 -525 basechar 0
AnchorPoint: "Anchor-0" 345 1245 basechar 0
LayerCount: 2
Fore
SplineSet
1065 0 m 1,0,-1
 981 0 l 2,1,2
 861 1 861 1 736 82 c 0,3,4
 627 153 627 153 548 262 c 1,5,6
 513 1 513 1 78 0 c 2,7,-1
 -70 0 l 1,8,-1
 -70 235 l 1,9,-1
 72 235 l 2,10,11
 224 235 224 235 276 242 c 0,12,13
 421 261 421 261 421 331 c 0,14,15
 421 396 421 396 277 522 c 0,16,17
 119 660 119 660 99 711 c 1,18,19
 102 765 102 765 119 831 c 0,20,21
 139 910 139 910 163 922 c 0,22,23
 421 1057 421 1057 1065 1258 c 1,24,-1
 1037 1024 l 1,25,26
 878 985 878 985 763 953 c 0,27,28
 459 869 459 869 294 801 c 0,29,30
 258 786 258 786 284 766 c 0,31,32
 449 641 449 641 619 471 c 0,33,34
 756 334 756 334 806 300 c 0,35,36
 901 235 901 235 1015 235 c 2,37,-1
 1065 235 l 1,38,-1
 1065 0 l 1,0,-1
EndSplineSet
EndChar

StartChar: afii57509
Encoding: 1711 1711 223
Width: 1943
GlyphClass: 2
Flags: W
AnchorPoint: "Anchor-1" 795 -540 basechar 0
AnchorPoint: "Anchor-0" 705 1050 basechar 0
LayerCount: 2
Fore
SplineSet
1944 1483 m 1,0,-1
 1931 1367 l 1,1,2
 1730 1304 1730 1304 1594 1259 c 0,3,4
 1231 1139 1231 1139 1089 1074 c 1,5,-1
 1117 1184 l 1,6,7
 1301 1270 1301 1270 1944 1483 c 1,0,-1
1931 1266 m 1,8,-1
 1900 1041 l 1,9,10
 1743 1004 1743 1004 1623 972 c 0,11,12
 1323 892 1323 892 1220 844 c 0,13,14
 1184 827 1184 827 1209 811 c 0,15,16
 1579 573 1579 573 1579 364 c 0,17,18
 1579 -57 1579 -57 788 -57 c 0,19,20
 165 -57 165 -57 165 306 c 0,21,22
 165 421 165 421 245 579 c 1,23,-1
 404 529 l 1,24,25
 358 430 358 430 358 386 c 0,26,27
 358 295 358 295 426 249 c 0,28,29
 529 180 529 180 800 180 c 2,30,-1
 843 180 l 2,31,32
 1007 180 1007 180 1154 201 c 0,33,34
 1408 237 1408 237 1408 320 c 0,35,36
 1408 388 1408 388 1315 474 c 0,37,38
 1290 497 1290 497 1132 618 c 0,39,40
 1024 701 1024 701 1004 749 c 1,41,42
 1006 793 1006 793 1025 861 c 0,43,44
 1049 941 1049 941 1075 955 c 0,45,46
 1337 1093 1337 1093 1931 1266 c 1,8,-1
EndSplineSet
Substitution2: "'fina' Terminal Forms in Arabic lookup 3 subtable" afii62967
Substitution2: "'medi' Medial Forms in Arabic lookup 2 subtable" afii62966
Substitution2: "'init' Initial Forms in Arabic lookup 0 subtable" afii62965
EndChar

StartChar: afii62967
Encoding: 64403 64403 224
Width: 2013
GlyphClass: 2
Flags: W
AnchorPoint: "Anchor-1" 765 -585 basechar 0
AnchorPoint: "Anchor-0" 720 1245 basechar 0
LayerCount: 2
Fore
SplineSet
2024 1442 m 1,0,-1
 2010 1328 l 1,1,2
 1812 1268 1812 1268 1647 1216 c 0,3,4
 1258 1092 1258 1092 1122 1029 c 1,5,-1
 1150 1142 l 1,6,7
 1311 1223 1311 1223 2024 1442 c 1,0,-1
2013 0 m 1,8,-1
 1917 0 l 2,9,10
 1798 1 1798 1 1668 91 c 0,11,12
 1560 166 1560 166 1474 279 c 1,13,14
 1474 103 1474 103 1253 17 c 0,15,16
 1069 -55 1069 -55 760 -55 c 0,17,18
 165 -55 165 -55 165 293 c 0,19,20
 165 398 165 398 242 551 c 1,21,-1
 393 504 l 1,22,23
 349 408 349 408 349 367 c 0,24,25
 349 282 349 282 414 241 c 0,26,27
 511 180 511 180 770 180 c 2,28,-1
 811 180 l 2,29,30
 972 180 972 180 1112 206 c 0,31,32
 1345 248 1345 248 1345 345 c 0,33,34
 1345 412 1345 412 1213 530 c 0,35,36
 1065 662 1065 662 1045 711 c 1,37,38
 1048 766 1048 766 1064 825 c 0,39,40
 1083 896 1083 896 1108 909 c 0,41,42
 1370 1046 1370 1046 2010 1244 c 1,43,-1
 1983 1030 l 1,44,45
 1823 988 1823 988 1710 956 c 0,46,47
 1410 870 1410 870 1240 801 c 0,48,49
 1217 792 1217 792 1217 782 c 0,50,51
 1217 775 1217 775 1230 766 c 0,52,53
 1372 665 1372 665 1565 471 c 0,54,55
 1702 333 1702 333 1755 297 c 0,56,57
 1846 235 1846 235 1961 235 c 2,58,-1
 2013 235 l 1,59,-1
 2013 0 l 1,8,-1
EndSplineSet
EndChar

StartChar: afii62965
Encoding: 64404 64404 225
Width: 987
GlyphClass: 2
Flags: W
AnchorPoint: "Anchor-1" 270 -510 basechar 0
AnchorPoint: "Anchor-0" 240 1425 basechar 0
LayerCount: 2
Fore
SplineSet
996 1483 m 1,0,-1
 982 1367 l 1,1,2
 777 1303 777 1303 644 1259 c 0,3,4
 283 1139 283 1139 141 1074 c 1,5,-1
 168 1184 l 1,6,7
 352 1270 352 1270 996 1483 c 1,0,-1
982 1266 m 1,8,-1
 952 1041 l 1,9,10
 609 957 609 957 601 955 c 0,11,12
 397 901 397 901 262 840 c 0,13,14
 225 823 225 823 250 807 c 0,15,16
 630 561 630 561 630 364 c 0,17,18
 630 151 630 151 489 67 c 0,19,20
 378 1 378 1 146 0 c 2,21,-1
 -70 0 l 1,22,-1
 -70 235 l 1,23,-1
 154 235 l 2,24,25
 300 235 300 235 362 247 c 0,26,27
 460 266 460 266 460 320 c 0,28,29
 460 393 460 393 278 538 c 0,30,31
 76 699 76 699 55 749 c 1,32,33
 57 791 57 791 77 860 c 0,34,35
 102 942 102 942 127 955 c 0,36,37
 388 1092 388 1092 982 1266 c 1,8,-1
EndSplineSet
EndChar

StartChar: afii62966
Encoding: 64405 64405 226
Width: 1065
GlyphClass: 2
Flags: W
AnchorPoint: "Anchor-1" 435 -540 basechar 0
AnchorPoint: "Anchor-0" 375 1455 basechar 0
LayerCount: 2
Fore
SplineSet
1078 1442 m 1,0,-1
 1065 1328 l 1,1,2
 881 1273 881 1273 702 1216 c 0,3,4
 310 1091 310 1091 176 1029 c 1,5,-1
 204 1142 l 1,6,7
 365 1223 365 1223 1078 1442 c 1,0,-1
1065 0 m 1,8,-1
 971 0 l 2,9,10
 855 1 855 1 728 92 c 0,11,12
 616 172 616 172 545 281 c 1,13,14
 545 116 545 116 406 50 c 0,15,16
 303 1 303 1 97 0 c 2,17,-1
 -70 0 l 1,18,-1
 -70 235 l 1,19,-1
 100 235 l 2,20,21
 251 235 251 235 286 240 c 0,22,23
 416 260 416 260 416 339 c 0,24,25
 416 401 416 401 275 524 c 0,26,27
 120 659 120 659 99 711 c 1,28,29
 102 761 102 761 119 824 c 0,30,31
 139 896 139 896 163 909 c 0,32,33
 423 1045 423 1045 1065 1244 c 1,34,-1
 1037 1030 l 1,35,36
 869 986 869 986 763 956 c 0,37,38
 463 870 463 870 294 801 c 0,39,40
 257 786 257 786 284 766 c 0,41,42
 409 673 409 673 619 471 c 0,43,44
 779 317 779 317 801 301 c 0,45,46
 893 235 893 235 1015 235 c 2,47,-1
 1065 235 l 1,48,-1
 1065 0 l 1,8,-1
EndSplineSet
EndChar

StartChar: afii57555
Encoding: 1740 1740 227
Width: 1382
GlyphClass: 2
Flags: W
AnchorPoint: "Anchor-1" 630 -870 basechar 0
AnchorPoint: "Anchor-0" 555 855 basechar 0
LayerCount: 2
Fore
SplineSet
1331 645 m 1,0,-1
 1278 444 l 1,1,2
 1220 469 1220 469 1108 469 c 0,3,4
 1016 469 1016 469 944 414 c 0,5,6
 880 365 880 365 880 318 c 0,7,8
 880 292 880 292 907 284 c 0,9,10
 926 278 926 278 1086 265 c 0,11,12
 1295 248 1295 248 1295 97 c 0,13,14
 1295 -120 1295 -120 1093 -263 c 0,15,16
 905 -396 905 -396 651 -396 c 0,17,18
 137 -396 137 -396 137 37 c 0,19,20
 137 197 137 197 234 364 c 1,21,-1
 396 309 l 1,22,23
 330 205 330 205 330 92 c 0,24,25
 330 -162 330 -162 679 -162 c 0,26,27
 770 -162 770 -162 885 -132 c 0,28,29
 1045 -90 1045 -90 1124 -11 c 0,30,31
 1142 7 1142 7 1142 24 c 0,32,33
 1142 52 1142 52 1105 56 c 0,34,35
 1062 61 1062 61 841 79 c 1,36,37
 701 107 701 107 701 238 c 0,38,39
 701 407 701 407 844 552 c 128,-1,40
 987 697 987 697 1155 697 c 0,41,42
 1217 697 1217 697 1248 688 c 128,-1,43
 1279 679 1279 679 1331 645 c 1,0,-1
EndSplineSet
Substitution2: "'fina' Terminal Forms in Arabic lookup 3 subtable" afii52364
Substitution2: "'medi' Medial Forms in Arabic lookup 2 subtable" afii62832
Substitution2: "'init' Initial Forms in Arabic lookup 0 subtable" uniFBFE
EndChar

StartChar: afii52364
Encoding: 64509 64509 228
Width: 1240
GlyphClass: 2
Flags: W
AnchorPoint: "Anchor-1" 570 -960 basechar 0
AnchorPoint: "Anchor-0" 540 630 basechar 0
LayerCount: 2
Fore
SplineSet
1240 0 m 1,0,-1
 1211 0 l 1,1,2
 1146 5 1146 5 997 15 c 0,3,4
 968 17 968 17 957 17 c 0,5,6
 857 17 857 17 857 -13 c 0,7,8
 857 -32 857 -32 897 -38 c 0,9,10
 968 -49 968 -49 1110 -70 c 1,11,12
 1221 -101 1221 -101 1221 -187 c 0,13,14
 1221 -293 1221 -293 1072 -398 c 0,15,16
 895 -522 895 -522 637 -522 c 0,17,18
 358 -522 358 -522 228 -382 c 0,19,20
 124 -270 124 -270 124 -82 c 0,21,22
 124 76 124 76 218 238 c 1,23,-1
 374 183 l 1,24,25
 353 148 353 148 333 79 c 0,26,27
 311 7 311 7 311 -30 c 0,28,29
 311 -286 311 -286 649 -286 c 0,30,31
 885 -286 885 -286 999 -239 c 0,32,33
 1034 -225 1034 -225 1034 -213 c 0,34,35
 1034 -202 1034 -202 1004 -198 c 0,36,37
 982 -195 982 -195 815 -176 c 1,38,39
 669 -141 669 -141 669 -44 c 0,40,41
 669 95 669 95 852 174 c 0,42,43
 995 235 995 235 1155 235 c 2,44,-1
 1240 235 l 1,45,-1
 1240 0 l 1,0,-1
EndSplineSet
EndChar

StartChar: afii62882
Encoding: 64606 64606 229
Width: 0
GlyphClass: 4
Flags: W
AnchorPoint: "Anchor-2" 0 0 mark 0
AnchorPoint: "Anchor-0" 0 0 mark 0
LayerCount: 2
Fore
SplineSet
262 709 m 0,0,1
 262 603 262 603 162 518 c 1,2,-1
 228 473 l 1,3,-1
 177 416 l 1,4,5
 128 445 128 445 101 473 c 1,6,7
 -37 383 -37 383 -202 345 c 1,8,-1
 -235 412 l 1,9,10
 -224 416 -224 416 -207 424 c 1,11,12
 -141 481 -141 481 -141 532 c 0,13,14
 -141 561 -141 561 -177 561 c 0,15,16
 -201 561 -201 561 -238 536 c 1,17,-1
 -258 581 l 1,18,19
 -222 623 -222 623 -156 623 c 0,20,21
 -75 623 -75 623 -75 558 c 0,22,23
 -75 500 -75 500 -124 452 c 0,24,25
 -125 448 -125 448 -119 446 c 0,26,27
 -8 481 -8 481 40 524 c 1,28,29
 -7 581 -7 581 -7 629 c 0,30,31
 -7 687 -7 687 40 747 c 0,32,33
 90 811 90 811 147 811 c 0,34,35
 192 811 192 811 227 782 c 128,-1,36
 262 753 262 753 262 709 c 0,0,1
190 678 m 0,37,38
 190 734 190 734 125 734 c 0,39,40
 102 734 102 734 78.5 706 c 128,-1,41
 55 678 55 678 55 655 c 0,42,43
 55 600 55 600 106 573 c 1,44,45
 190 614 190 614 190 678 c 0,37,38
216 313 m 1,46,47
 235 250 235 250 235 194 c 0,48,49
 235 36 235 36 110 36 c 0,50,51
 54 36 54 36 16 123 c 1,52,53
 -51 -3 -51 -3 -132 -3 c 256,54,55
 -213 -3 -213 -3 -213 94 c 0,56,57
 -213 158 -213 158 -174 228 c 1,58,-1
 -130 228 l 1,59,60
 -145 175 -145 175 -145 147 c 0,61,62
 -145 100 -145 100 -96 100 c 0,63,64
 -23 100 -23 100 -1 255 c 1,65,-1
 54 276 l 1,66,67
 58 208 58 208 62 187 c 0,68,69
 76 136 76 136 121 136 c 0,70,71
 174 136 174 136 174 206 c 0,72,73
 174 242 174 242 159 294 c 1,74,-1
 216 313 l 1,46,47
EndSplineSet
Ligature2: "'ccmp' Glyph Composition/Decomposition in Arabic lookup 4 subtable" afii57457 afii57452
EndChar

StartChar: afii62883
Encoding: 64607 64607 230
Width: 0
GlyphClass: 4
Flags: W
AnchorPoint: "Anchor-2" 0 0 mark 0
AnchorPoint: "Anchor-0" 0 0 mark 0
LayerCount: 2
Fore
SplineSet
258 129 m 1,0,-1
 -202 6 l 1,1,-1
 -220 81 l 1,2,-1
 240 208 l 1,3,-1
 258 129 l 1,0,-1
258 297 m 1,4,-1
 -202 174 l 1,5,-1
 -220 249 l 1,6,-1
 240 376 l 1,7,-1
 258 297 l 1,4,-1
218 727 m 1,8,9
 237 664 237 664 237 608 c 0,10,11
 237 450 237 450 112 450 c 0,12,13
 56 450 56 450 18 537 c 1,14,15
 -49 411 -49 411 -130 411 c 256,16,17
 -211 411 -211 411 -211 508 c 0,18,19
 -211 572 -211 572 -172 642 c 1,20,-1
 -128 642 l 1,21,22
 -143 589 -143 589 -143 561 c 0,23,24
 -143 514 -143 514 -94 514 c 0,25,26
 -21 514 -21 514 1 669 c 1,27,-1
 56 690 l 1,28,29
 60 622 60 622 64 601 c 0,30,31
 78 550 78 550 123 550 c 0,32,33
 176 550 176 550 176 620 c 0,34,35
 176 656 176 656 161 708 c 1,36,-1
 218 727 l 1,8,9
EndSplineSet
Ligature2: "'ccmp' Glyph Composition/Decomposition in Arabic lookup 4 subtable" afii57457 afii57453
EndChar

StartChar: afii62884
Encoding: 64608 64608 231
Width: 0
GlyphClass: 4
Flags: W
AnchorPoint: "Anchor-2" 0 0 mark 0
AnchorPoint: "Anchor-0" 0 0 mark 0
LayerCount: 2
Fore
SplineSet
252 461 m 1,0,-1
 -208 339 l 1,1,-1
 -226 413 l 1,2,-1
 234 540 l 1,3,-1
 252 461 l 1,0,-1
216 313 m 1,4,5
 235 250 235 250 235 194 c 0,6,7
 235 36 235 36 110 36 c 0,8,9
 54 36 54 36 16 123 c 1,10,11
 -51 -3 -51 -3 -132 -3 c 256,12,13
 -213 -3 -213 -3 -213 94 c 0,14,15
 -213 158 -213 158 -174 228 c 1,16,-1
 -130 228 l 1,17,18
 -145 175 -145 175 -145 147 c 0,19,20
 -145 100 -145 100 -96 100 c 0,21,22
 -23 100 -23 100 -1 255 c 1,23,-1
 54 276 l 1,24,25
 58 208 58 208 62 187 c 0,26,27
 76 136 76 136 121 136 c 0,28,29
 174 136 174 136 174 206 c 0,30,31
 174 242 174 242 159 294 c 1,32,-1
 216 313 l 1,4,5
EndSplineSet
Ligature2: "'ccmp' Glyph Composition/Decomposition in Arabic lookup 4 subtable" afii57457 afii57454
EndChar

StartChar: afii62885
Encoding: 64609 64609 232
Width: 0
GlyphClass: 4
Flags: W
AnchorPoint: "Anchor-2" 0 0 mark 0
AnchorPoint: "Anchor-0" 0 0 mark 0
LayerCount: 2
Fore
SplineSet
215 702 m 0,0,1
 215 593 215 593 112 509 c 1,2,-1
 178 463 l 1,3,-1
 129 410 l 1,4,5
 97 429 97 429 59 472 c 1,6,7
 -78 376 -78 376 -250 340 c 1,8,-1
 -281 406 l 1,9,10
 -109 454 -109 454 5 524 c 1,11,12
 -56 592 -56 592 -56 625 c 0,13,14
 -56 684 -56 684 -7 745.5 c 128,-1,15
 42 807 42 807 99 807 c 0,16,17
 145 807 145 807 180 777 c 128,-1,18
 215 747 215 747 215 702 c 0,0,1
140 671 m 0,19,20
 140 728 140 728 75 728 c 0,21,22
 49 728 49 728 24 697.5 c 128,-1,23
 -1 667 -1 667 -1 640 c 0,24,25
 -1 593 -1 593 60 564 c 1,26,27
 140 620 140 620 140 671 c 0,19,20
216 313 m 1,28,29
 235 250 235 250 235 194 c 0,30,31
 235 36 235 36 110 36 c 0,32,33
 54 36 54 36 16 123 c 1,34,35
 -51 -3 -51 -3 -132 -3 c 256,36,37
 -213 -3 -213 -3 -213 94 c 0,38,39
 -213 158 -213 158 -174 228 c 1,40,-1
 -130 228 l 1,41,42
 -145 175 -145 175 -145 147 c 0,43,44
 -145 100 -145 100 -96 100 c 0,45,46
 -23 100 -23 100 -1 255 c 1,47,-1
 54 276 l 1,48,49
 58 208 58 208 62 187 c 0,50,51
 76 136 76 136 121 136 c 0,52,53
 174 136 174 136 174 206 c 0,54,55
 174 242 174 242 159 294 c 1,56,-1
 216 313 l 1,28,29
EndSplineSet
Ligature2: "'ccmp' Glyph Composition/Decomposition in Arabic lookup 4 subtable" afii57457 afii57455
EndChar

StartChar: afii62886
Encoding: 64610 64610 233
Width: 0
GlyphClass: 4
Flags: W
AnchorPoint: "Anchor-2" 0 0 mark 0
AnchorPoint: "Anchor-0" 0 0 mark 0
LayerCount: 2
Fore
SplineSet
251 126 m 1,0,-1
 -209 3 l 1,1,-1
 -227 78 l 1,2,-1
 233 205 l 1,3,-1
 251 126 l 1,0,-1
216 543 m 1,4,5
 235 480 235 480 235 424 c 0,6,7
 235 266 235 266 110 266 c 0,8,9
 54 266 54 266 16 353 c 1,10,11
 -51 227 -51 227 -132 227 c 256,12,13
 -213 227 -213 227 -213 324 c 0,14,15
 -213 388 -213 388 -174 458 c 1,16,-1
 -130 458 l 1,17,18
 -145 405 -145 405 -145 377 c 0,19,20
 -145 330 -145 330 -96 330 c 0,21,22
 -23 330 -23 330 -1 485 c 1,23,-1
 54 506 l 1,24,25
 58 438 58 438 62 417 c 0,26,27
 76 366 76 366 121 366 c 0,28,29
 174 366 174 366 174 436 c 0,30,31
 174 472 174 472 159 524 c 1,32,-1
 216 543 l 1,4,5
EndSplineSet
Ligature2: "'ccmp' Glyph Composition/Decomposition in Arabic lookup 4 subtable" afii57457 afii57456
EndChar

StartChar: afii62945
Encoding: 65554 -1 234
Width: 1507
GlyphClass: 3
Flags: W
LayerCount: 2
Fore
SplineSet
1450 280 m 0,0,1
 1450 159 1450 159 1388 77 c 0,2,3
 1320 -14 1320 -14 1203 -14 c 0,4,5
 1043 -14 1043 -14 964 100 c 1,6,7
 893 -37 893 -37 744 -37 c 0,8,9
 644 -37 644 -37 576 15 c 0,10,11
 505 68 505 68 485 165 c 1,12,13
 428 125 428 125 287 125 c 0,14,15
 218 125 218 125 169 175 c 128,-1,16
 120 225 120 225 120 294 c 0,17,18
 120 412 120 412 278 528 c 0,19,20
 361 589 361 589 461 633 c 1,21,-1
 461 744 l 1,22,-1
 622 874 l 1,23,24
 627 698 627 698 631 439 c 0,25,26
 633 314 633 314 654 268 c 0,27,28
 679 213 679 213 747 213 c 0,29,30
 854 213 854 213 854 382 c 2,31,-1
 854 816 l 1,32,-1
 1046 901 l 1,33,-1
 1046 514 l 2,34,35
 1046 381 1046 381 1061 331 c 0,36,37
 1091 230 1091 230 1189 230 c 0,38,39
 1223 230 1223 230 1245 264 c 0,40,41
 1264 293 1264 293 1264 329 c 0,42,43
 1264 552 1264 552 1219 870 c 1,44,-1
 1418 985 l 1,45,46
 1450 560 1450 560 1450 280 c 0,0,1
469 337 m 1,47,-1
 465 476 l 1,48,49
 421 467 421 467 365 432 c 0,50,51
 301 392 301 392 301 357 c 0,52,53
 301 323 301 323 403 323 c 0,54,55
 451 323 451 323 469 337 c 1,47,-1
EndSplineSet
EndChar

StartChar: afii64184
Encoding: 65010 65010 235
Width: 1497
GlyphClass: 3
Flags: W
AnchorPoint: "Anchor-3" 1410 -345 baselig 0
AnchorPoint: "Anchor-2" 1380 1095 baselig 0
AnchorPoint: "Anchor-3" 900 -405 baselig 1
AnchorPoint: "Anchor-2" 990 975 baselig 1
AnchorPoint: "Anchor-3" 435 -420 baselig 2
AnchorPoint: "Anchor-2" 375 915 baselig 2
LayerCount: 2
Fore
SplineSet
1081 1523 m 1,0,-1
 1066 1286 l 1,1,-1
 999 1257 l 1,2,-1
 985 1486 l 1,3,-1
 1081 1523 l 1,0,-1
1256 1272 m 1,4,5
 1262 1220 1262 1220 1262 1175 c 0,6,7
 1262 957 1262 957 1116 957 c 0,8,9
 1052 957 1052 957 1023 1019 c 1,10,11
 968 925 968 925 880 925 c 0,12,13
 787 925 787 925 787 1039 c 0,14,15
 787 1110 787 1110 830 1181 c 1,16,-1
 910 1181 l 1,17,18
 879 1111 879 1111 879 1087 c 0,19,20
 879 1058 879 1058 915 1058 c 0,21,22
 980 1058 980 1058 991 1203 c 1,23,-1
 1077 1234 l 1,24,25
 1077 1164 1077 1164 1079 1150 c 0,26,27
 1087 1092 1087 1092 1124 1092 c 0,28,29
 1176 1092 1176 1092 1176 1154 c 0,30,31
 1176 1184 1176 1184 1166 1241 c 1,32,-1
 1256 1272 l 1,4,5
1495 280 m 0,33,34
 1495 159 1495 159 1433 77 c 0,35,36
 1365 -14 1365 -14 1248 -14 c 0,37,38
 1088 -14 1088 -14 1009 100 c 1,39,40
 938 -37 938 -37 789 -37 c 0,41,42
 689 -37 689 -37 621 15 c 0,43,44
 550 68 550 68 530 165 c 1,45,46
 473 125 473 125 332 125 c 0,47,48
 263 125 263 125 214 175 c 128,-1,49
 165 225 165 225 165 294 c 0,50,51
 165 412 165 412 323 528 c 0,52,53
 406 589 406 589 506 633 c 1,54,-1
 506 744 l 1,55,-1
 667 874 l 1,56,57
 672 698 672 698 676 439 c 0,58,59
 678 314 678 314 699 268 c 0,60,61
 724 213 724 213 792 213 c 0,62,63
 899 213 899 213 899 382 c 2,64,-1
 899 816 l 1,65,-1
 1091 901 l 1,66,-1
 1091 514 l 2,67,68
 1091 381 1091 381 1106 331 c 0,69,70
 1136 230 1136 230 1234 230 c 0,71,72
 1268 230 1268 230 1290 264 c 0,73,74
 1309 293 1309 293 1309 329 c 0,75,76
 1309 552 1309 552 1264 870 c 1,77,-1
 1463 985 l 1,78,79
 1495 560 1495 560 1495 280 c 0,33,34
514 337 m 1,80,-1
 510 476 l 1,81,82
 466 467 466 467 410 432 c 0,83,84
 346 392 346 392 346 357 c 0,85,86
 346 323 346 323 448 323 c 0,87,88
 496 323 496 323 514 337 c 1,80,-1
EndSplineSet
Ligature2: "'rlig' Required Ligatures in Arabic lookup 5 subtable" afii62817 afii62818 uniFC63 afii62828
Ligature2: "'rlig' Required Ligatures in Arabic lookup 5 subtable" afii62817 afii62818 afii57457 uni0670 afii62828
EndChar

StartChar: afii57415.001
Encoding: 1575 1575 249
Width: 399
GlyphClass: 2
Flags: W
AnchorPoint: "Anchor-1" 270 -360 basechar 0
AnchorPoint: "Anchor-0" 195 1305 basechar 0
LayerCount: 2
Fore
SplineSet
337 27 m 1,0,-1
 185 -28 l 1,1,-1
 127 1151 l 1,2,-1
 337 1233 l 1,3,-1
 337 27 l 1,0,-1
EndSplineSet
Substitution2: "'fina' Terminal Forms in Arabic lookup 3 subtable" afii62760
EndChar

StartChar: afii62760.001
Encoding: 65555 -1 250
Width: 561
GlyphClass: 2
Flags: W
LayerCount: 2
Fore
SplineSet
561 0 m 1,0,-1
 523 0 l 2,1,2
 314 1 314 1 241 138 c 0,3,4
 194 226 194 226 187 447 c 2,5,-1
 165 1151 l 1,6,-1
 369 1233 l 1,7,-1
 369 419 l 2,8,9
 369 235 369 235 516 235 c 2,10,-1
 561 235 l 1,11,-1
 561 0 l 1,0,-1
EndSplineSet
EndChar

StartChar: afii57421
Encoding: 1581 1581 269
Width: 1199
GlyphClass: 2
Flags: W
AnchorPoint: "Anchor-1" 645 -1125 basechar 0
AnchorPoint: "Anchor-0" 660 975 basechar 0
LayerCount: 2
Fore
SplineSet
1282 -662 m 1,0,1
 1072 -739 1072 -739 861 -739 c 0,2,3
 550 -739 550 -739 374 -622 c 0,4,5
 165 -483 165 -483 165 -189 c 0,6,7
 165 -2 165 -2 328 168 c 0,8,9
 457 303 457 303 652 394 c 1,10,11
 475 416 475 416 432 416 c 0,12,13
 385 416 385 416 336 337 c 1,14,15
 237 378 237 378 182 411 c 1,16,17
 277 647 277 647 404 647 c 0,18,19
 501 647 501 647 699 624.5 c 128,-1,20
 897 602 897 602 997 602 c 0,21,22
 1106 602 1106 602 1194 612 c 1,23,-1
 1166 372 l 1,24,25
 919 372 919 372 660 213 c 0,26,27
 380 41 380 41 380 -162 c 0,28,29
 380 -506 380 -506 894 -506 c 0,30,31
 1066 -506 1066 -506 1218 -462 c 1,32,-1
 1282 -662 l 1,0,1
EndSplineSet
Substitution2: "'fina' Terminal Forms in Arabic lookup 3 subtable" afii62776
Substitution2: "'medi' Medial Forms in Arabic lookup 2 subtable" afii62775
Substitution2: "'init' Initial Forms in Arabic lookup 0 subtable" afii62774
EndChar

StartChar: afii62776
Encoding: 65186 65186 270
Width: 1318
GlyphClass: 2
Flags: W
AnchorPoint: "Anchor-1" 645 -1230 basechar 0
AnchorPoint: "Anchor-0" 660 945 basechar 0
LayerCount: 2
Fore
SplineSet
1318 1 m 1,0,-1
 1106 1 l 2,1,2
 871 1 871 1 875 323 c 1,3,4
 678 260 678 260 534 127 c 0,5,6
 380 -16 380 -16 380 -162 c 0,7,8
 380 -506 380 -506 894 -506 c 0,9,10
 1082 -506 1082 -506 1218 -461 c 1,11,-1
 1282 -662 l 1,12,13
 1079 -739 1079 -739 861 -739 c 0,14,15
 550 -739 550 -739 374 -622 c 0,16,17
 165 -483 165 -483 165 -189 c 0,18,19
 165 -2 165 -2 328 168 c 0,20,21
 457 303 457 303 652 394 c 1,22,23
 475 416 475 416 432 416 c 0,24,25
 385 416 385 416 336 337 c 1,26,27
 237 378 237 378 182 411 c 1,28,29
 277 647 277 647 404 647 c 0,30,31
 501 647 501 647 699 624.5 c 128,-1,32
 897 602 897 602 997 602 c 0,33,34
 1106 602 1106 602 1194 612 c 1,35,-1
 1166 372 l 1,36,37
 1085 372 1085 372 996 356 c 1,38,39
 1003 305 1003 305 1019 282 c 0,40,41
 1052 235 1052 235 1139 235 c 2,42,-1
 1318 235 l 1,43,-1
 1318 1 l 1,0,-1
EndSplineSet
EndChar

StartChar: afii62774
Encoding: 65187 65187 271
Width: 1081
GlyphClass: 2
Flags: W
AnchorPoint: "Anchor-1" 330 -495 basechar 0
AnchorPoint: "Anchor-0" 540 930 basechar 0
LayerCount: 2
Fore
SplineSet
1078 516 m 1,0,-1
 1051 306 l 1,1,2
 925 306 925 306 784 227 c 0,3,4
 699 176 699 176 525 80 c 1,5,6
 369 1 369 1 168 1 c 2,7,-1
 -70 1 l 1,8,-1
 -70 235 l 1,9,-1
 165 235 l 2,10,11
 315 235 315 235 451 281 c 0,12,13
 466 286 466 286 672 361 c 1,14,15
 637 365 637 365 498 406 c 0,16,17
 370 444 370 444 341 444 c 0,18,19
 303 444 303 444 277 417 c 0,20,21
 259 393 259 393 240 370 c 1,22,23
 149 406 149 406 88 441 c 1,24,25
 179 660 179 660 308 660 c 0,26,27
 393 660 393 660 628.5 586 c 128,-1,28
 864 512 864 512 995 512 c 0,29,30
 1037 512 1037 512 1078 516 c 1,0,-1
EndSplineSet
EndChar

StartChar: afii62775
Encoding: 65188 65188 272
Width: 1208
GlyphClass: 2
Flags: W
AnchorPoint: "Anchor-1" 555 -525 basechar 0
AnchorPoint: "Anchor-0" 735 1065 basechar 0
LayerCount: 2
Fore
SplineSet
1208 1 m 1,0,-1
 1010 1 l 2,1,2
 775 1 775 1 770 293 c 1,3,4
 710 260 710 260 589 166 c 0,5,6
 483 84 483 84 411 51 c 0,7,8
 303 1 303 1 174 1 c 2,9,-1
 -70 1 l 1,10,-1
 -70 235 l 1,11,-1
 143 235 l 2,12,13
 293 235 293 235 417 298 c 0,14,15
 485 335 485 335 622 408 c 1,16,17
 583 412 583 412 465 433 c 0,18,19
 358 452 358 452 341 452 c 0,20,21
 298 452 298 452 245 370 c 1,22,23
 150 409 150 409 94 441 c 1,24,25
 190 680 190 680 314 680 c 0,26,27
 421 680 421 680 648 627 c 128,-1,28
 875 574 875 574 992 574 c 0,29,30
 1051 574 1051 574 1103 580 c 1,31,-1
 1076 353 l 1,32,33
 978 353 978 353 890 326 c 1,34,35
 900 284 900 284 919 267 c 0,36,37
 955 235 955 235 1043 235 c 2,38,-1
 1208 235 l 1,39,-1
 1208 1 l 1,0,-1
EndSplineSet
EndChar

StartChar: afii57423
Encoding: 1583 1583 277
Width: 903
GlyphClass: 2
Flags: W
AnchorPoint: "Anchor-1" 420 -450 basechar 0
AnchorPoint: "Anchor-0" 480 1110 basechar 0
LayerCount: 2
Fore
SplineSet
858 323 m 0,0,1
 858 155 858 155 747 63 c 0,2,3
 644 -22 644 -22 472 -22 c 0,4,5
 242 -22 242 -22 144 105 c 1,6,-1
 240 282 l 1,7,8
 327 210 327 210 428 210 c 0,9,10
 552 210 552 210 598 219 c 0,11,12
 710 242 710 242 710 320 c 0,13,14
 710 372 710 372 626 458 c 0,15,16
 532 554 532 554 397 625 c 1,17,-1
 488 849 l 1,18,19
 858 624 858 624 858 323 c 0,0,1
EndSplineSet
Substitution2: "'fina' Terminal Forms in Arabic lookup 3 subtable" afii62780
PairPos2: "'kern' Horizontal Kerning in Arabic lookup 0 subtable" uni06B4.init dx=0 dy=0 dh=0 dv=0 dx=0 dy=0 dh=-250 dv=0
PairPos2: "'kern' Horizontal Kerning in Arabic lookup 0 subtable" uni06B4 dx=0 dy=0 dh=0 dv=0 dx=0 dy=0 dh=-250 dv=0
PairPos2: "'kern' Horizontal Kerning in Arabic lookup 0 subtable" uniFB98 dx=0 dy=0 dh=0 dv=0 dx=0 dy=0 dh=-250 dv=0
PairPos2: "'kern' Horizontal Kerning in Arabic lookup 0 subtable" uni06B3 dx=0 dy=0 dh=0 dv=0 dx=0 dy=0 dh=-250 dv=0
PairPos2: "'kern' Horizontal Kerning in Arabic lookup 0 subtable" uni06B2.init dx=0 dy=0 dh=0 dv=0 dx=0 dy=0 dh=-250 dv=0
PairPos2: "'kern' Horizontal Kerning in Arabic lookup 0 subtable" uniFB9C dx=0 dy=0 dh=0 dv=0 dx=0 dy=0 dh=-250 dv=0
PairPos2: "'kern' Horizontal Kerning in Arabic lookup 0 subtable" uni06B1 dx=0 dy=0 dh=0 dv=0 dx=0 dy=0 dh=-250 dv=0
PairPos2: "'kern' Horizontal Kerning in Arabic lookup 0 subtable" uni06B0.init dx=0 dy=0 dh=0 dv=0 dx=0 dy=0 dh=-250 dv=0
PairPos2: "'kern' Horizontal Kerning in Arabic lookup 0 subtable" uni06B0 dx=0 dy=0 dh=0 dv=0 dx=0 dy=0 dh=-250 dv=0
PairPos2: "'kern' Horizontal Kerning in Arabic lookup 0 subtable" uni06AE.init dx=0 dy=0 dh=0 dv=0 dx=0 dy=0 dh=-250 dv=0
PairPos2: "'kern' Horizontal Kerning in Arabic lookup 0 subtable" uni06AE dx=0 dy=0 dh=0 dv=0 dx=0 dy=0 dh=-50 dv=0
PairPos2: "'kern' Horizontal Kerning in Arabic lookup 0 subtable" uniFBD5 dx=0 dy=0 dh=0 dv=0 dx=0 dy=0 dh=-250 dv=0
PairPos2: "'kern' Horizontal Kerning in Arabic lookup 0 subtable" uni06AD dx=0 dy=0 dh=0 dv=0 dx=0 dy=0 dh=-50 dv=0
PairPos2: "'kern' Horizontal Kerning in Arabic lookup 0 subtable" uni06AB.init dx=0 dy=0 dh=0 dv=0 dx=0 dy=0 dh=-250 dv=0
PairPos2: "'kern' Horizontal Kerning in Arabic lookup 0 subtable" uni06AB dx=0 dy=0 dh=0 dv=0 dx=0 dy=0 dh=-50 dv=0
PairPos2: "'kern' Horizontal Kerning in Arabic lookup 0 subtable" uni06AB.init dx=0 dy=0 dh=0 dv=0 dx=0 dy=0 dh=-250 dv=0
PairPos2: "'kern' Horizontal Kerning in Arabic lookup 0 subtable" uni06AB.001 dx=0 dy=0 dh=0 dv=0 dx=0 dy=0 dh=-250 dv=0
PairPos2: "'kern' Horizontal Kerning in Arabic lookup 0 subtable" uni0673 dx=0 dy=0 dh=0 dv=0 dx=0 dy=0 dh=-50 dv=0
PairPos2: "'kern' Horizontal Kerning in Arabic lookup 0 subtable" afii57410 dx=0 dy=0 dh=0 dv=0 dx=0 dy=0 dh=-250 dv=0
PairPos2: "'kern' Horizontal Kerning in Arabic lookup 0 subtable" afii57443 dx=0 dy=0 dh=0 dv=0 dx=0 dy=0 dh=-50 dv=0
PairPos2: "'kern' Horizontal Kerning in Arabic lookup 0 subtable" afii57413 dx=0 dy=0 dh=0 dv=0 dx=0 dy=0 dh=-50 dv=0
PairPos2: "'kern' Horizontal Kerning in Arabic lookup 0 subtable" afii62965 dx=0 dy=0 dh=0 dv=0 dx=0 dy=0 dh=-250 dv=0
PairPos2: "'kern' Horizontal Kerning in Arabic lookup 0 subtable" afii57509 dx=0 dy=0 dh=0 dv=0 dx=0 dy=0 dh=-250 dv=0
PairPos2: "'kern' Horizontal Kerning in Arabic lookup 0 subtable" afii52305 dx=0 dy=0 dh=0 dv=0 dx=0 dy=0 dh=-250 dv=0
PairPos2: "'kern' Horizontal Kerning in Arabic lookup 0 subtable" afii57567 dx=0 dy=0 dh=0 dv=0 dx=0 dy=0 dh=-250 dv=0
EndChar

StartChar: afii62780
Encoding: 65194 65194 278
Width: 1108
GlyphClass: 2
Flags: W
AnchorPoint: "Anchor-1" 390 -540 basechar 0
AnchorPoint: "Anchor-0" 450 1095 basechar 0
LayerCount: 2
Fore
SplineSet
1108 1 m 1,0,-1
 1067 1 l 2,1,2
 865 1 865 1 782 164 c 1,3,4
 700 -27 700 -27 453 -27 c 0,5,6
 256 -27 256 -27 164 82 c 1,7,-1
 235 270 l 1,8,9
 318 207 318 207 475 207 c 0,10,11
 712 207 712 207 712 313 c 0,12,13
 712 331 712 331 705 351 c 2,14,-1
 568 741 l 1,15,-1
 731 889 l 1,16,-1
 866 455 l 2,17,18
 900 346 900 346 929 305 c 0,19,20
 977 235 977 235 1064 235 c 2,21,-1
 1108 235 l 1,22,-1
 1108 1 l 1,0,-1
EndSplineSet
PairPos2: "'kern' Horizontal Kerning in Arabic lookup 0 subtable" uniFC5D dx=0 dy=0 dh=0 dv=0 dx=0 dy=0 dh=-50 dv=0
PairPos2: "'kern' Horizontal Kerning in Arabic lookup 0 subtable" uni068A dx=0 dy=0 dh=0 dv=0 dx=0 dy=0 dh=-50 dv=0
PairPos2: "'kern' Horizontal Kerning in Arabic lookup 0 subtable" uni06FB.init dx=0 dy=0 dh=0 dv=0 dx=0 dy=0 dh=-50 dv=0
PairPos2: "'kern' Horizontal Kerning in Arabic lookup 0 subtable" uni06FA.init dx=0 dy=0 dh=0 dv=0 dx=0 dy=0 dh=-50 dv=0
PairPos2: "'kern' Horizontal Kerning in Arabic lookup 0 subtable" uni06D1 dx=0 dy=0 dh=0 dv=0 dx=0 dy=0 dh=-50 dv=0
PairPos2: "'kern' Horizontal Kerning in Arabic lookup 0 subtable" uni06D0 dx=0 dy=0 dh=0 dv=0 dx=0 dy=0 dh=-50 dv=0
PairPos2: "'kern' Horizontal Kerning in Arabic lookup 0 subtable" uni06CE dx=0 dy=0 dh=0 dv=0 dx=0 dy=0 dh=-50 dv=0
PairPos2: "'kern' Horizontal Kerning in Arabic lookup 0 subtable" uni06CD dx=0 dy=0 dh=0 dv=0 dx=0 dy=0 dh=-50 dv=0
PairPos2: "'kern' Horizontal Kerning in Arabic lookup 0 subtable" uni06B8.init dx=0 dy=0 dh=0 dv=0 dx=0 dy=0 dh=-60 dv=0
PairPos2: "'kern' Horizontal Kerning in Arabic lookup 0 subtable" uni06B7.init dx=0 dy=0 dh=0 dv=0 dx=0 dy=0 dh=-60 dv=0
PairPos2: "'kern' Horizontal Kerning in Arabic lookup 0 subtable" uni06B6.init dx=0 dy=0 dh=0 dv=0 dx=0 dy=0 dh=-60 dv=0
PairPos2: "'kern' Horizontal Kerning in Arabic lookup 0 subtable" uni06B5.init dx=0 dy=0 dh=0 dv=0 dx=0 dy=0 dh=-60 dv=0
PairPos2: "'kern' Horizontal Kerning in Arabic lookup 0 subtable" uni06B4.init dx=0 dy=0 dh=0 dv=0 dx=0 dy=0 dh=-250 dv=0
PairPos2: "'kern' Horizontal Kerning in Arabic lookup 0 subtable" uni06B4 dx=0 dy=0 dh=0 dv=0 dx=0 dy=0 dh=-250 dv=0
PairPos2: "'kern' Horizontal Kerning in Arabic lookup 0 subtable" uniFB98 dx=0 dy=0 dh=0 dv=0 dx=0 dy=0 dh=-250 dv=0
PairPos2: "'kern' Horizontal Kerning in Arabic lookup 0 subtable" uni06B3 dx=0 dy=0 dh=0 dv=0 dx=0 dy=0 dh=-250 dv=0
PairPos2: "'kern' Horizontal Kerning in Arabic lookup 0 subtable" uni06B2.init dx=0 dy=0 dh=0 dv=0 dx=0 dy=0 dh=-250 dv=0
PairPos2: "'kern' Horizontal Kerning in Arabic lookup 0 subtable" uniFB9C dx=0 dy=0 dh=0 dv=0 dx=0 dy=0 dh=-250 dv=0
PairPos2: "'kern' Horizontal Kerning in Arabic lookup 0 subtable" uni06B1 dx=0 dy=0 dh=0 dv=0 dx=0 dy=0 dh=-250 dv=0
PairPos2: "'kern' Horizontal Kerning in Arabic lookup 0 subtable" uni06B0.init dx=0 dy=0 dh=0 dv=0 dx=0 dy=0 dh=-250 dv=0
PairPos2: "'kern' Horizontal Kerning in Arabic lookup 0 subtable" uni06B0 dx=0 dy=0 dh=0 dv=0 dx=0 dy=0 dh=-250 dv=0
PairPos2: "'kern' Horizontal Kerning in Arabic lookup 0 subtable" uni06AE.init dx=0 dy=0 dh=0 dv=0 dx=0 dy=0 dh=-250 dv=0
PairPos2: "'kern' Horizontal Kerning in Arabic lookup 0 subtable" uni06AE dx=0 dy=0 dh=0 dv=0 dx=0 dy=0 dh=-60 dv=0
PairPos2: "'kern' Horizontal Kerning in Arabic lookup 0 subtable" uniFBD5 dx=0 dy=0 dh=0 dv=0 dx=0 dy=0 dh=-250 dv=0
PairPos2: "'kern' Horizontal Kerning in Arabic lookup 0 subtable" uni06AD dx=0 dy=0 dh=0 dv=0 dx=0 dy=0 dh=-60 dv=0
PairPos2: "'kern' Horizontal Kerning in Arabic lookup 0 subtable" uni06AB.init dx=0 dy=0 dh=0 dv=0 dx=0 dy=0 dh=-250 dv=0
PairPos2: "'kern' Horizontal Kerning in Arabic lookup 0 subtable" uni06AB dx=0 dy=0 dh=0 dv=0 dx=0 dy=0 dh=-60 dv=0
PairPos2: "'kern' Horizontal Kerning in Arabic lookup 0 subtable" uni06AB.init dx=0 dy=0 dh=0 dv=0 dx=0 dy=0 dh=-250 dv=0
PairPos2: "'kern' Horizontal Kerning in Arabic lookup 0 subtable" uni06AB.001 dx=0 dy=0 dh=0 dv=0 dx=0 dy=0 dh=-250 dv=0
PairPos2: "'kern' Horizontal Kerning in Arabic lookup 0 subtable" uniFB70 dx=0 dy=0 dh=0 dv=0 dx=0 dy=0 dh=-50 dv=0
PairPos2: "'kern' Horizontal Kerning in Arabic lookup 0 subtable" uni06A5.init dx=0 dy=0 dh=0 dv=0 dx=0 dy=0 dh=-50 dv=0
PairPos2: "'kern' Horizontal Kerning in Arabic lookup 0 subtable" uni06A3.init dx=0 dy=0 dh=0 dv=0 dx=0 dy=0 dh=-50 dv=0
PairPos2: "'kern' Horizontal Kerning in Arabic lookup 0 subtable" uni06A2.init dx=0 dy=0 dh=0 dv=0 dx=0 dy=0 dh=-50 dv=0
PairPos2: "'kern' Horizontal Kerning in Arabic lookup 0 subtable" uni06A0 dx=0 dy=0 dh=0 dv=0 dx=0 dy=0 dh=-50 dv=0
PairPos2: "'kern' Horizontal Kerning in Arabic lookup 0 subtable" uni069F dx=0 dy=0 dh=0 dv=0 dx=0 dy=0 dh=-50 dv=0
PairPos2: "'kern' Horizontal Kerning in Arabic lookup 0 subtable" uni069E.init dx=0 dy=0 dh=0 dv=0 dx=0 dy=0 dh=-50 dv=0
PairPos2: "'kern' Horizontal Kerning in Arabic lookup 0 subtable" uni069D.init dx=0 dy=0 dh=0 dv=0 dx=0 dy=0 dh=-50 dv=0
PairPos2: "'kern' Horizontal Kerning in Arabic lookup 0 subtable" uni069C.init dx=0 dy=0 dh=0 dv=0 dx=0 dy=0 dh=-50 dv=0
PairPos2: "'kern' Horizontal Kerning in Arabic lookup 0 subtable" uni069B.init dx=0 dy=0 dh=0 dv=0 dx=0 dy=0 dh=-50 dv=0
PairPos2: "'kern' Horizontal Kerning in Arabic lookup 0 subtable" uni069A.init dx=0 dy=0 dh=0 dv=0 dx=0 dy=0 dh=-50 dv=0
PairPos2: "'kern' Horizontal Kerning in Arabic lookup 0 subtable" uni068e dx=0 dy=0 dh=0 dv=0 dx=0 dy=0 dh=-50 dv=0
PairPos2: "'kern' Horizontal Kerning in Arabic lookup 0 subtable" uni068d dx=0 dy=0 dh=0 dv=0 dx=0 dy=0 dh=-50 dv=0
PairPos2: "'kern' Horizontal Kerning in Arabic lookup 0 subtable" uni068c dx=0 dy=0 dh=0 dv=0 dx=0 dy=0 dh=-50 dv=0
PairPos2: "'kern' Horizontal Kerning in Arabic lookup 0 subtable" uni068b dx=0 dy=0 dh=0 dv=0 dx=0 dy=0 dh=-50 dv=0
PairPos2: "'kern' Horizontal Kerning in Arabic lookup 0 subtable" uni0689 dx=0 dy=0 dh=0 dv=0 dx=0 dy=0 dh=-50 dv=0
PairPos2: "'kern' Horizontal Kerning in Arabic lookup 0 subtable" uni0678 dx=0 dy=0 dh=0 dv=0 dx=0 dy=0 dh=-50 dv=0
PairPos2: "'kern' Horizontal Kerning in Arabic lookup 0 subtable" uni0673 dx=0 dy=0 dh=0 dv=0 dx=0 dy=0 dh=-100 dv=0
PairPos2: "'kern' Horizontal Kerning in Arabic lookup 0 subtable" uniFBA6 dx=0 dy=0 dh=0 dv=0 dx=0 dy=0 dh=-50 dv=0
PairPos2: "'kern' Horizontal Kerning in Arabic lookup 0 subtable" uni0688 dx=0 dy=0 dh=0 dv=0 dx=0 dy=0 dh=-50 dv=0
PairPos2: "'kern' Horizontal Kerning in Arabic lookup 0 subtable" uniFBA4 dx=0 dy=0 dh=0 dv=0 dx=0 dy=0 dh=-50 dv=0
PairPos2: "'kern' Horizontal Kerning in Arabic lookup 0 subtable" uni06C0 dx=0 dy=0 dh=0 dv=0 dx=0 dy=0 dh=-50 dv=0
PairPos2: "'kern' Horizontal Kerning in Arabic lookup 0 subtable" afii57450 dx=0 dy=0 dh=0 dv=0 dx=0 dy=0 dh=-50 dv=0
PairPos2: "'kern' Horizontal Kerning in Arabic lookup 0 subtable" afii57449 dx=0 dy=0 dh=0 dv=0 dx=0 dy=0 dh=-50 dv=0
PairPos2: "'kern' Horizontal Kerning in Arabic lookup 0 subtable" afii57447 dx=0 dy=0 dh=0 dv=0 dx=0 dy=0 dh=-50 dv=0
PairPos2: "'kern' Horizontal Kerning in Arabic lookup 0 subtable" afii62817 dx=0 dy=0 dh=0 dv=0 dx=0 dy=0 dh=-60 dv=0
PairPos2: "'kern' Horizontal Kerning in Arabic lookup 0 subtable" afii57410 dx=0 dy=0 dh=0 dv=0 dx=0 dy=0 dh=-250 dv=0
PairPos2: "'kern' Horizontal Kerning in Arabic lookup 0 subtable" afii57443 dx=0 dy=0 dh=0 dv=0 dx=0 dy=0 dh=-60 dv=0
PairPos2: "'kern' Horizontal Kerning in Arabic lookup 0 subtable" afii62811 dx=0 dy=0 dh=0 dv=0 dx=0 dy=0 dh=-50 dv=0
PairPos2: "'kern' Horizontal Kerning in Arabic lookup 0 subtable" afii62808 dx=0 dy=0 dh=0 dv=0 dx=0 dy=0 dh=-50 dv=0
PairPos2: "'kern' Horizontal Kerning in Arabic lookup 0 subtable" afii57434 dx=0 dy=0 dh=0 dv=0 dx=0 dy=0 dh=-50 dv=0
PairPos2: "'kern' Horizontal Kerning in Arabic lookup 0 subtable" afii57433 dx=0 dy=0 dh=0 dv=0 dx=0 dy=0 dh=-50 dv=0
PairPos2: "'kern' Horizontal Kerning in Arabic lookup 0 subtable" afii62799 dx=0 dy=0 dh=0 dv=0 dx=0 dy=0 dh=-50 dv=0
PairPos2: "'kern' Horizontal Kerning in Arabic lookup 0 subtable" afii57432 dx=0 dy=0 dh=0 dv=0 dx=0 dy=0 dh=-50 dv=0
PairPos2: "'kern' Horizontal Kerning in Arabic lookup 0 subtable" afii62796 dx=0 dy=0 dh=0 dv=0 dx=0 dy=0 dh=-50 dv=0
PairPos2: "'kern' Horizontal Kerning in Arabic lookup 0 subtable" afii57431 dx=0 dy=0 dh=0 dv=0 dx=0 dy=0 dh=-50 dv=0
PairPos2: "'kern' Horizontal Kerning in Arabic lookup 0 subtable" afii62793 dx=0 dy=0 dh=0 dv=0 dx=0 dy=0 dh=-50 dv=0
PairPos2: "'kern' Horizontal Kerning in Arabic lookup 0 subtable" afii62790 dx=0 dy=0 dh=0 dv=0 dx=0 dy=0 dh=-50 dv=0
PairPos2: "'kern' Horizontal Kerning in Arabic lookup 0 subtable" afii62787 dx=0 dy=0 dh=0 dv=0 dx=0 dy=0 dh=-50 dv=0
PairPos2: "'kern' Horizontal Kerning in Arabic lookup 0 subtable" afii62784 dx=0 dy=0 dh=0 dv=0 dx=0 dy=0 dh=-50 dv=0
PairPos2: "'kern' Horizontal Kerning in Arabic lookup 0 subtable" afii57424 dx=0 dy=0 dh=0 dv=0 dx=0 dy=0 dh=-50 dv=0
PairPos2: "'kern' Horizontal Kerning in Arabic lookup 0 subtable" afii57423 dx=0 dy=0 dh=0 dv=0 dx=0 dy=0 dh=-50 dv=0
PairPos2: "'kern' Horizontal Kerning in Arabic lookup 0 subtable" afii57417 dx=0 dy=0 dh=0 dv=0 dx=0 dy=0 dh=-50 dv=0
PairPos2: "'kern' Horizontal Kerning in Arabic lookup 0 subtable" afii57414 dx=0 dy=0 dh=0 dv=0 dx=0 dy=0 dh=-50 dv=0
PairPos2: "'kern' Horizontal Kerning in Arabic lookup 0 subtable" afii57413 dx=0 dy=0 dh=0 dv=0 dx=0 dy=0 dh=-100 dv=0
PairPos2: "'kern' Horizontal Kerning in Arabic lookup 0 subtable" afii57555 dx=0 dy=0 dh=0 dv=0 dx=0 dy=0 dh=-50 dv=0
PairPos2: "'kern' Horizontal Kerning in Arabic lookup 0 subtable" afii62965 dx=0 dy=0 dh=0 dv=0 dx=0 dy=0 dh=-250 dv=0
PairPos2: "'kern' Horizontal Kerning in Arabic lookup 0 subtable" afii57509 dx=0 dy=0 dh=0 dv=0 dx=0 dy=0 dh=-250 dv=0
PairPos2: "'kern' Horizontal Kerning in Arabic lookup 0 subtable" afii52305 dx=0 dy=0 dh=0 dv=0 dx=0 dy=0 dh=-250 dv=0
PairPos2: "'kern' Horizontal Kerning in Arabic lookup 0 subtable" afii57567 dx=0 dy=0 dh=0 dv=0 dx=0 dy=0 dh=-250 dv=0
PairPos2: "'kern' Horizontal Kerning in Arabic lookup 0 subtable" afii57372 dx=0 dy=0 dh=0 dv=0 dx=0 dy=0 dh=-50 dv=0
PairPos2: "'kern' Horizontal Kerning in Arabic lookup 0 subtable" afii57534 dx=0 dy=0 dh=0 dv=0 dx=0 dy=0 dh=-50 dv=0
EndChar

StartChar: afii57425
Encoding: 1585 1585 281
Width: 766
GlyphClass: 2
Flags: W
AnchorPoint: "Anchor-1" 270 -780 basechar 0
AnchorPoint: "Anchor-0" 420 930 basechar 0
LayerCount: 2
Fore
SplineSet
716 223 m 0,0,1
 716 25 716 25 520 -158 c 0,2,3
 365 -303 365 -303 165 -382 c 1,4,-1
 6 -259 l 1,5,6
 254 -138 254 -138 402 -4 c 0,7,8
 537 118 537 118 537 198 c 0,9,10
 537 249 537 249 497 306 c 0,11,12
 470 342 470 342 416 414 c 1,13,-1
 571 595 l 1,14,15
 648 498 648 498 677 432 c 0,16,17
 716 344 716 344 716 223 c 0,0,1
EndSplineSet
Substitution2: "'fina' Terminal Forms in Arabic lookup 3 subtable" afii62782
PairPos2: "'kern' Horizontal Kerning in Arabic lookup 1 subtable" afii57415 dx=0 dy=0 dh=0 dv=0 dx=0 dy=0 dh=-100 dv=0
PairPos2: "'kern' Horizontal Kerning in Arabic lookup 1 subtable" afii62840 dx=0 dy=0 dh=0 dv=0 dx=0 dy=0 dh=-100 dv=0
PairPos2: "'kern' Horizontal Kerning in Arabic lookup 1 subtable" afii62838 dx=0 dy=0 dh=0 dv=0 dx=0 dy=0 dh=-100 dv=0
PairPos2: "'kern' Horizontal Kerning in Arabic lookup 1 subtable" afii62836 dx=0 dy=0 dh=0 dv=0 dx=0 dy=0 dh=-100 dv=0
PairPos2: "'kern' Horizontal Kerning in Arabic lookup 1 subtable" afii62834 dx=0 dy=0 dh=0 dv=0 dx=0 dy=0 dh=-100 dv=0
PairPos2: "'kern' Horizontal Kerning in Arabic lookup 1 subtable" afii62829 dx=0 dy=0 dh=0 dv=0 dx=0 dy=0 dh=-100 dv=0
PairPos2: "'kern' Horizontal Kerning in Arabic lookup 1 subtable" afii57448 dx=0 dy=0 dh=0 dv=0 dx=0 dy=0 dh=-100 dv=0
PairPos2: "'kern' Horizontal Kerning in Arabic lookup 1 subtable" afii57470 dx=0 dy=0 dh=0 dv=0 dx=0 dy=0 dh=-50 dv=0
PairPos2: "'kern' Horizontal Kerning in Arabic lookup 1 subtable" afii62783 dx=0 dy=0 dh=0 dv=0 dx=0 dy=0 dh=-100 dv=0
PairPos2: "'kern' Horizontal Kerning in Arabic lookup 1 subtable" afii57426 dx=0 dy=0 dh=0 dv=0 dx=0 dy=0 dh=-100 dv=0
PairPos2: "'kern' Horizontal Kerning in Arabic lookup 1 subtable" afii62782 dx=0 dy=0 dh=0 dv=0 dx=0 dy=0 dh=-100 dv=0
PairPos2: "'kern' Horizontal Kerning in Arabic lookup 1 subtable" afii57425 dx=0 dy=0 dh=0 dv=0 dx=0 dy=0 dh=-100 dv=0
PairPos2: "'kern' Horizontal Kerning in Arabic lookup 1 subtable" afii57415.001 dx=0 dy=0 dh=0 dv=0 dx=0 dy=0 dh=-100 dv=0
PairPos2: "'kern' Horizontal Kerning in Arabic lookup 1 subtable" afii62755 dx=0 dy=0 dh=0 dv=0 dx=0 dy=0 dh=-100 dv=0
PairPos2: "'kern' Horizontal Kerning in Arabic lookup 1 subtable" afii57412 dx=0 dy=0 dh=0 dv=0 dx=0 dy=0 dh=-100 dv=0
PairPos2: "'kern' Horizontal Kerning in Arabic lookup 1 subtable" afii52400 dx=0 dy=0 dh=0 dv=0 dx=0 dy=0 dh=-150 dv=0
PairPos2: "'kern' Horizontal Kerning in Arabic lookup 0 subtable" uni06FC.init dx=0 dy=0 dh=0 dv=0 dx=0 dy=0 dh=-80 dv=0
PairPos2: "'kern' Horizontal Kerning in Arabic lookup 0 subtable" uni06FB.init dx=0 dy=0 dh=0 dv=0 dx=0 dy=0 dh=-80 dv=0
PairPos2: "'kern' Horizontal Kerning in Arabic lookup 0 subtable" uni06FB dx=0 dy=0 dh=0 dv=0 dx=0 dy=0 dh=-80 dv=0
PairPos2: "'kern' Horizontal Kerning in Arabic lookup 0 subtable" uni06FA.init dx=0 dy=0 dh=0 dv=0 dx=0 dy=0 dh=-80 dv=0
PairPos2: "'kern' Horizontal Kerning in Arabic lookup 0 subtable" uni06FA dx=0 dy=0 dh=0 dv=0 dx=0 dy=0 dh=-80 dv=0
PairPos2: "'kern' Horizontal Kerning in Arabic lookup 0 subtable" uni06CE.init dx=0 dy=0 dh=0 dv=0 dx=0 dy=0 dh=80 dv=0
PairPos2: "'kern' Horizontal Kerning in Arabic lookup 0 subtable" uni06BF.init dx=0 dy=0 dh=0 dv=0 dx=0 dy=0 dh=-40 dv=0
PairPos2: "'kern' Horizontal Kerning in Arabic lookup 0 subtable" uni06BC.init dx=0 dy=0 dh=0 dv=0 dx=0 dy=0 dh=80 dv=0
PairPos2: "'kern' Horizontal Kerning in Arabic lookup 0 subtable" uni06B9.init dx=0 dy=0 dh=0 dv=0 dx=0 dy=0 dh=80 dv=0
PairPos2: "'kern' Horizontal Kerning in Arabic lookup 0 subtable" uni06B8.init dx=0 dy=0 dh=0 dv=0 dx=0 dy=0 dh=80 dv=0
PairPos2: "'kern' Horizontal Kerning in Arabic lookup 0 subtable" uni06B7.init dx=0 dy=0 dh=0 dv=0 dx=0 dy=0 dh=-110 dv=0
PairPos2: "'kern' Horizontal Kerning in Arabic lookup 0 subtable" uni06B6.init dx=0 dy=0 dh=0 dv=0 dx=0 dy=0 dh=-110 dv=0
PairPos2: "'kern' Horizontal Kerning in Arabic lookup 0 subtable" uni06B5.init dx=0 dy=0 dh=0 dv=0 dx=0 dy=0 dh=-110 dv=0
PairPos2: "'kern' Horizontal Kerning in Arabic lookup 0 subtable" uni06B4.init dx=0 dy=0 dh=0 dv=0 dx=0 dy=0 dh=-250 dv=0
PairPos2: "'kern' Horizontal Kerning in Arabic lookup 0 subtable" uni06B4 dx=0 dy=0 dh=0 dv=0 dx=0 dy=0 dh=-250 dv=0
PairPos2: "'kern' Horizontal Kerning in Arabic lookup 0 subtable" uniFB98 dx=0 dy=0 dh=0 dv=0 dx=0 dy=0 dh=-250 dv=0
PairPos2: "'kern' Horizontal Kerning in Arabic lookup 0 subtable" uni06B3 dx=0 dy=0 dh=0 dv=0 dx=0 dy=0 dh=-250 dv=0
PairPos2: "'kern' Horizontal Kerning in Arabic lookup 0 subtable" uni06B2.init dx=0 dy=0 dh=0 dv=0 dx=0 dy=0 dh=-250 dv=0
PairPos2: "'kern' Horizontal Kerning in Arabic lookup 0 subtable" uniFB9C dx=0 dy=0 dh=0 dv=0 dx=0 dy=0 dh=-250 dv=0
PairPos2: "'kern' Horizontal Kerning in Arabic lookup 0 subtable" uni06B1 dx=0 dy=0 dh=0 dv=0 dx=0 dy=0 dh=-250 dv=0
PairPos2: "'kern' Horizontal Kerning in Arabic lookup 0 subtable" uni06B0.init dx=0 dy=0 dh=0 dv=0 dx=0 dy=0 dh=-250 dv=0
PairPos2: "'kern' Horizontal Kerning in Arabic lookup 0 subtable" uni06B0 dx=0 dy=0 dh=0 dv=0 dx=0 dy=0 dh=-250 dv=0
PairPos2: "'kern' Horizontal Kerning in Arabic lookup 0 subtable" uni06AE.init dx=0 dy=0 dh=0 dv=0 dx=0 dy=0 dh=-250 dv=0
PairPos2: "'kern' Horizontal Kerning in Arabic lookup 0 subtable" uni06AE dx=0 dy=0 dh=0 dv=0 dx=0 dy=0 dh=-80 dv=0
PairPos2: "'kern' Horizontal Kerning in Arabic lookup 0 subtable" uniFBD5 dx=0 dy=0 dh=0 dv=0 dx=0 dy=0 dh=-250 dv=0
PairPos2: "'kern' Horizontal Kerning in Arabic lookup 0 subtable" uni06AD dx=0 dy=0 dh=0 dv=0 dx=0 dy=0 dh=-80 dv=0
PairPos2: "'kern' Horizontal Kerning in Arabic lookup 0 subtable" uni06AB.init dx=0 dy=0 dh=0 dv=0 dx=0 dy=0 dh=-250 dv=0
PairPos2: "'kern' Horizontal Kerning in Arabic lookup 0 subtable" uni06AB dx=0 dy=0 dh=0 dv=0 dx=0 dy=0 dh=-80 dv=0
PairPos2: "'kern' Horizontal Kerning in Arabic lookup 0 subtable" uni06AB.init dx=0 dy=0 dh=0 dv=0 dx=0 dy=0 dh=-250 dv=0
PairPos2: "'kern' Horizontal Kerning in Arabic lookup 0 subtable" uni06AB.001 dx=0 dy=0 dh=0 dv=0 dx=0 dy=0 dh=-230 dv=0
PairPos2: "'kern' Horizontal Kerning in Arabic lookup 0 subtable" uniFB70 dx=0 dy=0 dh=0 dv=0 dx=0 dy=0 dh=-50 dv=0
PairPos2: "'kern' Horizontal Kerning in Arabic lookup 0 subtable" uni06A6 dx=0 dy=0 dh=0 dv=0 dx=0 dy=0 dh=-50 dv=0
PairPos2: "'kern' Horizontal Kerning in Arabic lookup 0 subtable" uni06A5 dx=0 dy=0 dh=0 dv=0 dx=0 dy=0 dh=-50 dv=0
PairPos2: "'kern' Horizontal Kerning in Arabic lookup 0 subtable" uni06A3 dx=0 dy=0 dh=0 dv=0 dx=0 dy=0 dh=-50 dv=0
PairPos2: "'kern' Horizontal Kerning in Arabic lookup 0 subtable" uni06A2 dx=0 dy=0 dh=0 dv=0 dx=0 dy=0 dh=-50 dv=0
PairPos2: "'kern' Horizontal Kerning in Arabic lookup 0 subtable" uni06A0.init dx=0 dy=0 dh=0 dv=0 dx=0 dy=0 dh=-80 dv=0
PairPos2: "'kern' Horizontal Kerning in Arabic lookup 0 subtable" uni06A0 dx=0 dy=0 dh=0 dv=0 dx=0 dy=0 dh=50 dv=0
PairPos2: "'kern' Horizontal Kerning in Arabic lookup 0 subtable" uni069F dx=0 dy=0 dh=0 dv=0 dx=0 dy=0 dh=-80 dv=0
PairPos2: "'kern' Horizontal Kerning in Arabic lookup 0 subtable" uni069E.init dx=0 dy=0 dh=0 dv=0 dx=0 dy=0 dh=-80 dv=0
PairPos2: "'kern' Horizontal Kerning in Arabic lookup 0 subtable" uni069E dx=0 dy=0 dh=0 dv=0 dx=0 dy=0 dh=-80 dv=0
PairPos2: "'kern' Horizontal Kerning in Arabic lookup 0 subtable" uni069D.init dx=0 dy=0 dh=0 dv=0 dx=0 dy=0 dh=-80 dv=0
PairPos2: "'kern' Horizontal Kerning in Arabic lookup 0 subtable" uni069D dx=0 dy=0 dh=0 dv=0 dx=0 dy=0 dh=-80 dv=0
PairPos2: "'kern' Horizontal Kerning in Arabic lookup 0 subtable" uni069C.init dx=0 dy=0 dh=0 dv=0 dx=0 dy=0 dh=-80 dv=0
PairPos2: "'kern' Horizontal Kerning in Arabic lookup 0 subtable" uni069C dx=0 dy=0 dh=0 dv=0 dx=0 dy=0 dh=-80 dv=0
PairPos2: "'kern' Horizontal Kerning in Arabic lookup 0 subtable" uni069B.init dx=0 dy=0 dh=0 dv=0 dx=0 dy=0 dh=-80 dv=0
PairPos2: "'kern' Horizontal Kerning in Arabic lookup 0 subtable" uni069B dx=0 dy=0 dh=0 dv=0 dx=0 dy=0 dh=-80 dv=0
PairPos2: "'kern' Horizontal Kerning in Arabic lookup 0 subtable" uni069A.init dx=0 dy=0 dh=0 dv=0 dx=0 dy=0 dh=-80 dv=0
PairPos2: "'kern' Horizontal Kerning in Arabic lookup 0 subtable" uni069A dx=0 dy=0 dh=0 dv=0 dx=0 dy=0 dh=-80 dv=0
PairPos2: "'kern' Horizontal Kerning in Arabic lookup 0 subtable" uniFB80 dx=0 dy=0 dh=0 dv=0 dx=0 dy=0 dh=-40 dv=0
PairPos2: "'kern' Horizontal Kerning in Arabic lookup 0 subtable" uni0687 dx=0 dy=0 dh=0 dv=0 dx=0 dy=0 dh=80 dv=0
PairPos2: "'kern' Horizontal Kerning in Arabic lookup 0 subtable" uni0685.init dx=0 dy=0 dh=0 dv=0 dx=0 dy=0 dh=-40 dv=0
PairPos2: "'kern' Horizontal Kerning in Arabic lookup 0 subtable" uni0685 dx=0 dy=0 dh=0 dv=0 dx=0 dy=0 dh=80 dv=0
PairPos2: "'kern' Horizontal Kerning in Arabic lookup 0 subtable" uniFB74 dx=0 dy=0 dh=0 dv=0 dx=0 dy=0 dh=-40 dv=0
PairPos2: "'kern' Horizontal Kerning in Arabic lookup 0 subtable" uni0684 dx=0 dy=0 dh=0 dv=0 dx=0 dy=0 dh=80 dv=0
PairPos2: "'kern' Horizontal Kerning in Arabic lookup 0 subtable" uniFB78 dx=0 dy=0 dh=0 dv=0 dx=0 dy=0 dh=-40 dv=0
PairPos2: "'kern' Horizontal Kerning in Arabic lookup 0 subtable" uni0683 dx=0 dy=0 dh=0 dv=0 dx=0 dy=0 dh=80 dv=0
PairPos2: "'kern' Horizontal Kerning in Arabic lookup 0 subtable" uni0682.init dx=0 dy=0 dh=0 dv=0 dx=0 dy=0 dh=-40 dv=0
PairPos2: "'kern' Horizontal Kerning in Arabic lookup 0 subtable" uni0682 dx=0 dy=0 dh=0 dv=0 dx=0 dy=0 dh=80 dv=0
PairPos2: "'kern' Horizontal Kerning in Arabic lookup 0 subtable" uni0681.init dx=0 dy=0 dh=0 dv=0 dx=0 dy=0 dh=-40 dv=0
PairPos2: "'kern' Horizontal Kerning in Arabic lookup 0 subtable" uni0681 dx=0 dy=0 dh=0 dv=0 dx=0 dy=0 dh=80 dv=0
PairPos2: "'kern' Horizontal Kerning in Arabic lookup 0 subtable" uniFB5C dx=0 dy=0 dh=0 dv=0 dx=0 dy=0 dh=80 dv=0
PairPos2: "'kern' Horizontal Kerning in Arabic lookup 0 subtable" uni0680 dx=0 dy=0 dh=0 dv=0 dx=0 dy=0 dh=-50 dv=0
PairPos2: "'kern' Horizontal Kerning in Arabic lookup 0 subtable" uni067F dx=0 dy=0 dh=0 dv=0 dx=0 dy=0 dh=-50 dv=0
PairPos2: "'kern' Horizontal Kerning in Arabic lookup 0 subtable" uni067D dx=0 dy=0 dh=0 dv=0 dx=0 dy=0 dh=-50 dv=0
PairPos2: "'kern' Horizontal Kerning in Arabic lookup 0 subtable" uni067C.init dx=0 dy=0 dh=0 dv=0 dx=0 dy=0 dh=80 dv=0
PairPos2: "'kern' Horizontal Kerning in Arabic lookup 0 subtable" uni067C dx=0 dy=0 dh=0 dv=0 dx=0 dy=0 dh=-50 dv=0
PairPos2: "'kern' Horizontal Kerning in Arabic lookup 0 subtable" uniFB54 dx=0 dy=0 dh=0 dv=0 dx=0 dy=0 dh=80 dv=0
PairPos2: "'kern' Horizontal Kerning in Arabic lookup 0 subtable" uni067B dx=0 dy=0 dh=0 dv=0 dx=0 dy=0 dh=-50 dv=0
PairPos2: "'kern' Horizontal Kerning in Arabic lookup 0 subtable" uni067A dx=0 dy=0 dh=0 dv=0 dx=0 dy=0 dh=-50 dv=0
PairPos2: "'kern' Horizontal Kerning in Arabic lookup 0 subtable" uni0675 dx=0 dy=0 dh=0 dv=0 dx=0 dy=0 dh=-90 dv=0
PairPos2: "'kern' Horizontal Kerning in Arabic lookup 0 subtable" uni0673 dx=0 dy=0 dh=0 dv=0 dx=0 dy=0 dh=100 dv=0
PairPos2: "'kern' Horizontal Kerning in Arabic lookup 0 subtable" uni0672 dx=0 dy=0 dh=0 dv=0 dx=0 dy=0 dh=-90 dv=0
PairPos2: "'kern' Horizontal Kerning in Arabic lookup 0 subtable" uni06D3 dx=0 dy=0 dh=0 dv=0 dx=0 dy=0 dh=-100 dv=0
PairPos2: "'kern' Horizontal Kerning in Arabic lookup 0 subtable" uni06D2 dx=0 dy=0 dh=0 dv=0 dx=0 dy=0 dh=-100 dv=0
PairPos2: "'kern' Horizontal Kerning in Arabic lookup 0 subtable" uniFBA8 dx=0 dy=0 dh=0 dv=0 dx=0 dy=0 dh=80 dv=0
PairPos2: "'kern' Horizontal Kerning in Arabic lookup 0 subtable" uni0679 dx=0 dy=0 dh=0 dv=0 dx=0 dy=0 dh=-50 dv=0
PairPos2: "'kern' Horizontal Kerning in Arabic lookup 0 subtable" uniFBFE dx=0 dy=0 dh=0 dv=0 dx=0 dy=0 dh=80 dv=0
PairPos2: "'kern' Horizontal Kerning in Arabic lookup 0 subtable" afii62831 dx=0 dy=0 dh=0 dv=0 dx=0 dy=0 dh=80 dv=0
PairPos2: "'kern' Horizontal Kerning in Arabic lookup 0 subtable" afii62820 dx=0 dy=0 dh=0 dv=0 dx=0 dy=0 dh=-70 dv=0
PairPos2: "'kern' Horizontal Kerning in Arabic lookup 0 subtable" afii57445 dx=0 dy=0 dh=0 dv=0 dx=0 dy=0 dh=-80 dv=0
PairPos2: "'kern' Horizontal Kerning in Arabic lookup 0 subtable" afii62817 dx=0 dy=0 dh=0 dv=0 dx=0 dy=0 dh=-110 dv=0
PairPos2: "'kern' Horizontal Kerning in Arabic lookup 0 subtable" afii57410 dx=0 dy=0 dh=0 dv=0 dx=0 dy=0 dh=-250 dv=0
PairPos2: "'kern' Horizontal Kerning in Arabic lookup 0 subtable" afii57443 dx=0 dy=0 dh=0 dv=0 dx=0 dy=0 dh=-80 dv=0
PairPos2: "'kern' Horizontal Kerning in Arabic lookup 0 subtable" afii62811 dx=0 dy=0 dh=0 dv=0 dx=0 dy=0 dh=-50 dv=0
PairPos2: "'kern' Horizontal Kerning in Arabic lookup 0 subtable" afii62808 dx=0 dy=0 dh=0 dv=0 dx=0 dy=0 dh=-50 dv=0
PairPos2: "'kern' Horizontal Kerning in Arabic lookup 0 subtable" afii57441 dx=0 dy=0 dh=0 dv=0 dx=0 dy=0 dh=-50 dv=0
PairPos2: "'kern' Horizontal Kerning in Arabic lookup 0 subtable" afii62805 dx=0 dy=0 dh=0 dv=0 dx=0 dy=0 dh=-80 dv=0
PairPos2: "'kern' Horizontal Kerning in Arabic lookup 0 subtable" afii57434 dx=0 dy=0 dh=0 dv=0 dx=0 dy=0 dh=50 dv=0
PairPos2: "'kern' Horizontal Kerning in Arabic lookup 0 subtable" afii62802 dx=0 dy=0 dh=0 dv=0 dx=0 dy=0 dh=-80 dv=0
PairPos2: "'kern' Horizontal Kerning in Arabic lookup 0 subtable" afii57433 dx=0 dy=0 dh=0 dv=0 dx=0 dy=0 dh=50 dv=0
PairPos2: "'kern' Horizontal Kerning in Arabic lookup 0 subtable" afii62799 dx=0 dy=0 dh=0 dv=0 dx=0 dy=0 dh=-80 dv=0
PairPos2: "'kern' Horizontal Kerning in Arabic lookup 0 subtable" afii57432 dx=0 dy=0 dh=0 dv=0 dx=0 dy=0 dh=-80 dv=0
PairPos2: "'kern' Horizontal Kerning in Arabic lookup 0 subtable" afii62796 dx=0 dy=0 dh=0 dv=0 dx=0 dy=0 dh=-80 dv=0
PairPos2: "'kern' Horizontal Kerning in Arabic lookup 0 subtable" afii57431 dx=0 dy=0 dh=0 dv=0 dx=0 dy=0 dh=-80 dv=0
PairPos2: "'kern' Horizontal Kerning in Arabic lookup 0 subtable" afii62793 dx=0 dy=0 dh=0 dv=0 dx=0 dy=0 dh=-80 dv=0
PairPos2: "'kern' Horizontal Kerning in Arabic lookup 0 subtable" afii57430 dx=0 dy=0 dh=0 dv=0 dx=0 dy=0 dh=-80 dv=0
PairPos2: "'kern' Horizontal Kerning in Arabic lookup 0 subtable" afii62790 dx=0 dy=0 dh=0 dv=0 dx=0 dy=0 dh=-80 dv=0
PairPos2: "'kern' Horizontal Kerning in Arabic lookup 0 subtable" afii57429 dx=0 dy=0 dh=0 dv=0 dx=0 dy=0 dh=-80 dv=0
PairPos2: "'kern' Horizontal Kerning in Arabic lookup 0 subtable" afii62787 dx=0 dy=0 dh=0 dv=0 dx=0 dy=0 dh=-80 dv=0
PairPos2: "'kern' Horizontal Kerning in Arabic lookup 0 subtable" afii57428 dx=0 dy=0 dh=0 dv=0 dx=0 dy=0 dh=-80 dv=0
PairPos2: "'kern' Horizontal Kerning in Arabic lookup 0 subtable" afii62784 dx=0 dy=0 dh=0 dv=0 dx=0 dy=0 dh=-80 dv=0
PairPos2: "'kern' Horizontal Kerning in Arabic lookup 0 subtable" afii57427 dx=0 dy=0 dh=0 dv=0 dx=0 dy=0 dh=-80 dv=0
PairPos2: "'kern' Horizontal Kerning in Arabic lookup 0 subtable" afii62777 dx=0 dy=0 dh=0 dv=0 dx=0 dy=0 dh=-40 dv=0
PairPos2: "'kern' Horizontal Kerning in Arabic lookup 0 subtable" afii57422 dx=0 dy=0 dh=0 dv=0 dx=0 dy=0 dh=80 dv=0
PairPos2: "'kern' Horizontal Kerning in Arabic lookup 0 subtable" afii62774 dx=0 dy=0 dh=0 dv=0 dx=0 dy=0 dh=-40 dv=0
PairPos2: "'kern' Horizontal Kerning in Arabic lookup 0 subtable" afii57421 dx=0 dy=0 dh=0 dv=0 dx=0 dy=0 dh=80 dv=0
PairPos2: "'kern' Horizontal Kerning in Arabic lookup 0 subtable" afii62771 dx=0 dy=0 dh=0 dv=0 dx=0 dy=0 dh=-40 dv=0
PairPos2: "'kern' Horizontal Kerning in Arabic lookup 0 subtable" afii57420 dx=0 dy=0 dh=0 dv=0 dx=0 dy=0 dh=80 dv=0
PairPos2: "'kern' Horizontal Kerning in Arabic lookup 0 subtable" afii57419 dx=0 dy=0 dh=0 dv=0 dx=0 dy=0 dh=-50 dv=0
PairPos2: "'kern' Horizontal Kerning in Arabic lookup 0 subtable" afii57418 dx=0 dy=0 dh=0 dv=0 dx=0 dy=0 dh=-50 dv=0
PairPos2: "'kern' Horizontal Kerning in Arabic lookup 0 subtable" afii57416 dx=0 dy=0 dh=0 dv=0 dx=0 dy=0 dh=-50 dv=0
PairPos2: "'kern' Horizontal Kerning in Arabic lookup 0 subtable" afii57413 dx=0 dy=0 dh=0 dv=0 dx=0 dy=0 dh=100 dv=0
PairPos2: "'kern' Horizontal Kerning in Arabic lookup 0 subtable" afii57411 dx=0 dy=0 dh=0 dv=0 dx=0 dy=0 dh=-90 dv=0
PairPos2: "'kern' Horizontal Kerning in Arabic lookup 0 subtable" afii52399 dx=0 dy=0 dh=0 dv=0 dx=0 dy=0 dh=-50 dv=0
PairPos2: "'kern' Horizontal Kerning in Arabic lookup 0 subtable" afii62965 dx=0 dy=0 dh=0 dv=0 dx=0 dy=0 dh=-250 dv=0
PairPos2: "'kern' Horizontal Kerning in Arabic lookup 0 subtable" afii57509 dx=0 dy=0 dh=0 dv=0 dx=0 dy=0 dh=-250 dv=0
PairPos2: "'kern' Horizontal Kerning in Arabic lookup 0 subtable" afii52305 dx=0 dy=0 dh=0 dv=0 dx=0 dy=0 dh=-250 dv=0
PairPos2: "'kern' Horizontal Kerning in Arabic lookup 0 subtable" afii57567 dx=0 dy=0 dh=0 dv=0 dx=0 dy=0 dh=-230 dv=0
PairPos2: "'kern' Horizontal Kerning in Arabic lookup 0 subtable" afii62959 dx=0 dy=0 dh=0 dv=0 dx=0 dy=0 dh=-40 dv=0
PairPos2: "'kern' Horizontal Kerning in Arabic lookup 0 subtable" afii57507 dx=0 dy=0 dh=0 dv=0 dx=0 dy=0 dh=80 dv=0
PairPos2: "'kern' Horizontal Kerning in Arabic lookup 0 subtable" afii57505 dx=0 dy=0 dh=0 dv=0 dx=0 dy=0 dh=-50 dv=0
PairPos2: "'kern' Horizontal Kerning in Arabic lookup 0 subtable" afii62956 dx=0 dy=0 dh=0 dv=0 dx=0 dy=0 dh=80 dv=0
PairPos2: "'kern' Horizontal Kerning in Arabic lookup 0 subtable" afii57506 dx=0 dy=0 dh=0 dv=0 dx=0 dy=0 dh=-50 dv=0
PairPos2: "'kern' Horizontal Kerning in Arabic lookup 0 subtable" afii57372 dx=0 dy=0 dh=0 dv=0 dx=0 dy=0 dh=-50 dv=0
EndChar

